<ttFont>
          <CharString index="0">
            324 callgsubr
            -37 hvcurveto
            return
          </CharString>
          <CharString index="1">
            -37 -10 -9 -15 -15 10 -9 37 hvcurveto
            return
          </CharString>
          <CharString index="2">
            -21 -105 callgsubr
            return
          </CharString>
          <CharString index="3">
            rmoveto
            -106 callsubr
            return
          </CharString>
          <CharString index="4">
            -93 callgsubr
            33 31 7 11 29 hvcurveto
            return
          </CharString>
          <CharString index="5">
            rmoveto
            -6 -34 -8 -35 -7 -37 rrcurveto
            -129 -38 -210 -137 -141 hhcurveto
            102 63 97 106 114 vvcurveto
            37 -9 31 -19 21 vhcurveto
            return
          </CharString>
          <CharString index="6">
            -106 callsubr
            80 -103 callsubr
            return
          </CharString>
          <CharString index="7">
            -12 -10 -8 -10 -7 vvcurveto
            -12 14 -14 13 vhcurveto
            20 11 33 44 hhcurveto
            36 18 -25 -45 return
          </CharString>
          <CharString index="8">
            -112 57 -96 88 46 43 25 23 12 -5 10 -18 vhcurveto
            -23 -7 -21 -42 hhcurveto
            -56 -35 65 93 108 81 92 90 53 19 -54 -40 hvcurveto
            -53 -15 -14 -27 vvcurveto
            -11 6 -9 11 vhcurveto
            return
          </CharString>
          <CharString index="9">
            236 callgsubr
            49 20 -30 -2 25 hvcurveto
            1 0 1 hlineto
            115 callgsubr
            14 17 vvcurveto
            120 29 42 12 27 vhcurveto
            return
          </CharString>
          <CharString index="10">
            2 hlineto
            -9 -33 -7 -33 -7 -28 rrcurveto
            -41 -10 -26 -25 -28 vvcurveto
            -20 18 -17 29 22 15 26 37 13 vhcurveto
            2 3 0 3 hhcurveto
            27 24 -30 -27 -51 -75 -35 -115 hvcurveto
            -104 -50 44 -25 hhcurveto
            -12 -5 -3 -10 -30 101 -46 101 135 92 54 81 45 -42 46 -48 3 hvcurveto
            6 21 6 22 6 23 7 26 rcurveline
            91 10 79 39 68 254 callsubr
            -37 -65 -75 -25 -57 callsubr
          </CharString>
          <CharString index="11">
            -106 callsubr
            102 hlineto
            -12 -54 -10 -50 -11 -53 -65 -34 -90 -27 -91 -19 rrcurveto
            33 41 19 51 46 vvcurveto
            66 -28 62 -80 -67 -47 -55 -43 -22 9 -16 14 12 4 7 11 3 vhcurveto
            3 11 4 14 12 14 rrcurveto
            15 12 18 12 25 hhcurveto
            40 17 -33 -46 -59 -29 -51 -55 -35 hvcurveto
            7 -22 -25 3 -26 hhcurveto
            -35 -25 -10 -17 -17 25 -37 28 30 28 7 12 25 hvcurveto
            6 -3 5 -3 4 -4 rrcurveto
            21 -18 11 -18 -32 vvcurveto
            -76 -98 -42 -119 -105 -89 43 88 vhcurveto
            53 13 14 27 vvcurveto
            10 -4 6 -12 -36 -19 -59 -50 -108 107 -76 142 156 120 68 102 37 -14 30 -23 23 vhcurveto
            80 13 91 22 74 27 -10 -44 rcurveline
            -29 -130 -33 -135 -21 vvcurveto
            -10 12 -11 8 33 35 183 133 30 vhcurveto
            -20 callgsubr
            return
          </CharString>
          <CharString index="12">
            rmoveto
            38 94 47 110 54 118 20 -83 14 -92 11 -102 -57 -13 -67 -16 -60 -16 rrcurveto
            -69 -20 rmoveto
            -58 -18 -40 -17 -11 vvcurveto
            -21 20 -4 20 6 10 2 3 14 vhcurveto
            -40 -93 -31 -74 -5 vvcurveto
            -26 16 -22 16 13 36 93 146 59 vhcurveto
            29 7 36 11 46 12 106 28 rcurveline
            6 -68 5 -73 4 -77 rrcurveto
            -53 3 9 -26 21 hhcurveto
            13 8 36 70 3 hvcurveto
            2 40 -4 79 -9 89 rrcurveto
            54 15 34 13 10 vvcurveto
            23 -29 0 -19 -3 vhcurveto
            -11 -2 -16 -3 -18 -3 rrcurveto
            165 -19 -33 176 -41 hhcurveto
            -35 -12 -23 -37 -18 hvcurveto
            -20 -40 -54 -122 -50 -120 rrcurveto
            endchar
          </CharString>
          <CharString index="13">
            -112 55 -96 94 46 43 25 23 12 -6 7 -14 vhcurveto
            -93 callsubr
          </CharString>
          <CharString index="14">
            -18 -11 -18 -46 hhcurveto
            -60 -31 68 90 114 83 86 88 51 21 -40 -50 hvcurveto
            -61 -25 -31 -27 vvcurveto
            -11 6 -9 11 vhcurveto
            152 callsubr
            25 83 64 70 78 hvcurveto
            32 28 31 30 26 26 -19 -89 161 callsubr
            122 -107 callsubr
            endchar
          </CharString>
          <CharString index="15">
            rmoveto
            -37 -10 -9 -15 -15 10 -9 37 hvcurveto
            109 224 callsubr
            -23 -12 -12 -20 -29 40 -24 41 -2 hvcurveto
            -69 47 66 -90 111 hhcurveto
            return
          </CharString>
          <CharString index="16">
            vvcurveto
            -9 20 -16 8 return
          </CharString>
          <CharString index="17">
            78 12 88 12 73 20 -11 -51 -85 callgsubr
          </CharString>
          <CharString index="18">
            rmoveto
            -89 callgsubr
            return
          </CharString>
          <CharString index="19">
            hlineto
            -1 -9 0 -12 -13 vvcurveto
            -50 -2 -65 -6 -62 vhcurveto
            6 -32 -29 2 -38 hhcurveto
            -77 -58 -29 -62 -77 61 -96 77 107 46 171 193 56 -1 31 -2 16 hvcurveto
            return
          </CharString>
          <CharString index="20">
            35 -141 26 152 vvcurveto
            66 70 27 100 68 47 -8 -18 60 vhcurveto
            -26 -127 -33 -126 -105 callsubr
            120 -107 callgsubr
          </CharString>
          <CharString index="21">
            rmoveto
            -70 callgsubr
            -95 -110 -167 -76 -42 42 -34 39 return
          </CharString>
          <CharString index="22">
            rmoveto
            9 77 2 77 55 vvcurveto
            7 267 vlineto
            -10 -55 -13 -58 -13 -60 -42 -7 -93 -20 -83 -12 -48 callsubr
            return
          </CharString>
          <CharString index="23">
            -13 -44 -6 -43 -33 vvcurveto
            -69 9 -41 22 20 -13 60 93 16 vhcurveto
            -73 callsubr
            128 -107 callgsubr
          </CharString>
          <CharString index="24">
            16 callgsubr
            -65 -38 -56 81 callsubr
            -165 48 -65 callsubr
            return
          </CharString>
          <CharString index="25">
            hlineto
            -79 callgsubr
            return
          </CharString>
          <CharString index="26">
            33 -21 -39 36 -77 callsubr
            -1 vlineto
            -8 6 14 -10 6 hhcurveto
            14 44 183 133 31 hvcurveto
            21 91 30 138 4 31 rrcurveto
            return
          </CharString>
          <CharString index="27">
            hhcurveto
            -134 -152 -20 -84 -76 112 -124 74 72 33 82 80 32 -1 37 -7 25 hvcurveto
            25 hlineto
            return
          </CharString>
          <CharString index="28">
            -43 273 callsubr
            71 rrcurveto
            29 26 28 19 25 hhcurveto
            21 16 -24 -23 13 hvcurveto
            -23 13 11 -23 11 hhcurveto
            12 3 13 16 40 -44 75 -46 -122 -113 -193 -132 -65 26 -51 64 return
          </CharString>
          <CharString index="29">
            -106 callsubr
            186 -88 callsubr
            return
          </CharString>
          <CharString index="30">
            -42 -78 callgsubr
            return
          </CharString>
          <CharString index="31">
            vvcurveto
            -9 20 -16 8 14 44 183 133 31 vhcurveto
            -52 callsubr
          </CharString>
          <CharString index="32">
            -3 -81 -25 -40 -27 -75 callgsubr
            return
          </CharString>
          <CharString index="33">
            10 10 -1 11 hhcurveto
            54 50 16 24 38 hvcurveto
            -4 -21 -67 callgsubr
          </CharString>
          <CharString index="34">
            5 26 6 27 8 26 rrcurveto
            92 9 82 39 69 vvcurveto
            43 -22 29 -49 -63 -47 -65 -75 -30 vhcurveto
            -4 hlineto
            -98 callsubr
            return
          </CharString>
          <CharString index="35">
            -1 -4 -19 -89 -21 -90 -12 -53 rlinecurve
            33 -22 -38 35 -77 callsubr
            1 -1 1 -2 2 -1 rrcurveto
            -8 6 10 -7 -54 callsubr
            91 -107 callgsubr
          </CharString>
          <CharString index="36">
            56 -45 184 -7 -61 vvcurveto
            -43 -47 -36 -77 -86 -38 38 41 117 callgsubr
            -14 -6 208 callsubr
            138 -107 callgsubr
          </CharString>
          <CharString index="37">
            rmoveto
            -34 -11 24 42 94 78 158 76 44 47 -86 -104 13 hvcurveto
            -73 -53 -83 -55 -77 hhcurveto
            return
          </CharString>
          <CharString index="38">
            -82 callsubr
            4 -7 -7 3 -6 hhcurveto
            return
          </CharString>
          <CharString index="39">
            480 rmoveto
            -82 -50 -85 -78 -51 23 -46 42 -20 hvcurveto
            -70 -102 -147 -47 -103 hhcurveto
            -10 -5 4 9 67 104 97 63 43 hvcurveto
            14 10 12 9 12 vvcurveto
            7 -6 3 -11 vhcurveto
            257 callgsubr
            -26 -30 -10 -41 hhcurveto
            -43 -21 12 21 55 135 142 235 callgsubr
            181 hlineto
            -9 -22 -6 -31 -23 vvcurveto
            -11 0 -11 2 -10 vhcurveto
            -31 -250 rmoveto
            -25 5 -31 18 63 vvcurveto
            59 32 58 54 35 12 -30 -35 -50 -30 -47 -47 -41 vhcurveto
            return
          </CharString>
          <CharString index="40">
            -69 callsubr
            -12 -9 -6 -12 return
          </CharString>
          <CharString index="41">
            vhcurveto
            -103 callgsubr
            76 hlineto
            47 21 7 15 21 -31 5 -60 hvcurveto
            return
          </CharString>
          <CharString index="42">
            -33 callsubr
            83 59 37 40 63 vhcurveto
            -19 -118 -16 -101 -18 16 callsubr
            return
          </CharString>
          <CharString index="43">
            rlineto
            -27 -130 -34 -131 -21 -76 callsubr
          </CharString>
          <CharString index="44">
            rmoveto
            -110 -115 -13 -13 -6 -17 9 -11 rlinecurve
            12 -14 20 11 11 8 117 93 rcurveline
            12 9 1 29 -16 17 -11 13 -12 3 -14 -13 rrcurveto
            return
          </CharString>
          <CharString index="45">
            -6 -6 -3 -7 -5 vvcurveto
            -11 19 -18 11 vhcurveto
            13 18 37 62 hhcurveto
            51 24 -30 -54 return
          </CharString>
          <CharString index="46">
            -96 callsubr
            188 -99 callgsubr
            118 -107 callsubr
            endchar
          </CharString>
          <CharString index="47">
            22 -28 -28 14 -49 hhcurveto
            -104 -198 -70 -86 -57 66 -43 60 67 30 45 59 27 -5 32 -14 28 hvcurveto
            10 38 37 7 25 hhcurveto
            39 26 -8 -33 39 hvcurveto
            -7 7 8 -5 -2 callgsubr
            return
          </CharString>
          <CharString index="48">
            636 -104 callsubr
            return
          </CharString>
          <CharString index="49">
            -84 hvcurveto
            47 46 34 53 66 vvcurveto
            84 -59 60 -70 -103 -55 -87 -76 -79 51 -51 68 -32 vhcurveto
            -105 -81 -137 -71 -99 vvcurveto
            -88 101 -31 102 -1 vhcurveto
            -107 8 58 -122 36 hhcurveto
            9 8 5 9 19 -69 73 -6 125 hvcurveto
            109 10 95 52 82 vvcurveto
            58 -46 33 -49 -94 -53 -85 -107 -6 vhcurveto
            -86 2 -70 23 50 vvcurveto
            83 138 63 105 86 vhcurveto
            -22 70 78 -8 61 hhcurveto
            return
          </CharString>
          <CharString index="50">
            vhcurveto
            -16 -65 callgsubr
          </CharString>
          <CharString index="51">
            hlineto
            -16 -83 -20 -52 callgsubr
            return
          </CharString>
          <CharString index="52">
            -17 callgsubr
            64 -21 callsubr
            return
          </CharString>
          <CharString index="53">
            6 -68 callgsubr
            return
          </CharString>
          <CharString index="54">
            rmoveto
            84 -46 81 -75 -131 -113 -177 -150 -88 42 -70 68 139 116 168 152 vhcurveto
            -116 120 rmoveto
            36 -17 21 -48 -51 vvcurveto
            -101 -77 -161 -118 -12 vhcurveto
            -39 14 -12 39 40 vvcurveto
            122 72 153 117 22 vhcurveto
            return
          </CharString>
          <CharString index="55">
            21 91 30 138 4 31 -24 callgsubr
          </CharString>
          <CharString index="56">
            122 -70 callsubr
            return
          </CharString>
          <CharString index="57">
            255 callgsubr
            57 78 73 97 29 hvcurveto
            5 2 rlineto
            301 callgsubr
            9 3 5 5 6 vvcurveto
            20 -25 10 -49 vhcurveto
            -146 240 callgsubr
            -33 22 return
          </CharString>
          <CharString index="58">
            hhcurveto
            -13 -5 4 9 45 75 78 57 39 hvcurveto
            21 14 24 18 13 vvcurveto
            11 -6 6 -13 vhcurveto
            -1 hlineto
            -4 callsubr
            108 113 89 86 45 -26 22 -45 return
          </CharString>
          <CharString index="59">
            rrcurveto
            -161 -225 rmoveto
            -32 -44 58 39 37 66 18 88 15 hvcurveto
            -92 -14 -24 -75 -40 hhcurveto
            return
          </CharString>
          <CharString index="60">
            rmoveto
            -42 57 -54 91 -34 71 rrcurveto
            25 24 25 16 23 hhcurveto
            59 32 -104 -108 22 hvcurveto
            -16 -17 -19 -16 -20 -15 rrcurveto
            -231 -15 rmoveto
            54 29 77 38 58 vhcurveto
            33 -67 53 -78 46 -52 rrcurveto
            -34 -53 -57 -24 -43 hhcurveto
            -34 -12 24 42 hvcurveto
            return
          </CharString>
          <CharString index="61">
            rmoveto
            -30 -40 5 9 -37 hvcurveto
            83 37 64 71 62 hhcurveto
            168 callsubr
            hvcurveto
            50 224 rmoveto
            -120 -126 -187 -142 -95 76 -61 90 69 98 54 25 10 -6 6 -12 hvcurveto
            -28 -48 -38 -84 hhcurveto
            -56 -43 32 50 30 6 32 10 32 hvcurveto
            -11 44 45 -8 47 hhcurveto
            169 callgsubr
            hvcurveto
            return
          </CharString>
          <CharString index="62">
            707 636 rmoveto
            -96 callsubr
            return
          </CharString>
          <CharString index="63">
            hlineto
            -11 -10 -6 -11 -6 vvcurveto
            -12 21 -14 12 10 8 9 11 10 vhcurveto
            12 11 20 9 27 hhcurveto
            51 22 -29 -62 -106 -79 -89 -117 hvcurveto
            -43 -3 41 -28 hhcurveto
            -7 -5 -8 -9 -2 hvcurveto
            -1 -2 0 -1 -2 vvcurveto
            0 vlineto
            -1 vlineto
            -4 1 -5 3 -6 vhcurveto
            13 -40 52 -85 33 -44 rrcurveto
            -66 49 69 -82 23 hhcurveto
            11 5 6 11 18 -64 65 -55 76 hvcurveto
            -18 24 -19 35 -19 31 rrcurveto
            7 hlineto
            return
          </CharString>
          <CharString index="64">
            hlineto
            -106 callsubr
            return
          </CharString>
          <CharString index="65">
            139 callsubr
            4 -7 -7 3 -6 280 callsubr
            -14 53 -78 57 -74 hvcurveto
            -74 58 61 -71 41 callgsubr
            return
          </CharString>
          <CharString index="66">
            rrcurveto
            -60 callsubr
            return
          </CharString>
          <CharString index="67">
            rmoveto
            31 -26 -9 15 -26 hhcurveto
            -19 -42 -29 -27 -47 hvcurveto
            -49 -28 -19 -18 -26 vvcurveto
            -16 14 -7 11 32 52 63 36 70 vhcurveto
            -45 35 34 -64 33 hhcurveto
            14 9 6 11 18 -32 38 -35 42 hvcurveto
            return
          </CharString>
          <CharString index="68">
            -23 callsubr
            -98 451 -104 callsubr
            203 -14 hlineto
            -50 -2 -65 -6 -62 vhcurveto
            6 -32 -29 2 -38 hhcurveto
            -77 -58 -29 -62 -77 61 -96 77 107 46 171 193 38 0 27 -1 18 hvcurveto
            return
          </CharString>
          <CharString index="69">
            rmoveto
            31 20 -31 -18 -47 -91 -23 -96 -2 hvcurveto
            57 36 53 64 47 hhcurveto
            -326 142 callgsubr
            353 hlineto
            -16 -33 -8 -61 -51 vvcurveto
            15 -20 -22 12 -17 hhcurveto
            -93 -229 -197 -104 -38 41 -39 57 -18 hvcurveto
            return
          </CharString>
          <CharString index="70">
            rmoveto
            24 -25 32 -16 -10 -5 -3 -19 -4 vhcurveto
            -15 -57 29 -212 -119 -329 -74 159 -144 355 -12 49 rrcurveto
            32 -8 -27 25 -10 hhcurveto
            -12 -2 -5 -24 hvcurveto
            -116 -138 -427 -72 vvcurveto
            -22 22 -23 10 12 7 51 476 126 vhcurveto
            30 -86 148 -352 25 -49 rrcurveto
            -24 12 19 -16 15 hhcurveto
            83 85 456 177 -2 hvcurveto
            return
          </CharString>
          <CharString index="71">
            -38 callsubr
            -16 callgsubr
            return
          </CharString>
          <CharString index="72">
            102 callsubr
            -37 -44 -21 -59 -8 hvcurveto
            51 19 23 38 34 hhcurveto
            -255 -379 rmoveto
            -19 -45 39 33 19 12 8 19 26 29 -19 -26 31 hvcurveto
            -33 -15 -17 -21 -21 hhcurveto
            return
          </CharString>
          <CharString index="73">
            115 151 72 104 91 return
          </CharString>
          <CharString index="74">
            -5 callgsubr
            -68 -28 -122 -90 201 callsubr
            return
          </CharString>
          <CharString index="75">
            rmoveto
            40 142 16 84 35 vvcurveto
            8 -1 9 -3 7 vhcurveto
            11 32 44 15 51 hhcurveto
            68 54 -22 -50 -139 -262 -51 -39 -49 hvcurveto
            -4 -17 rmoveto
            -73 8 247 -224 64 hhcurveto
            16 4 4 11 20 -58 40 -55 47 hvcurveto
            -65 57 -95 87 26 26 297 50 180 vvcurveto
            98 -92 40 -110 -74 -108 -32 -27 -14 12 -17 12 -6 vhcurveto
            -13 -149 -113 -333 -67 vvcurveto
            -22 20 -21 13 9 36 145 123 36 vhcurveto
            return
          </CharString>
          <CharString index="76">
            -23 vvcurveto
            -7 0 -7 1 -7 vhcurveto
            6 -16 -19 4 -16 hhcurveto
            -74 -137 -53 -48 -15 8 -20 15 -12 hvcurveto
            58 -44 155 0 -65 vvcurveto
            -30 -43 -30 -73 -80 -39 39 42 -19 vhcurveto
            14 -6 -6 8 -17 hhcurveto
            -10 -7 -7 -14 return
          </CharString>
          <CharString index="77">
            512 rmoveto
            -3 -15 rlineto
            -120 -29 -114 -133 -94 hhcurveto
            -25 -20 41 74 84 14 77 25 68 hvcurveto
            261 hlineto
            -5 -25 -5 -25 -5 -26 rrcurveto
            return
          </CharString>
          <CharString index="78">
            vvcurveto
            82 -41 69 -88 -87 -54 -57 -45 -12 7 -8 10 vhcurveto
            25 6 71 95 hhcurveto
            52 25 -43 -55 -94 -74 -128 -110 -46 -19 13 33 hvcurveto
            35 20 9 14 vvcurveto
            9 -5 5 -11 -28 -28 -35 -35 -55 35 -43 74 return
          </CharString>
          <CharString index="79">
            -27 -130 -34 12 callsubr
            return
          </CharString>
          <CharString index="80">
            11 callsubr
            -8 vlineto
            12 -23 return
          </CharString>
          <CharString index="81">
            48 -104 callsubr
            return
          </CharString>
          <CharString index="82">
            79 8 75 5 47 7 rrcurveto
            -27 -128 -33 -127 -105 callsubr
            77 callsubr
          </CharString>
          <CharString index="83">
            hlineto
            -1 -9 -1 -12 -13 vvcurveto
            -1 return
          </CharString>
          <CharString index="84">
            rmoveto
            -51 -37 72 44 41 36 17 57 34 30 -5 -4 22 hvcurveto
            -90 -14 -27 -75 -50 hhcurveto
            return
          </CharString>
          <CharString index="85">
            43 8 -65 -67 -11 0 -12 -1 -11 hvcurveto
            -6 -21 -21 -4 -30 hhcurveto
            return
          </CharString>
          <CharString index="86">
            280 36 8 -66 callsubr
            return
          </CharString>
          <CharString index="87">
            -17 8 -23 -41 vvcurveto
            -63 -15 -68 -43 -16 -11 10 16 -8 vhcurveto
            65 -29 -33 57 -26 hhcurveto
            -5 -17 -1 -18 -11 7 -19 21 -28 hvcurveto
            return
          </CharString>
          <CharString index="88">
            -105 callgsubr
            119 -107 callgsubr
          </CharString>
          <CharString index="89">
            -218 208 675 rmoveto
            -116 -131 -427 -66 vvcurveto
            -21 22 -23 12 12 35 148 126 34 vhcurveto
            46 169 28 133 37 vvcurveto
            35 -26 34 -17 -13 -2 -6 -23 vhcurveto
            return
          </CharString>
          <CharString index="90">
            hhcurveto
            -87 callgsubr
            return
          </CharString>
          <CharString index="91">
            -102 callgsubr
            -327 -178 rmoveto
            -2 hlineto
            -16 -65 -47 -75 hhcurveto
            -25 -8 6 22 17 5 21 10 21 hvcurveto
            -4 14 16 -2 16 95 callsubr
            -112 -91 -71 -59 -43 hvcurveto
            -37 -55 -102 -72 -128 hhcurveto
            -18 -10 8 15 45 75 78 57 39 hvcurveto
            21 14 24 18 13 vvcurveto
            11 -6 6 -13 vhcurveto
            return
          </CharString>
          <CharString index="92">
            rmoveto
            -2 32 -39 42 -61 20 rrcurveto
            17 -54 -51 7 -77 hhcurveto
            -98 -55 -21 -11 1 hvcurveto
            1 -19 26 -28 27 1 39 1 47 14 56 1 78 4 101 -24 1 -23 rrcurveto
            3 -112 -440 -259 -118 vvcurveto
            -39 43 -40 45 189 182 48 29 14 -3 4 -14 vhcurveto
            -66 -178 -37 -102 hhcurveto
            -24 -9 17 10 64 437 286 -3 120 hvcurveto
            return
          </CharString>
          <CharString index="93">
            hlineto
            -24 -55 -30 -93 -107 vvcurveto
            -96 29 -72 71 146 96 183 186 20 -7 19 -10 15 vhcurveto
            return
          </CharString>
          <CharString index="94">
            rmoveto
            -12 -66 -16 -70 -16 -75 -86 -35 -97 -22 -100 -7 rrcurveto
            54 46 35 66 65 -12 callgsubr
            return
          </CharString>
          <CharString index="95">
            -31 callgsubr
            -608 306 2 callgsubr
            42 -1 hvcurveto
            -64 49 74 -75 111 hhcurveto
            92 102 27 73 92 hvcurveto
            -15 -65 -14 -60 -8 -38 9 callsubr
            118 -107 callsubr
            endchar
          </CharString>
          <CharString index="96">
            28 -30 61 -19 -17 -18 -22 -19 -24 41 -41 27 return
          </CharString>
          <CharString index="97">
            34 callsubr
            39 141 callsubr
            294 223 callsubr
            -22 -1 -52 -1 -44 344 callsubr
            21 -53 -41 callgsubr
            vvcurveto
            return
          </CharString>
          <CharString index="98">
            rmoveto
            -33 -16 -28 -39 -29 -43 20 30 30 51 30 59 22 vhcurveto
            13 -22 4 -28 -21 vvcurveto
            return
          </CharString>
          <CharString index="99">
            36 callgsubr
            -91 27 -94 80 return
          </CharString>
          <CharString index="100">
            64 callsubr
            -123 -103 -102 -148 18 callgsubr
            return
          </CharString>
          <CharString index="101">
            343 callsubr
            -23 -5 -23 -5 -23 rrcurveto
            -142 -37 -113 -133 -91 hhcurveto
            -25 -20 41 74 84 14 77 25 68 hvcurveto
            return
          </CharString>
          <CharString index="102">
            rmoveto
            137 108 78 108 hvcurveto
            112 -242 154 46 vvcurveto
            29 37 32 74 31 vhcurveto
            90 36 74 -3 18 vvcurveto
            17 -24 21 -35 -74 -124 -57 -50 -46 vhcurveto
            -13 -16 -15 -37 -23 -91 233 -128 -94 vvcurveto
            -68 -79 -58 -117 vhcurveto
            -95 -55 95 -22 hhcurveto
            -9 -4 -4 -13 -41 80 -94 121 hvcurveto
            return
          </CharString>
          <CharString index="103">
            -2 hlineto
            -16 -65 -47 -75 hhcurveto
            -25 -8 6 22 17 5 21 10 21 hvcurveto
            -4 14 16 -2 16 hhcurveto
            return
          </CharString>
          <CharString index="104">
            rmoveto
            17 9 -8 -17 -62 -86 -65 -79 -11 -11 2 2 -10 hvcurveto
            75 46 79 73 46 hhcurveto
            return
          </CharString>
          <CharString index="105">
            149 -24 callsubr
            return
          </CharString>
          <CharString index="106">
            -92 callsubr
            113 136 48 94 84 hvcurveto
            return
          </CharString>
          <CharString index="107">
            34 10 callsubr
            -67 83 -39 53 hvcurveto
            return
          </CharString>
          <CharString index="108">
            vvcurveto
            -23 32 -26 25 129 134 51 87 94 vhcurveto
            -27 -129 -34 -130 -21 -76 callsubr
          </CharString>
          <CharString index="109">
            -104 callsubr
            306 316 callgsubr
            -95 -110 -167 -76 -42 42 -34 39 return
          </CharString>
          <CharString index="110">
            vvcurveto
            -12 3 -8 10 15 14 12 24 5 vhcurveto
            22 105 25 134 24 116 14 69 rcurveline
            121 59 93 89 91 vvcurveto
            59 -23 43 -54 -102 -47 -148 -161 -32 vhcurveto
            -34 -78 -88 -21 -77 hhcurveto
            -10 -5 4 8 57 63 71 59 46 hvcurveto
            20 16 60 35 19 vvcurveto
            11 -6 6 -13 vhcurveto
            257 callgsubr
            -26 -30 -10 -41 hhcurveto
            -43 -27 9 21 55 132 133 235 callgsubr
            return
          </CharString>
          <CharString index="111">
            hlineto
            -14 -75 -18 -80 -18 -86 rrcurveto
            43 -67 -205 84 -56 hhcurveto
            -13 -4 -6 -9 -20 74 -14 109 -43 hvcurveto
            61 -24 60 -32 27 -12 -43 -21 -75 -50 -63 -38 105 callsubr
            11 92 53 57 93 vhcurveto
            56 35 57 36 38 27 rrcurveto
            327 callgsubr
            -100 -18 -76 callsubr
          </CharString>
          <CharString index="112">
            rmoveto
            28 callsubr
            return
          </CharString>
          <CharString index="113">
            400 -104 callsubr
            return
          </CharString>
          <CharString index="114">
            rmoveto
            136 26 20 4 16 vvcurveto
            13 -20 8 -32 -19 -38 -4 -6 -42 vhcurveto
            11 53 7 40 17 vvcurveto
            27 -32 24 -13 -12 -2 -8 -22 -1 vhcurveto
            -5 -49 -7 -47 -10 -45 rrcurveto
            -60 -12 -52 -14 -14 vvcurveto
            -12 20 -19 15 14 19 3 7 30 vhcurveto
            -35 -146 -47 -118 -57 vvcurveto
            -41 36 -34 58 68 92 59 31 8 -3 4 -11 vhcurveto
            -22 -49 -41 -81 hhcurveto
            -16 -11 8 17 14 4 31 38 121 hvcurveto
            17 55 14 53 12 48 rrcurveto
            return
          </CharString>
          <CharString index="115">
            hlineto
            -10 -28 -4 -35 -24 vvcurveto
            -6 0 -6 1 -6 vhcurveto
            6 -15 -18 4 -18 hhcurveto
            -74 -143 -66 -56 return
          </CharString>
          <CharString index="116">
            rrcurveto
            21 -25 -45 15 -38 hhcurveto
            -64 -60 -35 -43 -58 hvcurveto
            -62 -46 -65 -55 -20 vvcurveto
            -8 6 -6 8 28 56 60 45 59 vhcurveto
            38 50 56 25 40 hhcurveto
            47 39 -14 -23 23 hvcurveto
            3 -3 rlineto
            -8 7 11 -7 -2 callgsubr
            return
          </CharString>
          <CharString index="117">
            12 4 7 10 16 return
          </CharString>
          <CharString index="118">
            hlineto
            -23 -32 -19 -53 -60 vvcurveto
            return
          </CharString>
          <CharString index="119">
            -131 142 callsubr
            return
          </CharString>
          <CharString index="120">
            hhcurveto
            -34 callsubr
            hvcurveto
            3 callgsubr
            return
          </CharString>
          <CharString index="121">
            -114 -95 -40 -95 19 callgsubr
            hvcurveto
            35 -141 26 152 vvcurveto
            66 70 27 100 return
          </CharString>
          <CharString index="122">
            -68 -36 -77 -47 -94 -63 -25 55 -31 hhcurveto
            -9 -5 -9 -10 -1 hvcurveto
            return
          </CharString>
          <CharString index="123">
            vvcurveto
            -10 12 -11 8 31 18 156 return
          </CharString>
          <CharString index="124">
            29 callsubr
            -377 353 rmoveto
            -37 -10 -9 -15 -15 10 -9 37 hvcurveto
            314 198 callsubr
            rrcurveto
            -139 -3 -191 -186 -104 vvcurveto
            return
          </CharString>
          <CharString index="125">
            11 -9 17 -11 13 14 10 10 -7 17 -12 13 -101 110 rcurveline
            -14 14 -17 -6 -11 -13 return
          </CharString>
          <CharString index="126">
            rmoveto
            -16 -83 -13 -74 -13 -86 rrcurveto
            -50 -84 -65 -34 -58 68 callsubr
            120 30 71 hvcurveto
            -165 48 -5 callgsubr
            -64 -28 -106 -90 201 callsubr
            67 70 32 41 70 vhcurveto
            -12 -78 -12 -72 -6 -48 rrcurveto
            35 -22 -37 37 51 callsubr
            2 -3 3 -2 3 -2 rrcurveto
            -2 2 3 -1 3 hhcurveto
            33 17 167 143 27 hvcurveto
            50 85 63 28 45 hhcurveto
            36 13 -33 303 callgsubr
            51 -62 -50 -66 -30 -38 -67 vhcurveto
            16 85 16 96 3 26 rrcurveto
            327 -107 callgsubr
          </CharString>
          <CharString index="127">
            rmoveto
            -58 -21 -40 -49 -57 -115 12 67 2 35 -2 27 rrcurveto
            38 -2 -23 28 -17 hhcurveto
            -23 -2 10 -38 -70 vvcurveto
            -72 -12 -102 -46 -140 vhcurveto
            -12 -35 21 -31 15 1 32 2 -1 84 63 137 52 113 38 72 86 33 64 26 -47 31 -55 -19 rrcurveto
            return
          </CharString>
          <CharString index="128">
            rmoveto
            34 -26 32 -16 -13 -3 -6 -23 vhcurveto
            -127 -132 -363 -90 vvcurveto
            -43 51 -36 62 127 181 63 40 9 -1 1 -10 vhcurveto
            -27 -126 -54 -161 hhcurveto
            -18 -15 13 20 18 7 33 40 135 hvcurveto
            47 162 33 137 45 vvcurveto
            endchar
          </CharString>
          <CharString index="129">
            343 211 rmoveto
            61 callsubr
            78 36 80 28 24 48 callgsubr
            return
          </CharString>
          <CharString index="130">
            rmoveto
            239 callgsubr
            -71 -48 31 51 vhcurveto
            -388 275 2 callgsubr
            41 -1 hvcurveto
            -66 52 76 -73 107 hhcurveto
            61 63 13 24 57 hvcurveto
            -127 -128 -161 -115 -22 vvcurveto
            -7 6 -5 8 72 304 294 106 56 vhcurveto
            0 vlineto
            6 11 4 12 14 301 callsubr
            -58 -63 -17 -75 hhcurveto
            -88 -48 48 45 -39 hvcurveto
            123 20 96 82 110 vvcurveto
            37 -10 33 -21 24 vhcurveto
            353 -107 callgsubr
          </CharString>
          <CharString index="131">
            rmoveto
            -176 -229 -312 -197 -88 84 -91 86 69 98 75 131 69 hvcurveto
            -42 -141 -46 -103 -42 vvcurveto
            -20 8 -9 15 24 99 308 54 27 -30 39 -32 -95 -57 -11 -17 -13 25 -21 24 20 34 6 17 51 vhcurveto
            -130 -85 -87 -86 -65 hhcurveto
            -50 -51 52 68 190 219 248 122 hvcurveto
            35 15 -19 14 hhcurveto
            7 3 4 11 19 -36 51 -40 hvcurveto
            return
          </CharString>
          <CharString index="132">
            102 callgsubr
            hvcurveto
            10 399 2 callsubr
            return
          </CharString>
          <CharString index="133">
            rmoveto
            -72 -27 -28 -22 -25 -71 -38 85 -18 hhcurveto
            -7 -15 -18 -13 -50 84 -52 67 60 40 47 92 33 hvcurveto
            186 522 rlineto
            41 14 -30 39 -19 hhcurveto
            -14 2 -9 -21 -6 hvcurveto
            -44 -145 -103 -257 -108 1 rrcurveto
            -27 -23 23 31 hvcurveto
            147 111 161 31 vvcurveto
            21 -16 17 -13 -40 -103 -238 -132 -55 44 -60 64 52 50 34 67 45 vhcurveto
            return
          </CharString>
          <CharString index="134">
            rmoveto
            16 29 11 56 35 vvcurveto
            30 -37 30 -30 vhcurveto
            -51 -95 -28 -95 hhcurveto
            -12 -6 5 10 hvcurveto
            59 61 62 28 vvcurveto
            12 -11 16 -10 -18 -66 -112 -68 -34 22 -24 45 vhcurveto
            64 117 27 48 hhcurveto
            17 11 -6 -17 -49 -20 -40 -2 -21 hvcurveto
            return
          </CharString>
          <CharString index="135">
            -106 callsubr
            354 -36 callgsubr
            return
          </CharString>
          <CharString index="136">
            rmoveto
            -64 -166 -82 -114 -51 -41 11 33 79 169 154 108 47 48 -83 -48 vhcurveto
            return
          </CharString>
          <CharString index="137">
            rmoveto
            -30 -78 -77 -24 -56 102 callgsubr
            111 callsubr
            46 26 -114 -48 19 hvcurveto
            -258 415 -86 callsubr
            22 28 5 8 33 hvcurveto
            -17 -14 -16 -13 -13 -12 rrcurveto
            -47 -43 -71 -84 -15 245 callsubr
            17 76 86 35 35 vhcurveto
            41 41 62 43 41 24 rrcurveto
            -15 -66 -11 -52 206 callgsubr
            338 -107 callgsubr
          </CharString>
          <CharString index="138">
            hhcurveto
            14 callsubr
            return
          </CharString>
          <CharString index="139">
            hlineto
            3 -19 6 -27 1 -61 rrcurveto
            4 -20 -25 3 -28 hhcurveto
            return
          </CharString>
          <CharString index="140">
            159 callgsubr
            156 callsubr
            -61 rrcurveto
            -119 -83 -156 -73 -146 hhcurveto
            142 81 94 138 114 vvcurveto
            85 -62 46 -62 return
          </CharString>
          <CharString index="141">
            rmoveto
            33 25 14 29 60 35 -60 -70 32 vhcurveto
            -1 -7 -8 0 -7 hhcurveto
            -80 -79 27 57 hvcurveto
            return
          </CharString>
          <CharString index="142">
            -3 -45 -82 -33 -24 vvcurveto
            -8 5 -2 10 29 97 52 77 41 -34 24 -32 return
          </CharString>
          <CharString index="143">
            rmoveto
            168 callsubr
            -30 -40 5 9 -37 hvcurveto
            83 37 64 71 62 hhcurveto
            -44 -215 rmoveto
            169 callgsubr
            -120 -126 -187 -142 -95 76 -61 90 69 98 54 25 10 -6 6 -12 hvcurveto
            -28 -48 -38 -84 hhcurveto
            -56 -43 32 50 30 6 32 10 32 hvcurveto
            -11 44 45 -8 47 hhcurveto
            endchar
          </CharString>
          <CharString index="144">
            -13 hlineto
            -158 240 callgsubr
            -34 22 33 31 0 1 30 hvcurveto
            -22 -20 -12 -27 -35 vvcurveto
            -119 114 -106 265 callgsubr
            35 -141 24 141 vvcurveto
            66 67 23 103 return
          </CharString>
          <CharString index="145">
            39 -17 34 6 12 -18 -30 -51 -112 15 2 -28 1 -17 18 -1 33 3 108 8 46 43 -1 37 -1 23 -31 21 -34 7 return
          </CharString>
          <CharString index="146">
            6 callgsubr
            -273 329 callgsubr
            72 callsubr
          </CharString>
          <CharString index="147">
            -82 callsubr
            -4 2 -3 2 -4 1 rrcurveto
            16 -37 -59 8 -57 hhcurveto
            return
          </CharString>
          <CharString index="148">
            70 callgsubr
            -65 -18 -87 -75 vvcurveto
            -91 return
          </CharString>
          <CharString index="149">
            47 callgsubr
            -10 486 -104 callsubr
            561 hlineto
            -23 -43 -23 -78 -3 -42 rrcurveto
            -7 hlineto
            73 callgsubr
            44 -16 29 -28 15 hvcurveto
            8 21 7 30 9 24 11 31 19 44 6 22 rrcurveto
            105 -107 callgsubr
          </CharString>
          <CharString index="150">
            rmoveto
            -13 -13 -6 -17 9 -11 75 callgsubr
          </CharString>
          <CharString index="151">
            65 -32 42 -65 -82 -50 -85 -78 -50 21 -44 40 -21 vhcurveto
            -62 -98 -137 -39 -100 hhcurveto
            -10 -5 4 9 67 104 97 63 43 hvcurveto
            14 10 12 9 12 vvcurveto
            7 -6 3 -11 vhcurveto
            -29 -30 -10 -41 hhcurveto
            -43 -21 12 21 55 135 142 73 hvcurveto
            33 5 -39 17 hhcurveto
            7 7 8 8 14 -8 19 -14 14 hvcurveto
            return
          </CharString>
          <CharString index="152">
            262 callsubr
            -321 214 callgsubr
            96 hlineto
            -1 2 2 0 3 hhcurveto
            4 4 0 1 3 hvcurveto
            202 67 callsubr
            -131 hlineto
            3 38 2 38 40 vvcurveto
            2 vlineto
            51 7 49 29 62 53 callsubr
            -49 -41 -15 -25 -29 hvcurveto
            56 -8 -19 45 -44 hhcurveto
            -94 -99 -221 -86 -22 hvcurveto
            return
          </CharString>
          <CharString index="153">
            -43 callsubr
            -2 callsubr
            -65 -5 -96 -11 -88 rrcurveto
            -111 -10 -94 -28 -59 108 callgsubr
            67 37 97 114 20 vhcurveto
            2 24 24 0 24 return
          </CharString>
          <CharString index="154">
            -38 rrcurveto
            3 14 2 15 16 -101 callgsubr
            1 hlineto
            61 callsubr
            return
          </CharString>
          <CharString index="155">
            17 callsubr
            -49 40 -31 69 -8 vhcurveto
            -46 -58 -61 -96 -20 174 callsubr
            117 hvcurveto
            127 21 151 88 81 vvcurveto
            9 callgsubr
          </CharString>
          <CharString index="156">
            rmoveto
            -317 -32 0 -16 -16 23 -30 16 40 93 7 2 66 hvcurveto
            -12 -148 -119 -369 -68 vvcurveto
            -22 22 -21 13 10 35 145 123 34 vhcurveto
            47 171 29 132 37 vvcurveto
            7 -1 6 -2 7 vhcurveto
            53 -2 48 -5 64 -2 rrcurveto
            51 -2 17 -1 12 vvcurveto
            23 -93 30 -85 vhcurveto
            endchar
          </CharString>
          <CharString index="157">
            rrcurveto
            307 -107 callgsubr
          </CharString>
          <CharString index="158">
            -39 -83 callgsubr
            -58 -32 24 hvcurveto
            return
          </CharString>
          <CharString index="159">
            rmoveto
            -90 callgsubr
            11 -4 13 -7 13 vhcurveto
            -1 10 11 0 11 hhcurveto
            50 43 7 16 44 hvcurveto
            -79 -219 -220 -98 -28 vvcurveto
            -9 5 -4 10 92 250 241 162 16 -5 8 -7 vhcurveto
            -31 -46 -39 -118 -37 98 callgsubr
            -199 183 callgsubr
            571 -107 callgsubr
          </CharString>
          <CharString index="160">
            79 34 -58 17 hhcurveto
            6 3 4 11 33 -64 58 -80 return
          </CharString>
          <CharString index="161">
            636 rmoveto
            -4 24 -11 41 -16 44 rrcurveto
            237 callgsubr
            54 -8 46 -25 -14 -10 -7 -16 hvcurveto
            125 callgsubr
            return
          </CharString>
          <CharString index="162">
            rmoveto
            -66 -19 -55 -36 -50 -81 93 59 32 81 21 95 18 vhcurveto
            3 -20 7 -27 -55 vvcurveto
            -202 371 -104 callsubr
            473 hlineto
            -6 -40 -7 -41 -7 -42 -43 -7 -76 -19 -84 -17 rrcurveto
            -133 -27 -155 -18 -76 vvcurveto
            -76 112 -130 74 76 29 87 81 33 -2 49 -11 30 vhcurveto
            75 13 78 12 51 15 -6 -31 -5 -32 -6 -33 rrcurveto
            -22 -130 -29 12 callsubr
            14 39 183 133 26 vhcurveto
            18 93 24 132 3 35 rrcurveto
            123 -107 callgsubr
          </CharString>
          <CharString index="163">
            rrcurveto
            -45 -35 -57 -57 -53 -19 callgsubr
            return
          </CharString>
          <CharString index="164">
            113 -226 -3 39 vvcurveto
            30 112 26 39 vhcurveto
            33 24 -17 17 hhcurveto
            18 9 11 25 75 9 27 6 21 hvcurveto
            return
          </CharString>
          <CharString index="165">
            67 -7 -24 86 -79 hhcurveto
            -125 -150 -240 -130 -57 52 -58 63 39 54 28 42 51 hvcurveto
            -147 -46 -14 -131 -74 -100 -11 92 -33 hhcurveto
            -9 -9 -20 -11 -47 62 -63 103 143 -13 230 212 103 hvcurveto
            14 24 12 24 7 24 4 18 -4 21 -9 11 return
          </CharString>
          <CharString index="166">
            183 133 31 vhcurveto
            return
          </CharString>
          <CharString index="167">
            -52 28 -42 79 23 22 3 4 return
          </CharString>
          <CharString index="168">
            1 hlineto
            28 57 37 31 68 hvcurveto
            return
          </CharString>
          <CharString index="169">
            -70 7 -58 24 35 vvcurveto
            77 202 166 54 44 19 -39 -12 20 vhcurveto
            1 -1 1 0 -1 vvcurveto
            -1 4 3 -1 3 hhcurveto
            10 8 14 11 1 hvcurveto
            1 4 0 4 5 vvcurveto
            122 16 26 2 41 156 callgsubr
          </CharString>
          <CharString index="170">
            -59 callsubr
            124 -99 callgsubr
            118 -107 callsubr
            return
          </CharString>
          <CharString index="171">
            -104 callsubr
            538 hlineto
            -56 callgsubr
            return
          </CharString>
          <CharString index="172">
            -225 -10 callsubr
            return
          </CharString>
          <CharString index="173">
            132 callgsubr
            -25 22 -22 hvcurveto
            -75 -23 -52 -63 -77 vvcurveto
            -108 85 -62 132 42 28 11 17 11 -13 5 -36 -116 -69 43 83 72 62 48 80 82 26 -38 -71 -20 3 -19 13 25 5 39 28 68 -40 66 -116 vhcurveto
            -13 callgsubr
            134 -107 callgsubr
          </CharString>
          <CharString index="174">
            hlineto
            -29 -229 -85 -283 -43 vvcurveto
            -10 12 -11 9 25 39 162 140 30 vhcurveto
            24 111 17 84 10 79 198 callgsubr
            return
          </CharString>
          <CharString index="175">
            hhcurveto
            -13 -5 22 35 79 27 return
          </CharString>
          <CharString index="176">
            -24 callsubr
            -54 -3 -70 -8 -66 return
          </CharString>
          <CharString index="177">
            483 315 rmoveto
            38 -206 169 -101 167 callgsubr
            vhcurveto
            34 -24 35 -29 33 -29 -45 -20 -85 -52 -65 -39 rrcurveto
            -78 -47 -119 296 callsubr
            100 53 57 93 vhcurveto
            78 48 136 72 28 vvcurveto
            -304 34 rmoveto
            -30 -14 42 23 29 21 27 29 28 39 -17 -26 41 hvcurveto
            -35 -27 -49 -43 -38 hhcurveto
            352 239 214 callsubr
            -463 -43 callsubr
            return
          </CharString>
          <CharString index="178">
            -19 -38 -17 -48 -13 -43 rrcurveto
            48 -23 -32 33 -43 hhcurveto
            -97 -57 -146 -59 -53 23 -33 49 47 57 21 37 45 hvcurveto
            -2 -13 -1 -15 -13 vvcurveto
            -23 4 -19 11 25 2 34 107 21 vhcurveto
            28 145 64 93 26 vvcurveto
            11 -5 9 -14 vhcurveto
            -24 -6 -16 -104 75 callsubr
            317 callgsubr
          </CharString>
          <CharString index="179">
            336 112 callsubr
            -95 -122 -184 -76 151 callgsubr
            hvcurveto
            -72 callgsubr
            307 -107 callsubr
            endchar
          </CharString>
          <CharString index="180">
            30 -17 callsubr
            return
          </CharString>
          <CharString index="181">
            108 callgsubr
            74 37 103 116 19 vhcurveto
            return
          </CharString>
          <CharString index="182">
            hhcurveto
            -70 -32 15 44 66 101 111 64 48 14 -44 -4 24 hvcurveto
            2 hlineto
            1 0 1 hlineto
            15 1 4 10 16 12 -2 16 18 vvcurveto
            81 22 43 7 30 vhcurveto
            return
          </CharString>
          <CharString index="183">
            rmoveto
            -71 -48 31 51 239 callgsubr
            hvcurveto
            return
          </CharString>
          <CharString index="184">
            276 callgsubr
            endchar
          </CharString>
          <CharString index="185">
            -98 -158 -174 -123 199 callsubr
            16 hvcurveto
            241 callsubr
            return
          </CharString>
          <CharString index="186">
            rmoveto
            184 callgsubr
            42 28 23 34 38 36 -35 -50 -34 -8 -31 -13 -28 vhcurveto
            -19 4 -24 6 -24 14 302 callgsubr
            -11 -57 -13 -60 -13 -64 rrcurveto
            -110 -86 -148 -65 -136 hhcurveto
            128 80 94 122 121 vvcurveto
            85 -62 46 -62 -59 -50 -41 -68 -87 73 -59 71 -4 vhcurveto
            -67 -102 -127 -55 -26 vvcurveto
            -28 40 -33 29 118 130 49 83 94 vhcurveto
            return
          </CharString>
          <CharString index="187">
            -78 -25 -75 -60 -75 vvcurveto
            -56 51 -32 60 57 55 21 30 43 vhcurveto
            -40 3 10 -23 16 137 callsubr
            158 -107 callsubr
            endchar
          </CharString>
          <CharString index="188">
            68 callsubr
            138 30 73 hvcurveto
            return
          </CharString>
          <CharString index="189">
            102 callsubr
            -38 -47 -22 -63 -7 hvcurveto
            51 19 25 39 39 hhcurveto
            return
          </CharString>
          <CharString index="190">
            rmoveto
            3 25 1 22 20 vvcurveto
            124 -65 116 -116 -202 -172 -268 -67 -10 10 -8 12 14 8 4 16 6 vhcurveto
            127 52 158 153 107 hhcurveto
            85 51 -85 -122 -14 -1 -16 -1 -17 hvcurveto
            -320 hlineto
            194 callsubr
            endchar
          </CharString>
          <CharString index="191">
            rmoveto
            10 callgsubr
            return
          </CharString>
          <CharString index="192">
            -18 -105 callgsubr
            return
          </CharString>
          <CharString index="193">
            -43 callsubr
            132 hlineto
            -10 -91 -95 -274 -106 vvcurveto
            -71 33 -39 99 105 112 28 39 14 -9 6 -15 vhcurveto
            -39 -33 -34 -123 hhcurveto
            -54 -15 16 47 100 93 275 8 90 hvcurveto
            189 hlineto
            16 -22 26 -33 -66 vvcurveto
            -79 -52 -61 -86 -22 -6 -8 -13 -11 13 -12 29 96 84 70 112 50 -13 43 -19 30 vhcurveto
            126 -107 callgsubr
          </CharString>
          <CharString index="194">
            433 rmoveto
            -163 -34 -146 -113 -100 hhcurveto
            -34 -11 27 39 92 80 123 64 hvcurveto
            38 3 -47 24 hhcurveto
            10 5 7 16 33 -32 42 -38 -36 -33 -15 -25 -30 hvcurveto
            -64 -43 -89 -55 -90 -47 5 24 rcurveline
            -20 callgsubr
            485 339 callsubr
            rrcurveto
            -824 -196 rmoveto
            111 callsubr
            44 25 -100 -53 18 vhcurveto
            -38 -80 -76 -27 -52 102 callgsubr
            hvcurveto
            return
          </CharString>
          <CharString index="195">
            176 callsubr
            52 hmoveto
            3 38 2 38 40 vvcurveto
            88 -11 103 -66 -94 -99 -221 -86 -22 vhcurveto
            -84 -43 callsubr
            314 67 callsubr
            endchar
          </CharString>
          <CharString index="196">
            -27 vvcurveto
            60 callsubr
            return
          </CharString>
          <CharString index="197">
            -62 callsubr
            -103 -94 -56 -116 -12 hvcurveto
            24 -19 -20 18 -28 hhcurveto
            return
          </CharString>
          <CharString index="198">
            79 8 75 5 48 7 -18 -87 -21 -86 55 callgsubr
            77 callsubr
          </CharString>
          <CharString index="199">
            hlineto
            54 callgsubr
            return
          </CharString>
          <CharString index="200">
            588 rmoveto
            7 5 0 1 6 hvcurveto
            -1 5 5 0 7 hhcurveto
            471 hlineto
            107 callgsubr
            90 65 vvcurveto
            33 -39 45 -40 -77 -72 -19 -27 -117 vhcurveto
            -51 -12 -66 -12 -50 -14 34 43 26 53 2 73 rrcurveto
            63 -357 rmoveto
            -44 -90 -50 -106 -57 -36 15 44 69 58 44 57 56 vhcurveto
            48 -28 126 -24 -82 vvcurveto
            return
          </CharString>
          <CharString index="201">
            vvcurveto
            -35 28 -19 43 189 324 144 195 65 callgsubr
          </CharString>
          <CharString index="202">
            hhcurveto
            95 99 69 75 22 hvcurveto
            9 hlineto
            75 hlineto
            -100 callsubr
            return
          </CharString>
          <CharString index="203">
            hhcurveto
            -34 -11 27 39 99 85 176 76 hvcurveto
            41 18 -82 28 hhcurveto
            10 5 7 16 33 -45 77 -47 return
          </CharString>
          <CharString index="204">
            -72 212 callsubr
            27 113 113 25 vhcurveto
            215 return
          </CharString>
          <CharString index="205">
            130 rmoveto
            -33 -40 58 41 37 91 10 104 11 hvcurveto
            -90 -33 -47 -67 -42 -46 callgsubr
            273 176 84 callsubr
            return
          </CharString>
          <CharString index="206">
            vvcurveto
            19 callgsubr
            vhcurveto
            124 callsubr
          </CharString>
          <CharString index="207">
            -13 -62 -14 -55 -8 -38 rrcurveto
            26 -21 -36 26 -37 hhcurveto
            -47 -57 -38 -34 -37 hvcurveto
            -64 -58 -61 -73 -19 vvcurveto
            -8 6 -6 11 21 58 76 55 62 vhcurveto
            32 36 42 25 32 hhcurveto
            29 33 -24 206 callsubr
          </CharString>
          <CharString index="208">
            rmoveto
            34 117 83 97 51 -40 30 -39 -20 -22 -17 -21 hvcurveto
            -34 57 18 -52 -79 -104 -39 -26 vvcurveto
            -8 5 -3 12 vhcurveto
            endchar
          </CharString>
          <CharString index="209">
            rmoveto
            16 11 -8 -15 return
          </CharString>
          <CharString index="210">
            rmoveto
            -86 callgsubr
            62 32 50 hhcurveto
            36 return
          </CharString>
          <CharString index="211">
            277 -104 callsubr
            return
          </CharString>
          <CharString index="212">
            rrcurveto
            -78 -47 -111 -67 -17 vvcurveto
            -10 9 -7 10 return
          </CharString>
          <CharString index="213">
            rrcurveto
            -54 39 57 -77 23 hhcurveto
            10 callsubr
            -59 75 -39 53 hvcurveto
            -14 19 -19 31 -20 31 rrcurveto
            -4 14 15 -2 15 hhcurveto
            161 112 129 123 90 -59 75 -111 return
          </CharString>
          <CharString index="214">
            46 43 25 23 12 -6 7 -14 return
          </CharString>
          <CharString index="215">
            -5 -1 rlineto
            -55 -8 -36 -35 -16 vvcurveto
            -12 14 -14 13 vhcurveto
            8 callgsubr
            return
          </CharString>
          <CharString index="216">
            718 -54 callgsubr
            return
          </CharString>
          <CharString index="217">
            -25 -38 -41 -21 -66 hhcurveto
            -45 -12 59 66 72 19 91 27 66 hvcurveto
            return
          </CharString>
          <CharString index="218">
            48 93 138 63 return
          </CharString>
          <CharString index="219">
            hlineto
            79 callgsubr
            return
          </CharString>
          <CharString index="220">
            rmoveto
            -29 -17 -56 -63 -73 0 86 -25 hhcurveto
            -15 -17 -16 -26 -42 65 -53 54 64 75 54 34 13 -5 6 -14 hvcurveto
            endchar
          </CharString>
          <CharString index="221">
            hlineto
            152 callgsubr
            return
          </CharString>
          <CharString index="222">
            123 callgsubr
            23 11 5 10 return
          </CharString>
          <CharString index="223">
            rmoveto
            133 callgsubr
            -10 -11 -15 -13 -17 36 -40 15 9 5 5 12 vhcurveto
            return
          </CharString>
          <CharString index="224">
            rmoveto
            20 28 35 29 39 hvcurveto
            43 32 48 15 30 vvcurveto
            12 -9 8 -16 -18 -53 -28 -78 -79 vhcurveto
            66 -86 -12 74 -32 hhcurveto
            -12 -11 -11 -16 -55 131 -113 19 hvcurveto
            return
          </CharString>
          <CharString index="225">
            hlineto
            -100 callsubr
            -50 -18 -41 -25 -35 hvcurveto
            -10 -34 -63 -41 -115 196 callgsubr
            return
          </CharString>
          <CharString index="226">
            -1 callsubr
            2 2 2 2 2 return
          </CharString>
          <CharString index="227">
            0 -59 -80 callsubr
            return
          </CharString>
          <CharString index="228" raw="1">
            52f70e1d 0b  
          </CharString>
          <CharString index="229">
            -18 -18 -13 -19 -28 42 18 4 -40 return
          </CharString>
          <CharString index="230">
            124 -107 callgsubr
          </CharString>
          <CharString index="231">
            35 -141 26 152 vvcurveto
            66 70 27 100 82 53 -14 -10 33 vhcurveto
            -15 -42 -9 -43 -39 vvcurveto
            -98 callgsubr
          </CharString>
          <CharString index="232">
            vvcurveto
            33 -65 50 -21 -8 -2 -5 -11 -64 133 -186 73 -62 vhcurveto
            return
          </CharString>
          <CharString index="233">
            -65 47 callsubr
            return
          </CharString>
          <CharString index="234">
            -36 callgsubr
            -122 -90 -176 -126 -3 callgsubr
            hvcurveto
            -75 callsubr
            117 -107 callgsubr
          </CharString>
          <CharString index="235">
            rmoveto
            75 46 -50 -66 -10 -1 -11 -2 -10 hvcurveto
            -9 -29 -35 -6 -35 hhcurveto
            86 callgsubr
            hvcurveto
            return
          </CharString>
          <CharString index="236">
            476 588 214 callsubr
            -387 -43 callsubr
            return
          </CharString>
          <CharString index="237">
            -271 114 -34 callgsubr
            15 hlineto
            -15 -83 -21 -52 callgsubr
            return
          </CharString>
          <CharString index="238">
            80 -38 callgsubr
            return
          </CharString>
          <CharString index="239">
            57 17 7 9 10 return
          </CharString>
          <CharString index="240">
            rmoveto
            219 callgsubr
            -105 78 16 -146 28 hhcurveto
            11 8 6 10 19 -13 49 -19 53 hvcurveto
            237 callgsubr
            54 -8 46 -25 hvcurveto
            return
          </CharString>
          <CharString index="241">
            rmoveto
            -29 1 -25 20 31 vvcurveto
            100 131 215 90 38 9 -51 -54 9 vhcurveto
            3 -17 4 -13 5 -8 -52 -135 -110 -92 -73 3 rrcurveto
            273 return
          </CharString>
          <CharString index="242">
            -5 rrcurveto
            74 callgsubr
            return
          </CharString>
          <CharString index="243">
            -20 -19 callsubr
          </CharString>
          <CharString index="244">
            hhcurveto
            20 -13 60 93 16 hvcurveto
            -73 callsubr
            return
          </CharString>
          <CharString index="245">
            199 97 callgsubr
            return
          </CharString>
          <CharString index="246">
            -99 -91 -97 -121 -26 -17 22 12 -20 hvcurveto
            return
          </CharString>
          <CharString index="247">
            rmoveto
            226 callsubr
            123 9 29 4 1 16 rrcurveto
            12 -9 6 -47 1 vhcurveto
            endchar
          </CharString>
          <CharString index="248">
            476 -104 callsubr
            return
          </CharString>
          <CharString index="249">
            -21 -91 callsubr
            return
          </CharString>
          <CharString index="250">
            -106 callsubr
            197 hlineto
            -92 -46 -95 -111 -64 vvcurveto
            -50 53 -25 60 vhcurveto
            235 callsubr
            return
          </CharString>
          <CharString index="251">
            hhcurveto
            -2 0 hlineto
            -16 -17 1 -19 hhcurveto
            -169 -281 -23 -173 -119 120 -75 338 callsubr
            -147 26 108 vvcurveto
            return
          </CharString>
          <CharString index="252">
            -271 114 636 rmoveto
            -49 -33 0 -21 -22 51 -5 85 hvcurveto
            15 hlineto
            -16 -83 -20 202 callgsubr
            return
          </CharString>
          <CharString index="253">
            216 callsubr
            18 62 280 36 9 -66 callsubr
            return
          </CharString>
          <CharString index="254">
            -269 rmoveto
            -45 -15 -50 -40 -50 -71 64 52 41 77 14 91 4 vhcurveto
            3 -15 5 -10 -55 vvcurveto
            return
          </CharString>
          <CharString index="255">
            hlineto
            -10 -56 -13 -59 -13 -61 rrcurveto
            -39 -41 -62 -27 -63 -40 -30 22 -28 hhcurveto
            -12 -8 -6 -12 hvcurveto
            return
          </CharString>
          <CharString index="256">
            rmoveto
            192 callsubr
            37 40 -30 -55 return
          </CharString>
          <CharString index="257">
            vvcurveto
            -27 38 -33 23 112 146 58 105 92 vhcurveto
            -3 -14 return
          </CharString>
          <CharString index="258">
            51 27 73 37 57 vhcurveto
            return
          </CharString>
          <CharString index="259">
            1 hlineto
            1 hlineto
            return
          </CharString>
          <CharString index="260">
            512 rmoveto
            -3 -15 -14 -58 -33 -60 -42 -48 rlinecurve
            -45 67 -66 112 -39 78 rrcurveto
            257 hlineto
            -5 -25 -5 -25 -5 -26 rrcurveto
            -285 -153 rmoveto
            58 7 55 12 50 vhcurveto
            39 -73 62 -90 45 -56 rrcurveto
            -36 -38 -43 -23 -39 hhcurveto
            -25 -20 41 74 hvcurveto
            return
          </CharString>
          <CharString index="261">
            rmoveto
            12 9 1 29 -16 17 -11 13 -12 3 -14 -13 -110 -115 rcurveline
            277 callgsubr
            rrcurveto
            return
          </CharString>
          <CharString index="262">
            27 -139 36 122 vvcurveto
            73 60 19 100 36 41 -4 -8 39 vhcurveto
            return
          </CharString>
          <CharString index="263">
            -10 -55 -13 -58 -13 return
          </CharString>
          <CharString index="264">
            -33 -19 18 41 77 38 92 89 31 vhcurveto
            11 4 11 2 6 vvcurveto
            10 -32 19 -17 -69 -87 -118 -119 -63 30 -52 70 return
          </CharString>
          <CharString index="265">
            rmoveto
            -24 -9 -21 -27 -33 -40 22 25 26 37 20 53 15 vhcurveto
            10 -13 9 -27 -23 vvcurveto
            return
          </CharString>
          <CharString index="266">
            514 -104 callsubr
            return
          </CharString>
          <CharString index="267">
            673 -104 callsubr
            return
          </CharString>
          <CharString index="268">
            rcurveline
            -106 callgsubr
            return
          </CharString>
          <CharString index="269">
            -47 -80 120 callsubr
            return
          </CharString>
          <CharString index="270">
            292 325 277 rmoveto
            -64 50 -79 41 54 vvcurveto
            14 16 5 24 vhcurveto
            98 58 -56 21 hhcurveto
            1 0 hlineto
            172 callsubr
            342 hlineto
            -13 -67 -15 -72 -16 -75 rrcurveto
            -56 -127 -202 -41 -63 hhcurveto
            return
          </CharString>
          <CharString index="271">
            -17 -18 -13 -19 -28 41 18 5 -40 hvcurveto
            -4 -45 -82 -33 -24 vvcurveto
            -8 6 -2 10 return
          </CharString>
          <CharString index="272">
            528 110 47 callgsubr
            return
          </CharString>
          <CharString index="273">
            rmoveto
            -52 -243 -195 -39 326 callgsubr
            53 60 67 88 hvcurveto
            67 51 67 38 18 vvcurveto
            9 -5 4 -10 vhcurveto
            return
          </CharString>
          <CharString index="274">
            rmoveto
            -1 -9 -1 -12 -13 vvcurveto
            -1 -54 -3 -70 -8 -66 return
          </CharString>
          <CharString index="275">
            40 43 -56 -43 -39 -48 -30 -91 return
          </CharString>
          <CharString index="276">
            28 callsubr
            -76 -63 -68 -81 -37 hvcurveto
            -44 -1 -83 -2 -75 -8 rrcurveto
            321 callgsubr
            return
          </CharString>
          <CharString index="277">
            rmoveto
            -42 -39 -41 -49 -7 hvcurveto
            -49 -6 30 -41 43 hhcurveto
            42 39 41 49 7 hvcurveto
            49 6 -30 41 -43 hhcurveto
            -6 -45 rmoveto
            332 callsubr
            -24 -2 -17 -21 -18 hhcurveto
            -18 -12 21 24 3 hvcurveto
            335 callsubr
            return
          </CharString>
          <CharString index="278">
            rmoveto
            239 callsubr
            -12 -11 -14 -18 vhcurveto
            endchar
          </CharString>
          <CharString index="279">
            28 6 71 86 17 -3 16 -6 13 hvcurveto
            return
          </CharString>
          <CharString index="280">
            -65 -54 -66 -85 -65 94 callsubr
          </CharString>
          <CharString index="281">
            141 callgsubr
            -76 82 -2 return
          </CharString>
          <CharString index="282">
            -1 rrcurveto
            47 21 -22 -53 139 callsubr
            4 -7 -7 3 -6 280 callsubr
            return
          </CharString>
          <CharString index="283">
            rmoveto
            108 35 83 146 37 hhcurveto
            26 5 -95 -78 -25 -1 -28 -3 -28 hvcurveto
            return
          </CharString>
          <CharString index="284">
            -30 hhcurveto
            -12 -8 -10 -12 hvcurveto
            return
          </CharString>
          <CharString index="285">
            94 callgsubr
            113 37 vhcurveto
            return
          </CharString>
          <CharString index="286">
            -246 183 callsubr
            -109 -50 18 vhcurveto
            -34 -77 -77 -25 -56 102 callgsubr
            hvcurveto
            return
          </CharString>
          <CharString index="287">
            788 rmoveto
            32 52 63 36 70 hvcurveto
            -45 35 34 -64 33 hhcurveto
            14 9 6 11 18 -32 38 -35 42 hvcurveto
            31 -26 -9 15 -26 hhcurveto
            -19 -42 -29 -27 -47 hvcurveto
            -49 -28 -19 -18 -26 vvcurveto
            -16 14 -7 11 vhcurveto
            return
          </CharString>
          <CharString index="288">
            136 -107 callsubr
            return
          </CharString>
          <CharString index="289">
            176 -104 callsubr
            return
          </CharString>
          <CharString index="290">
            rmoveto
            111 callsubr
            45 26 return
          </CharString>
          <CharString index="291">
            301 callgsubr
            9 3 5 5 6 vvcurveto
            20 -25 10 -49 vhcurveto
            -146 240 callgsubr
            -33 22 hvcurveto
            63 56 -1 55 hhcurveto
            -64 -37 -51 -59 -59 vvcurveto
            -60 38 -36 77 return
          </CharString>
          <CharString index="292">
            -38 -28 -79 callsubr
            return
          </CharString>
          <CharString index="293">
            82 93 54 -41 30 -40 -22 -21 -15 -21 hvcurveto
            -35 59 18 -55 -73 -101 -39 -27 vvcurveto
            -9 5 -3 13 vhcurveto
            return
          </CharString>
          <CharString index="294">
            hlineto
            -17 -79 -20 -106 -16 -77 rrcurveto
            54 -32 -36 60 -59 hhcurveto
            return
          </CharString>
          <CharString index="295">
            -18 2 -53 0 -60 -3 rrcurveto
            10 61 6 44 15 vvcurveto
            33 -24 34 -17 -15 -3 -9 -21 -32 -8 -58 -11 -71 vhcurveto
            -88 -6 -84 -11 -1 -15 -1 -12 19 -21 14 -1 27 -2 33 7 71 5 return
          </CharString>
          <CharString index="296">
            -20 -28 callgsubr
            return
          </CharString>
          <CharString index="297">
            132 callgsubr
            -24 21 -22 hvcurveto
            return
          </CharString>
          <CharString index="298">
            rmoveto
            -36 -44 42 32 37 75 6 99 10 hvcurveto
            -72 -25 -35 -55 -34 hhcurveto
            return
          </CharString>
          <CharString index="299">
            184 callgsubr
            44 28 21 31 return
          </CharString>
          <CharString index="300">
            vvcurveto
            197 callgsubr
            return
          </CharString>
          <CharString index="301">
            -106 callsubr
            314 hlineto
            -27 -199 -88 -312 -44 vvcurveto
            -10 13 -11 12 20 92 347 229 29 vhcurveto
            241 callgsubr
            return
          </CharString>
          <CharString index="302">
            233 callsubr
            96 -107 callgsubr
          </CharString>
          <CharString index="303">
            136 callgsubr
            80 hlineto
            -10 -9 -5 -8 -6 vvcurveto
            -13 22 -16 11 13 4 12 11 14 vhcurveto
            9 12 16 9 25 hhcurveto
            47 26 -26 -62 -99 return
          </CharString>
          <CharString index="304">
            -290 rmoveto
            59 32 58 54 35 12 -30 -35 -52 -32 -46 -49 -40 vhcurveto
            -24 7 -28 19 60 vvcurveto
            return
          </CharString>
          <CharString index="305">
            hlineto
            -4 -21 -4 -27 -7 -22 -7 -22 -6 -16 -5 -12 return
          </CharString>
          <CharString index="306">
            -41 26 -26 47 13 15 1 3 return
          </CharString>
          <CharString index="307">
            67 74 47 80 59 return
          </CharString>
          <CharString index="308">
            vvcurveto
            -66 15 -49 43 return
          </CharString>
          <CharString index="309">
            98 callgsubr
            0 vlineto
            -1 vlineto
            -26 50 -15 -27 vvcurveto
            -49 -106 -63 -94 -33 -19 18 41 77 38 92 89 31 vhcurveto
            11 4 11 2 6 vvcurveto
            10 -32 19 -17 return
          </CharString>
          <CharString index="310">
            -78 118 -24 115 57 callgsubr
            return
          </CharString>
          <CharString index="311">
            -15 vvcurveto
            -10 12 -11 8 return
          </CharString>
          <CharString index="312">
            95 183 rmoveto
            -50 callgsubr
            -6 7 callgsubr
            return
          </CharString>
          <CharString index="313">
            174 callgsubr
            117 -107 callgsubr
          </CharString>
          <CharString index="314">
            rmoveto
            -60 -137 -86 -113 -54 -37 12 28 74 154 123 90 51 46 -50 -41 vhcurveto
            return
          </CharString>
          <CharString index="315">
            -11 -17 -59 75 -64 112 105 68 60 70 hvcurveto
            125 -255 -10 39 vvcurveto
            33 118 41 39 vhcurveto
            33 24 -17 17 hhcurveto
            18 9 11 25 79 10 28 5 23 hvcurveto
            return
          </CharString>
          <CharString index="316">
            -27 callsubr
            -27 9 -16 hhcurveto
            return
          </CharString>
          <CharString index="317">
            -12 -11 -14 -18 297 callsubr
            return
          </CharString>
          <CharString index="318">
            151 50 88 38 14 -18 15 -12 return
          </CharString>
          <CharString index="319">
            204 callsubr
            26 return
          </CharString>
          <CharString index="320">
            -87 711 rmoveto
            -12 13 -5 15 16 vvcurveto
            60 51 34 68 vhcurveto
            53 callsubr
            -96 -65 -56 -78 -25 9 -23 22 -25 hvcurveto
            return
          </CharString>
          <CharString index="321">
            rmoveto
            294 callgsubr
            -37 hvcurveto
            return
          </CharString>
          <CharString index="322">
            140 callgsubr
            -345 263 callgsubr
            return
          </CharString>
          <CharString index="323">
            -272 -84 callgsubr
            return
          </CharString>
          <CharString index="324">
            hhcurveto
            53 109 21 32 7 -8 1 -13 hvcurveto
            -26 -43 -15 -60 hhcurveto
            -58 -36 7 16 return
          </CharString>
          <CharString index="325">
            68 72 227 callgsubr
            return
          </CharString>
          <CharString index="326">
            61 -23 45 -22 44 -23 -48 -25 -72 -46 -63 -38 105 callsubr
            17 86 53 57 93 vhcurveto
            100 62 99 57 29 vvcurveto
            return
          </CharString>
          <CharString index="327">
            196 634 -196 hlineto
            236 -185 rmoveto
            196 185 -196 hlineto
            return
          </CharString>
          <CharString index="328">
            vvcurveto
            -20 5 -7 7 18 21 90 94 18 vhcurveto
            return
          </CharString>
          <CharString index="329">
            hlineto
            236 callgsubr
            return
          </CharString>
          <CharString index="330">
            hlineto
            -1 -6 344 callgsubr
            return
          </CharString>
          <CharString index="331">
            hlineto
            90 callsubr
            return
          </CharString>
          <CharString index="332">
            152 callsubr
            19 34 184 133 31 hvcurveto
            -32 callgsubr
          </CharString>
          <CharString index="333">
            -148 3 -135 0 -23 vvcurveto
            -14 26 -26 27 270 callsubr
            vhcurveto
            return
          </CharString>
          <CharString index="334">
            hhcurveto
            140 92 111 181 114 vvcurveto
            12 -1 return
          </CharString>
          <CharString index="335">
            448 rmoveto
            14 -19 -22 11 -15 hhcurveto
            return
          </CharString>
          <CharString index="336">
            114 callsubr
            -91 return
          </CharString>
          <CharString index="337">
            53 -84 hhcurveto
            -86 -48 -49 -60 -65 65 -55 85 hvcurveto
            11 41 76 callsubr
            return
          </CharString>
          <CharString index="338">
            521 206 rmoveto
            -60 -276 -218 -41 326 callgsubr
            64 70 65 88 hvcurveto
            69 51 95 55 18 vvcurveto
            9 -5 4 -10 vhcurveto
            return
          </CharString>
          <CharString index="339">
            211 callsubr
            hvcurveto
            -29 41 -114 -179 hhcurveto
            -85 -73 43 58 hvcurveto
            7 3 1 8 vvcurveto
            10 -21 12 -18 return
          </CharString>
          <CharString index="340">
            -1 -4 -97 callgsubr
            return
          </CharString>
          <CharString index="341">
            102 callsubr
            -36 -43 -21 -58 -9 hvcurveto
            50 19 25 39 30 hhcurveto
            return
          </CharString>
          <CharString index="342">
            -65 -54 -66 -85 -65 vvcurveto
            -35 28 -19 43 return
          </CharString>
          <CharString index="343">
            -13 -4 -6 -9 -20 73 -16 110 -41 return
          </CharString>
          <CharString index="344">
            hlineto
            -12 -44 -10 -78 -25 -100 rrcurveto
            76 -29 -45 72 -49 hhcurveto
            -107 -77 -161 -90 -65 26 -35 64 65 65 17 44 57 hvcurveto
            -9 return
          </CharString>
          <CharString index="345">
            485 -104 callsubr
            return
          </CharString>
          <CharString index="346">
            297 callsubr
            273 callgsubr
            return
          </CharString>
          <CharString index="347">
            137 callgsubr
            294 callsubr
            return
          </CharString>
          <CharString index="348">
            -48 -46 -43 -55 -40 vvcurveto
            return
          </CharString>
          <CharString index="349">
            -1 4 4 0 5 hhcurveto
            return
          </CharString>
          <CharString index="350">
            -35 141 262 rmoveto
            72 67 129 59 41 66 -111 -65 5 vhcurveto
            -61 -63 -63 -14 -67 hhcurveto
            -34 -11 11 39 hvcurveto
            return
          </CharString>
          <CharString index="351">
            588 rmoveto
            54 callgsubr
            return
          </CharString>
          <CharString index="352">
            vvcurveto
            -8 4 -5 10 return
          </CharString>
          <CharString index="353">
            -43 callsubr
            endchar
          </CharString>
          <CharString index="354">
            8 8 9 8 return
          </CharString>
          <CharString index="355">
            454 rmoveto
            86 callgsubr
            75 46 -50 -66 -10 -1 -11 -2 -10 hvcurveto
            -9 -29 -35 -6 -35 hhcurveto
            return
          </CharString>
          <CharString index="356">
            hlineto
            -7 -15 -3 -17 -17 204 callgsubr
            -63 -25 55 -31 hhcurveto
            return
          </CharString>
          <CharString index="357">
            95 61 78 14 28 10 -10 8 -21 vhcurveto
            -37 -13 -13 -61 hhcurveto
            return
          </CharString>
          <CharString index="358">
            rmoveto
            172 callsubr
            return
          </CharString>
          <CharString index="359">
            hhcurveto
            -41 -16 79 66 72 19 91 27 66 hvcurveto
            return
          </CharString>
          <CharString index="360">
            12 -23 -28 9 -16 hhcurveto
            return
          </CharString>
          <CharString index="361">
            vvcurveto
            43 -22 29 -49 -66 return
          </CharString>
          <CharString index="362">
            -43 callgsubr
            -72 -61 -62 -76 -38 hvcurveto
            19 -44 -79 13 -77 hhcurveto
            return
          </CharString>
          <CharString index="363">
            636 rmoveto
            -18 38 -139 105 102 125 callsubr
            return
          </CharString>
          <CharString index="364">
            rmoveto
            -14 -75 -14 -78 -14 -90 rrcurveto
            -50 -84 -66 -34 -57 hhcurveto
            -13 -5 22 35 77 27 121 30 72 hvcurveto
            return
          </CharString>
          <CharString index="365">
            14 -19 -22 11 -15 hhcurveto
            -54 -103 -74 -81 -66 hvcurveto
            -6 -6 -6 -6 -7 -6 -49 66 -95 133 -46 86 return
          </CharString>
          <CharString index="366">
            hlineto
            -90 -44 -94 -104 -64 vvcurveto
            -50 61 -22 53 vhcurveto
            8 hlineto
            return
          </CharString>
          <CharString index="367">
            122 -59 callsubr
            return
          </CharString>
          <CharString index="368">
            312 callsubr
            -51 -7 -39 -1 -27 vhcurveto
            1 -4 -5 0 -4 hhcurveto
            -94 -118 -54 -82 return
          </CharString>
          <CharString index="369">
            -272 -1 636 176 callsubr
            return
          </CharString>
          <CharString index="370">
            hlineto
            -24 -54 -30 -88 -93 vvcurveto
            -96 29 -72 71 146 96 163 186 20 -7 19 -10 15 vhcurveto
            return
          </CharString>
          <CharString index="371">
            132 callsubr
            hvcurveto
            return
          </CharString>
          <CharString index="372">
            -100 callsubr
            -68 -34 -53 return
          </CharString>
          <CharString index="373">
            165 -23 callsubr
            return
          </CharString>
          <CharString index="374">
            hlineto
            -11 -26 -7 -27 89 callsubr
            21 vhcurveto
            -5 -30 -6 -30 -9 -30 return
          </CharString>
          <CharString index="375">
            -35 -7 -31 -11 -28 vhcurveto
            292 callgsubr
            return
          </CharString>
          <CharString index="376">
            -19 -86 -14 -78 -20 -91 rrcurveto
            68 -17 -37 73 -57 hhcurveto
            return
          </CharString>
          <CharString index="377">
            24 36 6 6 73 return
          </CharString>
          <CharString index="378">
            hlineto
            -62 callsubr
            -99 return
          </CharString>
          <CharString index="379">
            8 -27 12 -24 hvcurveto
            endchar
          </CharString>
          <CharString index="380">
            57 -53 89 -33 return
          </CharString>
          <CharString index="381">
            439 rmoveto
            -48 callgsubr
            return
          </CharString>
          <CharString index="382">
            313 callgsubr
            77 -59 73 -1 vhcurveto
            return
          </CharString>
          <CharString index="383">
            vvcurveto
            -38 25 -15 43 103 132 56 81 82 vhcurveto
            return
          </CharString>
          <CharString index="384">
            471 -104 callsubr
            return
          </CharString>
          <CharString index="385">
            vvcurveto
            67 -45 36 -58 -92 -67 -62 -82 return
          </CharString>
          <CharString index="386">
            vvcurveto
            -63 66 -56 66 66 25 59 75 return
          </CharString>
          <CharString index="387">
            hhcurveto
            -12 -9 -6 -12 return
          </CharString>
          <CharString index="388">
            9 4 7 12 return
          </CharString>
          <CharString index="389">
            83 callgsubr
            163 hlineto
            return
          </CharString>
          <CharString index="390">
            122 callsubr
            hvcurveto
            -3 -45 -82 -33 -24 vvcurveto
            -8 5 -2 10 return
          </CharString>
          <CharString index="391">
            -43 callgsubr
            -75 -63 -67 -80 -37 hvcurveto
            return
          </CharString>
          <CharString index="392">
            293 callgsubr
            -526 -260 rmoveto
            -20 callgsubr
            return
          </CharString>
          <CharString index="393">
            vlineto
            294 callgsubr
            -37 hvcurveto
            endchar
          </CharString>
          <CharString index="394">
            160 191 callsubr
            return
          </CharString>
          <CharString index="395">
            130 234 callgsubr
            return
          </CharString>
          <CharString index="396">
            -164 -46 -36 -115 vhcurveto
            -1 10 -1 10 9 vvcurveto
            90 29 40 11 19 vhcurveto
            return
          </CharString>
          <CharString index="397">
            226 rmoveto
            31 20 -31 -18 -47 -91 -23 -96 -2 hvcurveto
            57 36 53 64 47 hhcurveto
            return
          </CharString>
          <CharString index="398" raw="1">
            85230a0b   
          </CharString>
          <CharString index="399">
            hhcurveto
            -87 -140 -148 -100 return
          </CharString>
          <CharString index="400">
            17 87 325 callgsubr
            return
          </CharString>
          <CharString index="401">
            113 37 vhcurveto
            return
          </CharString>
          <CharString index="402">
            hmoveto
            -89 callgsubr
            return
          </CharString>
          <CharString index="403">
            -67 -17 vvcurveto
            -10 9 -7 10 11 return
          </CharString>
          <CharString index="404">
            -20 43 -44 15 281 callsubr
            return
          </CharString>
          <CharString index="405">
            17 hhcurveto
            12 4 7 10 return
          </CharString>
          <CharString index="406">
            -5 -33 -8 -32 -9 -31 return
          </CharString>
          <CharString index="407">
            28 22 3 24 -9 9 return
          </CharString>
          <CharString index="408">
            vvcurveto
            52 -69 79 -103 -86 -48 -49 -60 -65 65 -55 85 vhcurveto
            4 hlineto
            -32 return
          </CharString>
          <CharString index="409">
            -19 -343 -481 -122 -177 -7 -36 -3 -10 16 -23 9 -3 return
          </CharString>
          <CharString index="410">
            vvcurveto
            -88 132 -93 45 16 6 7 10 vhcurveto
            27 -145 47 92 vvcurveto
            return
          </CharString>
          <CharString index="411">
            -11 -52 -12 vvcurveto
            -10 12 -11 8 22 23 return
          </CharString>
          <CharString index="412">
            -54 1 -56 12 callgsubr
            return
          </CharString>
          <CharString index="413">
            182 10 52 5 20 -18 35 -10 2 rrcurveto
            63 -407 rmoveto
            return
          </CharString>
          <CharString index="414">
            206 160 146 198 145 -97 111 -160 return
          </CharString>
          <CharString index="415">
            hhcurveto
            1 hlineto
            6 6 -1 6 hhcurveto
            -6 -19 -4 -19 -3 -18 rrcurveto
            return
          </CharString>
          <CharString index="416">
            rmoveto
            63 57 35 53 42 15 -25 -30 return
          </CharString>
          <CharString index="417">
            521 hlineto
            -19 -27 -15 -49 -52 vvcurveto
            return
          </CharString>
          <CharString index="418">
            22 45 vvcurveto
            9 -7 3 -13 return
          </CharString>
          <CharString index="419">
            hlineto
            -1 -6 -1 -7 -9 vvcurveto
            return
          </CharString>
          <CharString index="420">
            280 callgsubr
            rrcurveto
            return
          </CharString>
          <CharString index="421">
            -49 -54 -32 -19 -9 20 -11 13 hvcurveto
            16 10 30 45 hhcurveto
            return
          </CharString>
          <CharString index="422">
            -90 77 -59 73 -1 vhcurveto
            -66 -116 -136 -56 -27 vvcurveto
            return
          </CharString>
          <CharString index="423">
            -103 -141 0 -7 -108 hvcurveto
            -4 -4 0 -1 -5 hvcurveto
            return
          </CharString>
          <CharString index="424">
            8 5 11 11 vvcurveto
            75 -220 106 -69 1 vhcurveto
            endchar
          </CharString>
          <CharString index="425">
            rmoveto
            -7 -5 0 -1 -5 hvcurveto
            1 -6 -5 0 -7 hhcurveto
            return
          </CharString>
          <CharString index="426">
            hhcurveto
            -74 -29 -48 -44 -53 50 -42 67 37 24 10 19 return
          </CharString>
          <CharString index="427">
            441 223 callgsubr
            return
          </CharString>
          <CharString index="428">
            236 callsubr
            hvcurveto
            61 -23 return
          </CharString>
          <CharString index="429">
            -104 callsubr
            197 hlineto
            return
          </CharString>
          <CharString index="430">
            vhcurveto
            19 6 19 3 15 vvcurveto
            9 return
          </CharString>
          <CharString index="431">
            -63 30 -52 70 140 110 return
          </CharString>
          <CharString index="432">
            86 -22 -19 -22 -30 return
          </CharString>
          <CharString index="433">
            302 588 rmoveto
            return
          </CharString>
          <CharString index="434">
            -17 -18 0 -1 -18 hvcurveto
            10 77 2 80 56 vvcurveto
            return
          </CharString>
          <CharString index="435">
            -17 -18 -22 -19 -24 41 -41 27 247 callsubr
            return
          </CharString>
          <CharString index="436">
            11 -24 3 -34 -38 -32 19 33 28 21 19 36 return
          </CharString>
          <CharString index="437">
            -434 -43 callsubr
            return
          </CharString>
          <CharString index="438">
            26 -12 49 -15 -16 -12 -13 -13 -20 26 -53 16 return
          </CharString>
          <CharString index="439">
            18 12 -22 -25 -3 hvcurveto
            return
          </CharString>
          <CharString index="440">
            hhcurveto
            -41 -16 79 66 hvcurveto
            return
          </CharString>
          <CharString index="441">
            vhcurveto
            17 0 -5 7 hhcurveto
            return
          </CharString>
          <CharString index="442">
            25 3 17 22 17 hhcurveto
            return
          </CharString>
          <CharString index="443">
            rrcurveto
            6 19 3 21 22 vvcurveto
            68 -38 77 -75 return
          </CharString>
          <CharString index="444">
            -76 -71 -44 -54 -134 -28 hvcurveto
            -9 -42 -9 return
          </CharString>
          <CharString index="445">
            264 callsubr
            35 return
          </CharString>
          <CharString index="446">
            hlineto
            -9 -49 -11 -52 -12 -54 return
          </CharString>
          <CharString index="447" raw="1">
            f7691d6f 6e0b  
          </CharString>
          <CharString index="448">
            -2 21 30 199 296 return
          </CharString>
          <CharString index="449">
            vvcurveto
            -21 21 -22 13 return
          </CharString>
          <CharString index="450">
            588 rmoveto
            -4 return
          </CharString>
          <CharString index="451">
            vhcurveto
            25 -38 -65 return
          </CharString>
          <CharString index="452">
            25 26 -18 19 -26 -25 -19 -19 -26 vhcurveto
            return
          </CharString>
          <CharString index="453">
            -48 66 -96 133 -46 86 1 3 rcurveline
            return
          </CharString>
          <CharString index="454">
            rmoveto
            30 -31 61 -20 -17 -19 -21 -20 -25 return
          </CharString>
        <CharString name=".notdef">
          221 180 hmoveto
          390 701 -390 hlineto
          54 -50 rmoveto
          282 -601 -282 hlineto
          endchar
        </CharString>
        <CharString name="A">
          67 215 323 -95 callsubr
        </CharString>
        <CharString name="AE">
          265 461 631 rmoveto
          -79 -25 -96 -27 -92 vhcurveto
          -83 -10 -83 -13 -53 -11 59 150 55 124 11 16 13 10 52 5 81 3 rrcurveto
          -68 -325 rmoveto
          -27 -90 -26 -80 -50 vvcurveto
          -38 34 -33 76 121 184 58 29 7 -2 6 -11 vhcurveto
          -57 -97 -52 -154 hhcurveto
          -16 -14 12 23 31 27 88 28 97 hvcurveto
          164 20 81 10 13 vvcurveto
          1 14 -9 10 -26 1 rrcurveto
          -32 -77 -7 -10 -87 hvcurveto
          25 90 22 91 57 vvcurveto
          11 -3 10 -5 8 vhcurveto
          60 1 rlineto
          155 46 11 15 15 -26 7 -239 -127 -106 -8 -48 -23 hvcurveto
          -20 -43 -42 -112 -47 -115 rrcurveto
          -63 -158 -61 -122 -20 vvcurveto
          -22 8 -16 19 20 46 121 137 57 vhcurveto
          21 51 12 15 118 hvcurveto
          endchar
        </CharString>
        <CharString name="Aacute">
          67 537 885 154 callsubr
          -205 -469 -95 callsubr
        </CharString>
        <CharString name="Abreve">
          67 412 788 rmoveto
          64 75 54 34 13 -5 6 -14 hvcurveto
          -29 -17 -56 -63 -73 0 86 -25 hhcurveto
          -15 -17 -16 -26 -42 65 -53 54 hvcurveto
          -197 -465 -95 callsubr
        </CharString>
        <CharString name="Acircumflex">
          67 254 180 callsubr
          -39 -465 -95 callsubr
        </CharString>
        <CharString name="Adieresis">
          67 488 799 rmoveto
          247 callsubr
          -11 callsubr
          hvcurveto
          -136 hmoveto
          247 callsubr
          -11 callsubr
          hvcurveto
          -137 -476 -95 callsubr
        </CharString>
        <CharString name="Agrave">
          67 391 793 rmoveto
          18 callsubr
          230 callgsubr
          rrcurveto
          -64 -557 -95 callsubr
        </CharString>
        <CharString name="Amacron">
          67 267 794 rmoveto
          270 callsubr
          hvcurveto
          28 callgsubr
          vhcurveto
          -52 -471 -95 callsubr
        </CharString>
        <CharString name="Aogonek">
          67 215 323 rmoveto
          38 94 47 110 54 118 20 -83 14 -92 11 -102 -57 -13 -67 -16 -60 -16 rrcurveto
          -69 -20 rmoveto
          -58 -18 -40 -17 -11 vvcurveto
          -21 20 -4 20 6 10 2 3 14 vhcurveto
          -40 -93 -31 -74 -5 vvcurveto
          -26 16 -22 16 13 36 93 146 59 vhcurveto
          29 7 36 11 46 12 106 28 rcurveline
          6 -68 5 -73 4 -77 2 -32 4 -22 7 -12 -7 -2 -6 -3 -6 -4 56 callsubr
          27 21 4 24 -8 9 7 15 5 32 2 51 2 40 -4 79 -9 89 rrcurveto
          54 15 34 13 10 vvcurveto
          23 -29 0 -19 -3 vhcurveto
          -11 -2 -16 -3 -18 -3 rrcurveto
          165 -19 -33 176 -41 hhcurveto
          -35 -12 -23 -37 -18 hvcurveto
          -20 -40 -54 -122 -50 -120 rrcurveto
          endchar
        </CharString>
        <CharString name="Aring">
          67 374 852 171 callgsubr
          -181 -441 -95 callsubr
        </CharString>
        <CharString name="Atilde">
          67 275 783 rmoveto
          39 callgsubr
          229 callgsubr
          hvcurveto
          -60 -460 -95 callsubr
        </CharString>
        <CharString name="B">
          115 147 76 rmoveto
          9 12 9 41 22 80 15 50 15 53 13 51 rrcurveto
          -13 6 20 -13 20 hhcurveto
          107 131 -33 -50 -92 -184 -86 -183 hvcurveto
          204 569 rmoveto
          83 73 -35 -54 -74 -109 -41 -81 -24 hvcurveto
          -34 -12 -33 -8 -14 -12 rrcurveto
          25 99 19 84 24 vvcurveto
          -1 13 -11 21 -13 12 rrcurveto
          3 26 30 4 40 hhcurveto
          -15 -267 rmoveto
          166 31 69 65 85 vvcurveto
          85 -90 59 -193 -77 -62 -16 -15 -13 21 -26 23 vhcurveto
          10 9 1 10 hhcurveto
          -1 -2 0 -4 -3 vvcurveto
          3 -167 -119 -286 -45 vvcurveto
          1 -21 13 -21 12 -8 rrcurveto
          5 -74 -22 43 -17 hhcurveto
          -5 -6 -5 -14 -38 58 -46 100 220 195 111 117 59 -73 76 -171 -7 hvcurveto
          endchar
        </CharString>
        <CharString name="C">
          60 560 633 72 callgsubr
        </CharString>
        <CharString name="CR">
          endchar
        </CharString>
        <CharString name="Cacute">
          100 636 943 -63 callsubr
          -76 -310 72 callgsubr
        </CharString>
        <CharString name="Ccaron">
          100 672 931 -54 callgsubr
          -112 -298 72 callgsubr
        </CharString>
        <CharString name="Ccedilla">
          100 271 25 rmoveto
          109 153 107 32 7 -7 7 -5 hvcurveto
          -32 -77 -89 -139 hhcurveto
          -63 -65 40 77 200 234 235 106 hvcurveto
          35 18 -18 17 hhcurveto
          4 1 1 9 27 -39 42 -34 -186 -220 -307 -188 -84 63 -68 74 -22 hvcurveto
          -18 -51 -31 -42 18 -9 38 callsubr
          313 callsubr
          14 25 10 21 4 16 rrcurveto
          endchar
        </CharString>
        <CharString name="D">
          90 callgsubr
          endchar
        </CharString>
        <CharString name="Dcaron">
          90 callgsubr
          440 174 -54 callgsubr
          endchar
        </CharString>
        <CharString name="Dcroat">
          74 201 279 rmoveto
          91 10 23 3 15 8 -2 10 rlinecurve
          -2 19 -35 12 -49 -6 -26 -3 rcurveline
          36 131 21 73 40 129 callgsubr
          6 53 14 75 15 51 rrcurveto
          -141 58 rmoveto
          -32 -4 -21 -14 2 -13 1 -14 20 -11 34 4 80 9 rcurveline
          -21 -76 -17 -65 -33 158 callgsubr
          -12 -8 -5 -13 -16 21 -21 37 -10 vhcurveto
          -6 0 -8 -9 vvcurveto
          -4 -73 -31 -115 -29 -106 rrcurveto
          endchar
        </CharString>
        <CharString name="E">
          75 268 631 -80 callgsubr
        </CharString>
        <CharString name="Eacute">
          75 589 885 154 callsubr
          -204 -161 -80 callgsubr
        </CharString>
        <CharString name="Ecaron">
          75 432 770 117 callsubr
          -164 -139 -80 callgsubr
        </CharString>
        <CharString name="Ecircumflex">
          75 306 180 callsubr
          -38 -157 -80 callgsubr
        </CharString>
        <CharString name="Edieresis">
          75 540 799 rmoveto
          247 callsubr
          -11 callsubr
          hvcurveto
          -136 hmoveto
          247 callsubr
          -11 callsubr
          hvcurveto
          -136 -168 -80 callgsubr
        </CharString>
        <CharString name="Edotaccent">
          75 468 790 rmoveto
          8 10 9 5 26 -29 76 -21 -18 -21 -29 -20 -27 47 -40 24 hvcurveto
          -200 -159 -80 callgsubr
        </CharString>
        <CharString name="Egrave">
          75 443 793 rmoveto
          18 callsubr
          230 callgsubr
          rrcurveto
          -63 -249 -80 callgsubr
        </CharString>
        <CharString name="Emacron">
          75 319 794 rmoveto
          270 callsubr
          hvcurveto
          28 callgsubr
          vhcurveto
          -51 -163 -80 callgsubr
        </CharString>
        <CharString name="Eogonek">
          75 268 631 rmoveto
          29 3 42 8 55 4 rrcurveto
          141 11 77 2 23 vvcurveto
          14 -67 5 -125 -160 -42 -19 -17 -4 vhcurveto
          -3 -6 -2 -8 -10 -181 -126 -254 -115 vvcurveto
          -43 51 -36 61 61 75 14 18 61 vhcurveto
          -18 -24 -12 -25 -25 -19 callgsubr
          300 callsubr
          -8 7 -16 0 -14 -6 rrcurveto
          -13 -50 -113 -36 -133 hhcurveto
          -18 -15 11 21 33 32 98 31 106 hvcurveto
          -1 3 4 0 3 hhcurveto
          168 100 15 37 7 -13 2 -24 -29 -58 -6 -4 -96 hvcurveto
          -20 -12 0 1 -11 hvcurveto
          24 86 21 86 57 vvcurveto
          endchar
        </CharString>
        <CharString name="Eth">
          74 204 281 rmoveto
          50 7 47 7 2 vvcurveto
          17 7 3 9 -10 4 -2 14 -51 5 -40 -4 rrcurveto
          31 111 17 65 36 129 callgsubr
          6 53 14 75 15 51 rrcurveto
          -48 48 rmoveto
          -25 -90 -22 -80 -37 158 callgsubr
          -12 -8 -5 -13 -16 21 -21 37 -10 vhcurveto
          -6 0 -8 -9 vvcurveto
          -3 -66 -26 -101 -26 -96 -50 -8 -62 -9 1 -3 -24 -7 -12 -13 9 -8 1 -9 48 -4 26 3 rrcurveto
          endchar
        </CharString>
        <CharString name="Euro">
          -19 99 190 rmoveto
          -94 79 -79 99 102 139 90 34 8 -4 8 -9 vhcurveto
          -31 -73 -77 -121 hhcurveto
          -74 -44 51 64 hvcurveto
          13 vlineto
          27 4 rlineto
          217 29 38 6 17 vvcurveto
          1 13 -25 7 -34 1 -28 1 -98 -9 -88 -12 9 35 16 34 19 34 18 1 rcurveline
          208 15 41 3 1 16 1 14 -20 8 -31 4 -20 2 -79 -1 -81 -5 rrcurveto
          89 68 91 67 56 29 16 -20 17 hhcurveto
          7 6 7 12 25 -39 39 -33 -103 -117 -104 -122 -75 hvcurveto
          -64 -6 -50 -9 -1 -12 -1 -11 19 -22 15 -1 rrcurveto
          13 16 1 2 21 hvcurveto
          -17 -35 -14 -36 -7 -35 rrcurveto
          -50 -9 -37 -10 -9 vvcurveto
          -11 19 -21 15 13 13 1 3 19 vhcurveto
          endchar
        </CharString>
        <CharString name="F">
          -17 197 334 rmoveto
          163 104 32 22 6 -13 3 -24 -29 -57 -8 -2 -93 hvcurveto
          -19 -13 0 -12 hhcurveto
          23 94 19 92 46 vvcurveto
          4 0 5 -1 5 vhcurveto
          29 1 43 5 56 6 rrcurveto
          124 14 91 0 21 vvcurveto
          14 -83 7 -105 -166 -39 -21 -18 -2 vhcurveto
          -2 -5 -2 -7 -9 vvcurveto
          -4 -158 -104 -314 -17 -97 rrcurveto
          -20 -3 25 -35 13 hhcurveto
          10 9 39 73 20 hvcurveto
          10 41 22 80 21 84 rrcurveto
          endchar
        </CharString>
        <CharString name="G">
          89 464 704 24 callsubr
          endchar
        </CharString>
        <CharString name="Gbreve">
          89 464 704 24 callsubr
          190 191 113 callsubr
        </CharString>
        <CharString name="H">
          151 129 298 rmoveto
          -29 -108 -25 -94 -31 vvcurveto
          -23 21 -23 14 9 35 144 124 35 vhcurveto
          6 21 36 7 43 10 50 8 rlinecurve
          72 12 61 8 47 6 rrcurveto
          -35 -132 -35 -127 -35 vvcurveto
          -26 21 -20 13 9 35 144 124 35 vhcurveto
          8 28 7 27 7 26 rrcurveto
          36 5 19 7 11 vvcurveto
          12 -10 6 -33 2 vhcurveto
          29 113 18 85 28 vvcurveto
          36 -26 34 -16 -12 -3 -6 -23 -50 -25 -107 -29 -110 vhcurveto
          -72 -5 -135 -19 -99 -19 rrcurveto
          36 134 21 104 31 vvcurveto
          36 -25 34 -15 -14 -1 -5 -24 -59 -35 -136 -35 -131 vhcurveto
          -32 -8 -21 -8 -7 vvcurveto
          -18 19 -13 13 vhcurveto
          endchar
        </CharString>
        <CharString name="I">
          -18 callsubr
          endchar
        </CharString>
        <CharString name="Iacute">
          -18 callsubr
          171 268 -63 callsubr
          endchar
        </CharString>
        <CharString name="Icircumflex">
          -18 callsubr
          140 218 -40 callsubr
          endchar
        </CharString>
        <CharString name="Idieresis">
          -18 callsubr
          42 141 rmoveto
          28 -30 61 -19 328 callsubr
          vhcurveto
          136 hmoveto
          28 -30 61 -19 328 callsubr
          vhcurveto
          endchar
        </CharString>
        <CharString name="Idotaccent">
          -18 callsubr
          19 182 172 callgsubr
        </CharString>
        <CharString name="Igrave">
          -18 callsubr
          -46 257 rmoveto
          230 callgsubr
          112 -87 rcurveline
          18 callsubr
          rrcurveto
          endchar
        </CharString>
        <CharString name="Imacron">
          -18 callsubr
          74 131 rmoveto
          28 callgsubr
          270 callsubr
          vhcurveto
          endchar
        </CharString>
        <CharString name="Iogonek">
          -218 93 hmoveto
          12 9 7 10 4 9 15 29 31 128 30 111 rrcurveto
          46 169 28 133 37 vvcurveto
          35 -26 34 -17 -13 -2 -6 -23 vhcurveto
          -116 -131 -427 -66 -3 1 -3 -4 vvcurveto
          -4 -1 -4 -2 -3 -3 56 callsubr
          endchar
        </CharString>
        <CharString name="J">
          -71 20 161 rmoveto
          -9 -6 -6 -12 -37 99 -93 84 98 13 68 369 112 hvcurveto
          24 78 53 127 29 vvcurveto
          23 -26 8 -21 -51 -233 -59 -37 -10 10 -6 20 37 94 41 16 114 vhcurveto
          -33 -49 -42 -119 -20 -71 rrcurveto
          -302 -82 -31 -50 -43 -78 -64 92 -19 hhcurveto
          endchar
        </CharString>
        <CharString name="K">
          56 590 679 95 callgsubr
        </CharString>
        <CharString name="L">
          17 263 640 21 callsubr
        </CharString>
        <CharString name="Lacute">
          17 415 943 -63 callsubr
          -152 -303 21 callsubr
        </CharString>
        <CharString name="Lcaron">
          17 413 618 rmoveto
          35 callsubr
          122 callsubr
          vhcurveto
          -150 22 21 callsubr
        </CharString>
        <CharString name="Lslash">
          -33 215 374 rmoveto
          116 44 27 12 -4 16 -3 11 -10 3 -46 -12 -26 -7 -25 -7 -24 -6 rrcurveto
          26 101 17 79 32 vvcurveto
          34 -26 32 -16 -13 -3 -6 -23 -57 -27 -106 -29 -107 vhcurveto
          -77 -23 -53 -20 4 -15 4 -14 32 -18 25 8 11 3 15 6 20 7 rrcurveto
          -30 -106 -27 -97 -41 vvcurveto
          -43 51 -36 62 127 181 63 40 9 -1 1 -10 vhcurveto
          -27 -126 -54 -161 hhcurveto
          -18 -15 13 20 18 7 33 40 135 hvcurveto
          7 25 7 25 7 24 rrcurveto
          endchar
        </CharString>
        <CharString name="M">
          277 269 643 rmoveto
          32 -5 -32 29 -12 hhcurveto
          -14 -2 -6 -23 hvcurveto
          -117 -136 -419 -71 vvcurveto
          -21 19 -24 11 10 36 142 123 36 vhcurveto
          22 75 25 101 13 78 38 -110 53 -116 22 -38 rrcurveto
          -21 13 19 -14 17 hhcurveto
          32 71 85 291 234 hvcurveto
          -62 -166 -73 -312 -63 vvcurveto
          -34 17 -21 13 11 30 165 132 37 vhcurveto
          47 166 38 126 40 vvcurveto
          23 -29 26 -17 -36 -108 -160 -240 -200 vhcurveto
          -66 139 -64 151 -8 52 rrcurveto
          endchar
        </CharString>
        <CharString name="N">
          173 656 652 -37 callsubr
          endchar
        </CharString>
        <CharString name="NULL">
          endchar
        </CharString>
        <CharString name="Nacute">
          173 542 943 -63 callsubr
          114 -291 -37 callsubr
          endchar
        </CharString>
        <CharString name="Ncaron">
          173 578 931 -54 callgsubr
          78 -279 -37 callsubr
          endchar
        </CharString>
        <CharString name="Ntilde">
          173 656 652 -37 callsubr
          -249 256 rmoveto
          229 callgsubr
          39 callgsubr
          endchar
        </CharString>
        <CharString name="O">
          146 callgsubr
          endchar
        </CharString>
        <CharString name="OE">
          406 220 74 rmoveto
          -49 -45 50 87 201 187 223 85 51 53 -63 -123 -147 -172 -228 -110 hvcurveto
          382 546 rmoveto
          29 3 40 8 54 4 rrcurveto
          139 11 79 1 23 vvcurveto
          15 -69 5 -123 -119 -53 -11 -13 -20 vhcurveto
          -9 -5 -8 -10 -20 vvcurveto
          -17 -1 -18 -2 -19 vhcurveto
          66 -27 -51 49 -67 hhcurveto
          -138 -190 -238 -253 -76 62 -104 85 74 74 47 68 61 hvcurveto
          -2 -16 -2 -14 -12 vvcurveto
          -41 51 -36 60 125 186 58 35 9 -2 10 -11 vhcurveto
          -27 -129 -53 -157 hhcurveto
          -18 -13 12 19 34 31 93 30 102 hvcurveto
          3 3 0 3 hhcurveto
          165 100 15 37 7 -15 3 -24 -28 -57 -7 -3 -94 hvcurveto
          -18 -13 0 1 -10 hvcurveto
          23 83 20 83 57 vvcurveto
          endchar
        </CharString>
        <CharString name="Oacute">
          81 587 943 -63 callsubr
          -521 -737 -51 callgsubr
          endchar
        </CharString>
        <CharString name="Ocircumflex">
          81 556 893 -40 callsubr
          -490 -687 -51 callgsubr
          endchar
        </CharString>
        <CharString name="Odieresis">
          81 458 816 rmoveto
          28 -30 61 -19 328 callsubr
          vhcurveto
          136 hmoveto
          28 -30 61 -19 328 callsubr
          vhcurveto
          -528 -610 -51 callgsubr
          endchar
        </CharString>
        <CharString name="Ograve">
          146 callgsubr
          -34 284 rmoveto
          230 callgsubr
          112 -87 rcurveline
          18 callsubr
          rrcurveto
          endchar
        </CharString>
        <CharString name="Ohungarumlaut">
          81 512 975 -1 callgsubr
          -588 -761 -51 callgsubr
          endchar
        </CharString>
        <CharString name="Omacron">
          81 490 806 rmoveto
          28 callgsubr
          270 callsubr
          vhcurveto
          -424 -600 -51 callgsubr
          endchar
        </CharString>
        <CharString name="Oslash">
          81 519 457 rmoveto
          -151 -181 -231 -111 -26 -27 15 27 -20 vhcurveto
          65 83 107 139 180 208 rrcurveto
          8 -26 5 -30 -34 vvcurveto
          -393 -242 rmoveto
          204 190 229 88 25 27 -15 -30 22 vhcurveto
          -59 -67 -73 -92 -70 -88 -50 -62 -53 -64 -43 -54 rrcurveto
          -3 12 -1 13 14 vvcurveto
          438 398 rmoveto
          33 37 10 21 14 vvcurveto
          11 -7 7 -10 -13 -25 -20 -34 -32 vhcurveto
          36 -31 -41 23 -46 hhcurveto
          -141 -195 -254 -248 -27 7 -30 13 -28 hvcurveto
          -29 -39 -19 -28 -12 vvcurveto
          -15 10 -10 16 9 15 17 37 30 vhcurveto
          -31 26 35 -21 39 hhcurveto
          178 188 264 186 46 -11 46 -20 39 hvcurveto
          endchar
        </CharString>
        <CharString name="Otilde">
          146 callgsubr
          48 260 rmoveto
          229 callgsubr
          39 callgsubr
          endchar
        </CharString>
        <CharString name="P">
          10 189 324 rmoveto
          42 150 17 87 36 vvcurveto
          10 -2 10 -3 9 vhcurveto
          11 29 39 15 43 hhcurveto
          77 59 -48 -68 -88 -117 -85 -184 -39 hvcurveto
          360 219 rmoveto
          102 -90 63 -107 -74 -108 -31 -28 -13 9 -11 10 -6 vhcurveto
          -10 -145 -125 -349 -68 342 callsubr
          9 41 136 119 35 vhcurveto
          219 43 157 83 148 vvcurveto
          endchar
        </CharString>
        <CharString name="Q">
          102 230 76 rmoveto
          -54 -49 51 89 134 75 148 83 83 hvcurveto
          -11 -27 -6 -33 -36 vvcurveto
          -101 32 -140 40 -120 vhcurveto
          -30 -38 -38 -18 -34 hhcurveto
          176 570 rmoveto
          54 63 -66 -119 -96 -63 -120 -77 -81 hvcurveto
          -30 96 -26 114 127 vvcurveto
          56 7 44 16 29 vhcurveto
          10 19 19 6 18 hhcurveto
          181 -177 rmoveto
          119 -82 116 -103 -144 -188 -241 -257 -105 66 -78 88 47 46 16 27 43 vhcurveto
          -107 40 43 -80 24 hhcurveto
          8 11 3 10 26 -40 74 -40 108 hvcurveto
          105 90 76 154 125 vvcurveto
          endchar
        </CharString>
        <CharString name="R">
          46 181 336 -32 callsubr
          endchar
        </CharString>
        <CharString name="Racute">
          46 181 336 -32 callsubr
          233 540 43 callsubr
        </CharString>
        <CharString name="Rcaron">
          46 181 336 -32 callsubr
          379 643 -54 callgsubr
          endchar
        </CharString>
        <CharString name="S">
          -10 207 25 -5 callsubr
          endchar
        </CharString>
        <CharString name="Sacute">
          10 522 943 -63 callsubr
          -295 -918 -5 callsubr
          endchar
        </CharString>
        <CharString name="Scaron">
          10 558 931 -54 callgsubr
          -331 -906 -5 callsubr
          endchar
        </CharString>
        <CharString name="T">
          1 416 701 49 callsubr
        </CharString>
        <CharString name="Tcaron">
          -70 313 707 117 callsubr
          103 -6 49 callsubr
        </CharString>
        <CharString name="Thorn">
          -43 166 257 rmoveto
          17 61 13 58 11 50 rrcurveto
          13 28 25 7 24 hhcurveto
          50 51 -35 -56 -64 -117 -69 -108 13 hvcurveto
          126 274 rmoveto
          -17 -25 -5 -8 -25 hvcurveto
          7 39 3 29 14 vvcurveto
          36 -27 30 -16 -15 -3 -8 -22 vhcurveto
          -167 -111 -322 -65 vvcurveto
          -21 18 -22 14 12 20 76 88 24 vhcurveto
          139 -19 160 79 118 vvcurveto
          86 -87 64 -71 vhcurveto
          endchar
        </CharString>
        <CharString name="U">
          51 callgsubr
          endchar
        </CharString>
        <CharString name="Uacute">
          70 486 943 -63 callsubr
          -241 -307 -57 callgsubr
          endchar
        </CharString>
        <CharString name="Ucircumflex">
          70 455 893 -40 callsubr
          -210 -257 -57 callgsubr
          endchar
        </CharString>
        <CharString name="Udieresis">
          70 357 816 rmoveto
          28 -30 61 -19 328 callsubr
          vhcurveto
          136 hmoveto
          28 -30 61 -19 328 callsubr
          vhcurveto
          -248 -180 -57 callgsubr
          endchar
        </CharString>
        <CharString name="Ugrave">
          51 callgsubr
          24 296 rmoveto
          230 callgsubr
          112 -87 rcurveline
          18 callsubr
          rrcurveto
          endchar
        </CharString>
        <CharString name="Uhungarumlaut">
          51 callgsubr
          166 339 -1 callgsubr
          endchar
        </CharString>
        <CharString name="Umacron">
          51 callgsubr
          144 170 rmoveto
          28 callgsubr
          270 callsubr
          vhcurveto
          endchar
        </CharString>
        <CharString name="Uogonek">
          14 265 -5 rmoveto
          9 7 6 7 4 7 144 39 142 231 -13 348 rrcurveto
          38 -38 32 -17 -11 -3 -3 -13 vhcurveto
          -30 7 -40 -60 vvcurveto
          -272 -151 -220 -95 -54 -37 53 88 vhcurveto
          101 87 234 94 vvcurveto
          35 -31 33 -15 -12 -2 -5 -24 vhcurveto
          -144 -86 -195 -143 vvcurveto
          -82 42 -74 64 -21 vhcurveto
          -35 -34 -33 -42 -40 -19 callgsubr
          endchar
        </CharString>
        <CharString name="Uring">
          70 406 944 170 callsubr
          -155 -263 -57 callgsubr
          endchar
        </CharString>
        <CharString name="V">
          3 563 704 rmoveto
          -44 -220 -430 -169 -59 hvcurveto
          -65 216 -15 258 -19 64 rrcurveto
          35 -11 -22 26 -19 hhcurveto
          -8 -3 -8 -16 -69 77 -447 37 -88 hvcurveto
          -33 14 14 -31 17 hhcurveto
          27 40 121 233 118 hvcurveto
          102 204 67 71 41 vvcurveto
          11 -16 11 -12 vhcurveto
          endchar
        </CharString>
        <CharString name="W">
          251 515 704 rmoveto
          -30 -14 -5 -16 -22 28 -26 40 -1 hvcurveto
          88 -4 43 -135 -103 vvcurveto
          -153 -71 -153 -89 vhcurveto
          -78 24 318 -62 hhcurveto
          -39 -137 -174 -130 -83 hvcurveto
          22 212 35 213 19 120 rrcurveto
          27 3 -36 32 -18 hhcurveto
          -12 -7 -8 -27 -1 hvcurveto
          -2 -177 -44 -225 -14 -168 rrcurveto
          -39 -3 23 -38 18 hhcurveto
          20 30 26 124 93 hvcurveto
          37 49 38 55 45 57 rrcurveto
          -171 13 25 -138 91 hhcurveto
          117 103 176 183 174 -71 147 -144 hvcurveto
          endchar
        </CharString>
        <CharString name="X">
          116 321 391 rmoveto
          -61 99 -49 100 4 71 rrcurveto
          27 1 -32 16 -28 hhcurveto
          -8 -3 -4 -14 -1 hvcurveto
          -4 -74 64 -140 77 -133 -96 -122 -85 -101 -37 -36 rrcurveto
          -16 -17 -8 -4 -12 vvcurveto
          -9 -1 18 -15 10 hhcurveto
          39 44 62 204 162 hvcurveto
          -144 88 97 -122 30 hhcurveto
          5 8 6 15 hvcurveto
          2 32 -99 127 -90 138 2 2 rcurveline
          123 156 78 103 33 27 25 19 17 4 1 17 rrcurveto
          11 1 -26 24 -11 hhcurveto
          -29 -44 -48 -211 -160 hvcurveto
          endchar
        </CharString>
        <CharString name="Y">
          40 callgsubr
          endchar
        </CharString>
        <CharString name="Yacute">
          40 callgsubr
          134 587 -63 callsubr
          endchar
        </CharString>
        <CharString name="Ydieresis">
          40 callgsubr
          5 460 rmoveto
          28 -30 61 -19 328 callsubr
          vhcurveto
          136 hmoveto
          28 -30 61 -19 328 callsubr
          vhcurveto
          endchar
        </CharString>
        <CharString name="Z">
          77 562 581 -15 callsubr
          endchar
        </CharString>
        <CharString name="Zacute">
          77 506 943 -63 callsubr
          56 -362 -15 callsubr
          endchar
        </CharString>
        <CharString name="Zcaron">
          77 542 931 -54 callgsubr
          20 -350 -15 callsubr
          endchar
        </CharString>
        <CharString name="Zdotaccent">
          77 562 581 -15 callsubr
          -208 276 172 callgsubr
        </CharString>
        <CharString name="a">
          -82 314 308 rmoveto
          -131 -37 -82 -101 -69 hhcurveto
          -29 -35 21 31 100 144 215 79 33 13 -48 -41 -10 0 -8 1 -7 hvcurveto
          -10 -3 -6 -8 -2 -10 rrcurveto
          70 70 rmoveto
          39 -34 85 -70 -119 -161 -243 -130 -57 69 -55 62 62 69 64 69 39 vhcurveto
          -76 2 -57 25 20 -5 55 62 11 vhcurveto
          14 77 3 50 30 vvcurveto
          10 -3 9 -6 7 vhcurveto
          11 15 11 24 22 vvcurveto
          endchar
        </CharString>
        <CharString name="aacute">
          -53 343 308 -71 callgsubr
          74 113 43 callsubr
        </CharString>
        <CharString name="abreve">
          -53 343 308 -71 callgsubr
          219 180 113 callsubr
        </CharString>
        <CharString name="acircumflex">
          -53 343 308 -71 callgsubr
          153 178 -40 callsubr
          endchar
        </CharString>
        <CharString name="acute">
          132 826 -63 callsubr
          endchar
        </CharString>
        <CharString name="adieresis">
          -53 348 586 rmoveto
          247 callsubr
          -11 callsubr
          hvcurveto
          -5 -278 -71 callgsubr
          142 190 286 callgsubr
        </CharString>
        <CharString name="ae">
          200 299 502 rmoveto
          -134 -136 -240 -130 -64 64 -51 54 71 47 59 80 51 hvcurveto
          -86 7 74 -53 84 hhcurveto
          69 98 54 25 10 -7 6 -11 hvcurveto
          -28 -48 -38 -84 hhcurveto
          -56 -43 32 50 29 5 33 11 32 hvcurveto
          -11 45 44 -8 47 hhcurveto
          169 callgsubr
          -60 -53 -41 -50 -40 hvcurveto
          48 -13 -39 43 -57 hhcurveto
          105 -210 rmoveto
          83 37 63 71 63 hhcurveto
          168 callsubr
          -30 -39 5 9 -38 hvcurveto
          -100 151 rmoveto
          42 15 -37 -65 1 hvcurveto
          -9 -14 -6 -15 -5 -13 -62 -140 -62 -86 -76 3 rrcurveto
          -23 1 -31 20 31 vvcurveto
          100 119 215 97 vhcurveto
          endchar
        </CharString>
        <CharString name="agrave">
          -53 343 308 -71 callgsubr
          9 222 rmoveto
          -14 14 -17 -6 -11 -13 230 callgsubr
          112 -87 rcurveline
          11 -9 17 -11 13 14 10 10 -7 17 -12 13 rrcurveto
          endchar
        </CharString>
        <CharString name="amacron">
          -53 343 308 -71 callgsubr
          184 139 140 callsubr
        </CharString>
        <CharString name="ampersand">
          131 83 107 rmoveto
          32 73 57 83 67 vhcurveto
          20 -39 25 -37 28 -33 rrcurveto
          -46 -73 -71 -37 -45 hhcurveto
          -23 -17 15 21 hvcurveto
          165 356 rmoveto
          82 4 44 60 62 hhcurveto
          44 18 -26 -32 -1 hvcurveto
          -3 -57 -70 -69 -82 -68 -12 38 -6 38 2 34 rrcurveto
          293 -383 rmoveto
          -50 -49 24 38 -44 hvcurveto
          118 79 104 90 19 vvcurveto
          14 -6 7 -16 -17 -109 -89 -78 -115 vhcurveto
          -29 35 -25 40 -18 41 96 80 96 90 4 77 rrcurveto
          45 1 -21 65 -93 hhcurveto
          -108 -69 -86 -102 -4 hvcurveto
          -2 -48 11 -54 20 -53 rrcurveto
          -97 -79 -97 -73 -47 vvcurveto
          -55 55 -45 43 56 88 43 54 88 vhcurveto
          -52 56 66 -34 65 hhcurveto
          60 21 15 20 1 hvcurveto
          14 1 -18 5 -63 hhcurveto
          endchar
        </CharString>
        <CharString name="aogonek">
          -53 155 76 rmoveto
          -29 -35 21 31 100 144 215 79 33 13 -48 -41 -10 0 -8 1 -7 hvcurveto
          -10 -3 -6 -8 -2 -10 rrcurveto
          -131 -37 -82 -101 -69 hhcurveto
          175 74 rmoveto
          -76 2 -57 25 20 -5 55 62 11 vhcurveto
          14 77 3 50 30 vvcurveto
          10 -3 9 -6 7 vhcurveto
          11 15 11 24 22 vvcurveto
          39 -34 85 -70 -119 -161 -243 -130 -57 69 -55 62 62 69 64 69 39 vhcurveto
          99 -323 rmoveto
          -2 12 -8 7 -13 -1 rrcurveto
          -13 -15 -16 -28 hhcurveto
          -28 -15 8 15 28 32 29 40 31 hvcurveto
          300 callsubr
          -10 9 -23 -3 -15 -11 rrcurveto
          -45 -35 -57 -57 -53 vvcurveto
          -37 42 -29 40 27 18 6 8 20 vhcurveto
          22 9 10 13 -1 12 rrcurveto
          endchar
        </CharString>
        <CharString name="approxequal">
          62 218 331 101 callgsubr
          50 208 101 callgsubr
          endchar
        </CharString>
        <CharString name="aring">
          -53 343 308 -71 callgsubr
          125 137 rmoveto
          -24 -2 -17 -21 -18 hhcurveto
          -18 -12 21 24 3 hvcurveto
          335 callsubr
          332 callsubr
          -21 92 rmoveto
          -42 -39 -41 -49 -7 hvcurveto
          -49 -6 30 -41 43 hhcurveto
          42 39 41 49 7 hvcurveto
          49 6 -30 41 -43 hhcurveto
          endchar
        </CharString>
        <CharString name="asciicircum">
          -107 308 690 rmoveto
          -30 75 -2 22 -15 21 rrcurveto
          13 -9 -29 4 -11 hhcurveto
          -23 -49 -68 -78 -37 hvcurveto
          -24 -51 -5 -24 5 -17 3 -13 9 -3 14 8 23 7 30 108 65 65 rrcurveto
          -65 27 58 -128 31 hhcurveto
          8 4 4 11 12 -20 42 -23 55 hvcurveto
          endchar
        </CharString>
        <CharString name="asciitilde">
          69 244 425 101 callgsubr
          endchar
        </CharString>
        <CharString name="asterisk">
          -181 194 569 rmoveto
          -15 19 -18 15 13 7 68 29 4 vhcurveto
          -25 15 30 -46 27 hhcurveto
          9 13 8 9 22 -65 35 -16 19 hvcurveto
          83 -23 48 24 22 vvcurveto
          9 -18 4 -22 -19 -49 -7 -9 -29 vhcurveto
          34 16 70 36 9 vvcurveto
          14 -22 16 -11 -12 -44 -52 -26 -24 vhcurveto
          16 28 13 23 9 vvcurveto
          15 -33 23 -14 -8 -4 -3 -11 -12 4 -30 5 -42 vhcurveto
          -20 20 -16 29 8 vvcurveto
          14 -41 10 -23 -10 0 -5 -8 -11 51 -50 40 -21 vhcurveto
          -1 -41 -51 8 -8 hhcurveto
          -11 -5 -5 -7 -14 16 -24 21 16 45 16 6 19 hvcurveto
          -28 -24 -64 -36 -10 vvcurveto
          -10 14 -17 15 10 51 64 21 15 vhcurveto
          -3 -11 -27 -51 -10 vvcurveto
          endchar
        </CharString>
        <CharString name="at">
          375 567 327 rmoveto
          -134 -33 -88 -102 -70 hhcurveto
          -29 -38 23 34 102 146 218 80 35 14 -52 -42 -13 0 -10 1 -6 hvcurveto
          -10 -2 -6 -7 -2 -9 rrcurveto
          227 288 rmoveto
          65 -53 -65 30 -99 hhcurveto
          -325 -211 -348 -250 -147 107 -130 157 119 166 46 49 31 -85 -75 -194 -130 -81 95 133 232 200 312 279 170 55 -127 -136 -173 -161 -150 -52 58 hvcurveto
          -47 53 74 79 49 vvcurveto
          11 -4 9 -7 6 vhcurveto
          11 12 13 26 23 vvcurveto
          38 -33 81 -68 -118 -159 -240 -128 -54 67 -53 61 45 54 33 63 50 vhcurveto
          -45 7 36 -25 35 hhcurveto
          122 134 167 166 75 -17 74 -53 65 hvcurveto
          endchar
        </CharString>
        <CharString name="atilde">
          -53 343 308 -71 callgsubr
          226 180 rmoveto
          -29 -5 -61 -2 -40 hvcurveto
          2 -37 -5 74 -61 hhcurveto
          229 callgsubr
          24 11 51 24 49 hvcurveto
          -52 37 31 -27 36 hhcurveto
          54 39 54 38 15 -6 9 -11 hvcurveto
          endchar
        </CharString>
        <CharString name="b">
          -27 223 72 rmoveto
          -35 -43 23 57 -32 hvcurveto
          148 66 115 145 83 hhcurveto
          34 13 -35 -52 -144 -110 -142 -91 hvcurveto
          -131 27 rmoveto
          -54 38 43 -31 59 hhcurveto
          123 132 193 151 80 -39 69 -65 -81 -81 -78 -117 -72 hvcurveto
          52 216 5 150 37 vvcurveto
          33 -25 34 -16 -15 -3 -9 -21 vhcurveto
          -334 -123 -293 -65 342 callsubr
          7 11 31 44 13 vhcurveto
          endchar
        </CharString>
        <CharString name="backslash">
          71 480 -75 rmoveto
          9 21 25 11 37 -82 198 -242 538 hvcurveto
          22 -10 -1 7 -10 hhcurveto
          -10 -26 -35 -21 -53 122 -210 65 -156 hvcurveto
          -329 137 14 -34 13 hhcurveto
          endchar
        </CharString>
        <CharString name="bar">
          -209 52 -75 rmoveto
          -21 22 -23 13 15 65 299 116 30 vhcurveto
          39 155 58 252 33 vvcurveto
          33 -26 34 -17 -15 -2 -8 -22 vhcurveto
          -104 -182 -683 -61 vvcurveto
          endchar
        </CharString>
        <CharString name="braceleft">
          -130 364 853 rmoveto
          -87 -85 -68 -103 -3 hvcurveto
          -3 -93 50 -86 -2 -45 rrcurveto
          -37 -1 -25 -23 -41 -38 -29 34 -17 hhcurveto
          -6 -5 -9 -9 -16 12 -15 17 -11 hvcurveto
          7 -11 11 -16 -1 -17 -3 -108 -63 -39 -3 -109 rrcurveto
          -80 -3 65 -76 90 hhcurveto
          43 40 14 22 1 hvcurveto
          12 -10 4 -36 -87 -40 33 71 1 vhcurveto
          4 117 49 35 3 73 rrcurveto
          21 -3 18 -6 15 vhcurveto
          -1 8 8 -1 7 hhcurveto
          66 38 46 46 2 hvcurveto
          1 59 -50 61 4 102 rrcurveto
          80 2 58 48 66 hhcurveto
          56 18 -31 -44 -1 hvcurveto
          -23 -1 -2 -26 13 hhcurveto
          18 17 32 37 1 hvcurveto
          64 2 -49 53 -78 hhcurveto
          endchar
        </CharString>
        <CharString name="braceright">
          -39 422 314 rmoveto
          0 vlineto
          15 6 9 12 10 vvcurveto
          9 -11 0 -22 4 vhcurveto
          -39 6 -43 20 45 67 174 91 125 vvcurveto
          74 -80 70 -74 -72 -89 -58 -46 -10 23 -22 11 vhcurveto
          23 23 81 72 hhcurveto
          53 48 -39 -56 hvcurveto
          -104 -170 -84 -89 vvcurveto
          -46 33 -39 42 -19 vhcurveto
          -81 -82 66 -271 -122 -89 10 50 -36 hhcurveto
          -8 -6 -8 -14 -35 66 -46 70 192 -104 354 40 108 hvcurveto
          2 1 3 1 3 1 rrcurveto
          endchar
        </CharString>
        <CharString name="bracketleft">
          -81 278 759 rmoveto
          -2 -4 -1 -6 -7 -120 -194 -524 -83 vvcurveto
          -44 49 -27 56 42 101 23 34 8 -4 4 -11 vhcurveto
          -25 -68 -11 -50 hhcurveto
          -16 -10 9 16 17 9 34 59 189 hvcurveto
          48 152 74 248 42 vvcurveto
          7 -1 6 -2 6 vhcurveto
          8 2 14 2 30 3 116 13 22 -1 2 19 1 16 -29 8 -35 2 -52 3 -128 -4 -3 -30 rrcurveto
          endchar
        </CharString>
        <CharString name="bracketright">
          -118 362 707 rmoveto
          2 0 2 2 vvcurveto
          22 -28 17 -94 -7 vhcurveto
          -75 -5 -39 -10 -21 vvcurveto
          -26 52 6 78 -2 vhcurveto
          18 15 -1 -1 12 hvcurveto
          -1 -6 -1 -5 -6 vvcurveto
          -78 -120 -524 -15 -55 vhcurveto
          -17 -4 -8 -9 -17 -49 -61 14 -28 hhcurveto
          -11 -5 -3 -9 -30 92 -30 59 60 24 23 46 12 hvcurveto
          29 116 105 469 121 vvcurveto
          endchar
        </CharString>
        <CharString name="breve">
          167 682 113 callsubr
        </CharString>
        <CharString name="brokenbar">
          -207 108 224 rmoveto
          -104 -55 -134 -61 vvcurveto
          -21 22 -23 13 22 58 266 40 33 -26 34 -16 -15 -3 -8 -22 vhcurveto
          127 549 rmoveto
          -104 -55 -134 -62 vvcurveto
          -20 22 -23 13 23 57 266 40 33 -25 34 -17 -15 -3 -8 -22 vhcurveto
          endchar
        </CharString>
        <CharString name="bullet">
          -292 65 334 rmoveto
          -34 59 -61 37 11 14 13 5 34 -44 106 -26 -24 -27 -36 -27 vhcurveto
          endchar
        </CharString>
        <CharString name="c">
          -107 305 502 rmoveto
          -124 -146 -206 -136 -84 72 -59 82 69 callgsubr
          hvcurveto
          endchar
        </CharString>
        <CharString name="cacute">
          -88 442 730 -63 callsubr
          -117 -228 rmoveto
          -124 -146 -206 -136 -84 72 -59 82 69 callgsubr
          hvcurveto
          endchar
        </CharString>
        <CharString name="caron">
          168 109 callsubr
          endchar
        </CharString>
        <CharString name="ccaron">
          -88 478 109 callsubr
          -153 -216 rmoveto
          -124 -146 -206 -136 -84 72 -59 82 69 callgsubr
          hvcurveto
          endchar
        </CharString>
        <CharString name="ccedilla">
          -88 203 17 rmoveto
          69 callgsubr
          -124 -146 -206 -136 -65 43 -49 56 -20 hvcurveto
          -18 -48 -27 -38 17 -9 38 callsubr
          313 callsubr
          12 21 9 18 5 15 rrcurveto
          endchar
        </CharString>
        <CharString name="cedilla">
          61 -125 rmoveto
          -1 23 -31 21 -34 7 313 callsubr
          20 34 11 29 14 vvcurveto
          16 -8 8 -14 -1 vhcurveto
          -10 -12 -4 -17 -5 hvcurveto
          -17 -55 -36 -46 19 -10 39 -17 34 6 12 -18 -30 -51 -112 15 2 -28 1 -17 18 -1 33 3 108 8 46 43 -1 37 rrcurveto
          endchar
        </CharString>
        <CharString name="cent">
          -81 121 161 rmoveto
          84 80 137 80 47 vhcurveto
          -31 -110 -33 -140 -22 -99 rrcurveto
          -46 5 -28 33 43 vvcurveto
          233 351 rmoveto
          8 30 8 14 -2 16 rrcurveto
          18 -2 -5 15 -15 hhcurveto
          -9 -16 -42 -62 -19 hvcurveto
          -117 -28 -124 -185 -125 vvcurveto
          -73 53 -54 68 -13 vhcurveto
          -8 -37 -5 -25 -6 vvcurveto
          -10 16 -19 7 1 vhcurveto
          5 13 38 56 16 hvcurveto
          69 6 101 57 25 vvcurveto
          11 -4 5 -10 -27 -31 -35 -9 -81 vhcurveto
          31 116 39 155 24 94 rrcurveto
          -2 36 22 -44 25 hhcurveto
          7 5 5 9 23 -26 55 -54 11 hvcurveto
          endchar
        </CharString>
        <CharString name="circumflex">
          101 185 callgsubr
          endchar
        </CharString>
        <CharString name="colon">
          -283 35 76 rmoveto
          -28 48 -54 29 9 9 9 6 29 -33 91 -24 -18 -20 -31 -22 vhcurveto
          93 370 rmoveto
          -28 48 -55 29 9 10 9 7 28 -33 92 -25 -18 -20 -32 -21 vhcurveto
          endchar
        </CharString>
        <CharString name="comma">
          -319 -3 -150 101 callsubr
        </CharString>
        <CharString name="copyright">
          179 467 552 rmoveto
          -103 -122 -168 -103 -55 56 -51 54 63 84 58 24 6 -3 9 -10 hvcurveto
          -21 -42 -46 -70 hhcurveto
          -30 -29 23 30 104 119 120 52 hvcurveto
          16 9 -9 13 hhcurveto
          5 6 3 10 19 -26 26 -21 hvcurveto
          179 -138 rmoveto
          -201 -127 -111 -195 -103 -76 66 121 209 184 119 143 96 78 -84 -119 vhcurveto
          -308 -354 rmoveto
          307 callsubr
          308 callgsubr
          hvcurveto
          endchar
        </CharString>
        <CharString name="currency">
          71 410 304 rmoveto
          -67 -3 -62 -64 -52 hhcurveto
          -52 -48 61 68 11 hvcurveto
          74 6 58 61 53 hhcurveto
          54 46 -62 -71 -11 hvcurveto
          104 199 rmoveto
          12 -19 15 -15 -15 -26 -24 -43 -34 vhcurveto
          15 -22 -26 9 -29 hhcurveto
          -31 -30 -11 -18 -26 hvcurveto
          -7 17 -4 15 -1 10 rrcurveto
          20 -3 -33 10 -20 hhcurveto
          -12 -2 -5 -12 -13 18 -34 23 -45 hvcurveto
          -26 -31 -19 -40 -6 -44 -5 -46 11 -42 22 -32 rrcurveto
          -40 -41 -26 -24 -8 vvcurveto
          -13 19 -17 15 10 28 27 38 32 vhcurveto
          -14 20 25 -8 27 hhcurveto
          26 25 7 13 23 hvcurveto
          -39 30 28 -24 15 hhcurveto
          8 10 6 8 11 -21 27 -29 43 hvcurveto
          33 33 24 47 7 51 4 42 -9 39 -18 31 rrcurveto
          29 30 42 40 12 vvcurveto
          endchar
        </CharString>
        <CharString name="d">
          -51 355 82 callgsubr
          endchar
        </CharString>
        <CharString name="dagger">
          -199 352 458 rmoveto
          188 callsubr
          rrcurveto
          -35 -200 -54 -258 -35 342 callsubr
          15 29 144 149 29 vhcurveto
          289 callgsubr
          rrcurveto
          endchar
        </CharString>
        <CharString name="daggerdbl">
          -199 150 154 rmoveto
          289 callgsubr
          188 callsubr
          -13 -79 -17 -89 -16 -80 -87 -7 -82 -11 -1 -14 -1 -11 19 -22 15 -1 26 -1 31 5 69 6 rrcurveto
          -18 -96 -14 -75 -18 342 callsubr
          13 24 110 128 25 vhcurveto
          170 14 27 6 1 15 1 14 -24 7 -34 3 -19 1 -52 -1 -59 -4 rrcurveto
          endchar
        </CharString>
        <CharString name="dcaron">
          178 385 82 callgsubr
          149 -15 rmoveto
          283 callsubr
          29 97 52 77 41 -34 24 -32 vhcurveto
          endchar
        </CharString>
        <CharString name="dcroat">
          -21 385 279 rmoveto
          -115 -42 -120 -93 -56 hhcurveto
          -28 -32 23 32 128 119 189 94 46 23 -70 -80 hvcurveto
          142 308 rmoveto
          123 9 29 4 1 16 rrcurveto
          12 -9 6 -47 1 vhcurveto
          1 -35 -34 0 -32 hhcurveto
          5 33 2 22 10 vvcurveto
          33 -25 34 -17 -15 -2 -9 -21 vhcurveto
          -2 -33 -4 -34 -4 -35 rrcurveto
          -71 -2 -49 -5 -14 vvcurveto
          -14 26 -26 27 14 18 2 3 26 vhcurveto
          -11 -65 -14 -66 -15 -63 rrcurveto
          61 -14 -31 41 -55 hhcurveto
          -144 -125 -246 -124 -53 47 -62 64 68 69 54 67 53 hvcurveto
          -9 -38 -6 -28 -14 vvcurveto
          -22 20 -19 13 15 38 146 117 30 vhcurveto
          34 131 22 111 14 78 rrcurveto
          endchar
        </CharString>
        <CharString name="degree">
          -234 234 725 rmoveto
          -68 -69 -66 -80 -19 hvcurveto
          -78 -18 41 -67 69 hhcurveto
          69 69 67 78 19 hvcurveto
          80 17 -40 66 -70 hhcurveto
          -13 -53 rmoveto
          37 22 -44 -52 -14 hvcurveto
          -49 -8 -40 -43 -35 hhcurveto
          -38 -22 43 49 14 hvcurveto
          52 10 37 44 37 hhcurveto
          endchar
        </CharString>
        <CharString name="dieresis">
          3 745 rmoveto
          28 -30 61 -19 328 callsubr
          vhcurveto
          136 hmoveto
          28 -30 61 -19 328 callsubr
          vhcurveto
          endchar
        </CharString>
        <CharString name="divide">
          71 105 287 rmoveto
          232 240 29 34 12 -17 6 -25 -48 -63 -7 -8 -116 hvcurveto
          -7 -116 -98 5 337 callgsubr
          103 -155 rmoveto
          -28 48 -49 182 callgsubr
          -21 vhcurveto
          76 393 rmoveto
          -27 48 -50 182 callgsubr
          -21 vhcurveto
          endchar
        </CharString>
        <CharString name="dollar">
          -26 270 375 rmoveto
          -46 34 -37 30 27 vvcurveto
          36 69 36 72 22 vhcurveto
          -16 -48 -18 -61 -24 -76 rrcurveto
          121 -194 rmoveto
          -53 -69 -41 -88 -10 vhcurveto
          15 50 21 67 29 91 rrcurveto
          50 -35 42 -34 -35 vvcurveto
          33 495 rmoveto
          4 15 2 14 11 vvcurveto
          16 -4 14 -11 -1 vhcurveto
          -21 1 -10 -13 -35 -108 -71 -17 -78 -31 -44 -41 rrcurveto
          -15 -12 -12 -40 -27 vvcurveto
          -50 60 -46 63 -43 vhcurveto
          -21 -66 -33 -97 -22 -79 rrcurveto
          11 -74 -45 86 -21 hhcurveto
          -11 -6 -7 -14 -34 56 -76 87 -20 hvcurveto
          -5 -23 -3 -20 -14 vvcurveto
          -16 -1 6 -11 10 hhcurveto
          14 6 4 75 25 hvcurveto
          115 3 117 60 9 98 5 59 -72 55 -71 50 21 66 25 77 28 90 22 4 20 1 15 -1 rrcurveto
          -1 17 15 -7 13 hhcurveto
          6 5 2 8 19 -18 39 -37 -11 -13 -1 -1 -14 hvcurveto
          endchar
        </CharString>
        <CharString name="dotaccent">
          -20 740 172 callgsubr
        </CharString>
        <CharString name="dotlessi">
          -269 197 462 116 callgsubr
        </CharString>
        <CharString name="dvB_DA_MatraU">
          303 723 138 callgsubr
          -628 -16 rmoveto
          -50 callgsubr
          -6 7 callgsubr
          657 -44 callgsubr
          -75 -97 -99 -90 -50 hvcurveto
          -21 -15 -33 -30 -39 -29 -79 callsubr
          72 106 59 54 68 hvcurveto
          -1 -4 0 -4 -4 vvcurveto
          208 callgsubr
          vhcurveto
          -97 callsubr
        </CharString>
        <CharString name="dvB_DA_MatraUU">
          303 723 199 -35 callsubr
          -373 363 rmoveto
          -50 callgsubr
          -6 7 callgsubr
          657 -44 callgsubr
          -75 -97 -99 -90 -50 hvcurveto
          -21 -15 -33 -30 -39 -29 -79 callsubr
          72 106 59 54 68 hvcurveto
          -1 -4 0 -4 -4 vvcurveto
          208 callgsubr
          vhcurveto
          -96 callgsubr
        </CharString>
        <CharString name="dvDA_MatraU">
          -43 377 138 callgsubr
          -382 81 callgsubr
          405 176 callgsubr
          -97 callsubr
        </CharString>
        <CharString name="dvDA_MatraUU">
          -43 377 199 -35 callsubr
          -125 816 -104 callsubr
          403 176 callgsubr
          -96 callgsubr
        </CharString>
        <CharString name="dvDDH_DDHA">
          10 304 217 rmoveto
          46 22 19 53 36 17 -13 -18 -31 -59 -22 -67 -8 vhcurveto
          -1 9 -1 9 9 vvcurveto
          -82 -413 rmoveto
          28 33 16 28 43 21 -27 -17 -29 -40 -20 -51 -9 vhcurveto
          -26 19 -8 18 21 vvcurveto
          -164 832 -104 callsubr
          345 hlineto
          -11 -32 -3 -48 -28 vvcurveto
          -8 vlineto
          14 -22 -26 10 -16 hhcurveto
          -77 -193 -148 -106 -42 34 -30 50 -17 hvcurveto
          -12 34 41 -6 41 hhcurveto
          16 hlineto
          9 -37 14 -42 16 -32 rrcurveto
          4 -19 -21 3 -23 hhcurveto
          -118 -139 -102 -108 -97 98 -36 102 122 84 55 61 46 -43 40 -70 -65 -40 -28 -46 -29 13 -23 23 -23 hvcurveto
          -1 -7 -7 0 -7 hhcurveto
          -86 -58 24 61 63 105 94 97 hvcurveto
          61 27 -13 19 hhcurveto
          8 8 2 11 hvcurveto
          1 vlineto
          1 vlineto
          21 -38 63 -20 71 vhcurveto
          101 14 64 49 49 vvcurveto
          42 -34 36 -67 -86 -35 -46 -73 -6 1 -8 1 -9 vhcurveto
          -9 hlineto
          -87 -51 25 34 72 145 118 65 42 19 -31 -4 24 hvcurveto
          2 hlineto
          152 callsubr
          1 1 0 1 hhcurveto
          14 3 5 15 18 vvcurveto
          92 11 29 2 30 vhcurveto
          154 -107 callgsubr
        </CharString>
        <CharString name="dvDD_GA">
          -98 56 -108 -4 callgsubr
        </CharString>
        <CharString name="dvG_DA_MatraU">
          318 738 138 callgsubr
          -556 -34 rmoveto
          -95 callgsubr
          428 176 callgsubr
          -97 callsubr
        </CharString>
        <CharString name="dvG_DA_MatraUU">
          318 738 199 -35 callsubr
          -301 345 rmoveto
          -95 callgsubr
          428 176 callgsubr
          -96 callgsubr
        </CharString>
        <CharString name="dvJ_DA_MatraU">
          429 849 138 callgsubr
          -727 81 callgsubr
          750 -44 callgsubr
          -32 -37 -19 -28 -35 hvcurveto
          -23 -37 -77 -62 -105 -34 -41 8 -24 -45 callgsubr
          12 -5 15 -9 14 vhcurveto
          -1 12 287 callgsubr
          37 41 9 14 37 hvcurveto
          -30 -46 -20 -47 -33 vvcurveto
          208 callgsubr
          vhcurveto
          -97 callsubr
        </CharString>
        <CharString name="dvJ_DA_MatraUU">
          429 849 199 -35 callsubr
          -472 816 -104 callsubr
          750 -44 callgsubr
          -32 -37 -19 -28 -35 hvcurveto
          -23 -37 -77 -62 -105 -34 -41 8 -24 -45 callgsubr
          12 -5 15 -9 14 vhcurveto
          -1 12 287 callgsubr
          37 41 9 14 37 hvcurveto
          -30 -46 -20 -47 -33 vvcurveto
          208 callgsubr
          vhcurveto
          -96 callgsubr
        </CharString>
        <CharString name="dvK_DA_MatraU">
          445 846 435 rmoveto
          253 callsubr
          -41 -47 -29 -42 -43 hvcurveto
          -45 -33 -86 -53 -93 -46 17 75 rcurveline
          -20 callgsubr
          392 11 callsubr
          -730 179 callsubr
          749 2 82 callsubr
          -760 437 -86 callsubr
          62 72 20 29 72 hvcurveto
          -16 -67 304 callsubr
          83 95 22 vhcurveto
          52 25 50 27 46 27 rrcurveto
          -21 -37 -13 -36 -27 vvcurveto
          208 callgsubr
          vhcurveto
          -97 callsubr
        </CharString>
        <CharString name="dvK_DA_MatraUU">
          445 846 435 rmoveto
          253 callsubr
          -41 -47 -29 -42 -43 hvcurveto
          -45 -33 -86 -53 -93 -46 17 75 rcurveline
          -20 callgsubr
          392 11 callsubr
          -730 179 callsubr
          749 2 -35 callsubr
          -505 816 -86 callsubr
          62 72 20 29 72 hvcurveto
          -16 -67 304 callsubr
          83 95 22 vhcurveto
          52 25 50 27 46 27 rrcurveto
          -21 -37 -13 -36 -27 vvcurveto
          208 callgsubr
          vhcurveto
          -96 callgsubr
        </CharString>
        <CharString name="dvL_DA_MatraU">
          405 825 138 callgsubr
          -717 81 callgsubr
          740 -44 callgsubr
          -45 -53 -36 -48 -46 hvcurveto
          -57 -18 -92 -39 -60 -35 rrcurveto
          3 14 2 15 16 -101 callgsubr
          1 hlineto
          61 callsubr
          12 6 13 5 12 6 rrcurveto
          -30 -47 -20 -47 -33 vvcurveto
          208 callgsubr
          vhcurveto
          -97 callsubr
        </CharString>
        <CharString name="dvL_DA_MatraUU">
          405 825 199 -35 callsubr
          -462 816 -104 callsubr
          740 -44 callgsubr
          -45 -53 -36 -48 -46 hvcurveto
          -57 -18 -92 -39 -60 -35 rrcurveto
          3 14 2 15 16 -101 callgsubr
          1 hlineto
          61 callsubr
          12 6 13 5 12 6 rrcurveto
          -30 -47 -20 -47 -33 vvcurveto
          208 callgsubr
          vhcurveto
          -96 callgsubr
        </CharString>
        <CharString name="dvM_DA_MatraU">
          350 751 150 callgsubr
          7 -35 -56 1 -59 12 callgsubr
          7 491 vlineto
          -23 -32 -19 -53 -60 vvcurveto
          -597 -302 rmoveto
          -32 -44 58 39 41 68 18 85 8 hvcurveto
          -91 -15 -24 -73 -38 hhcurveto
          616 58 82 callsubr
          -667 437 -76 callgsubr
          hhcurveto
          58 45 -3 -1 32 hvcurveto
          -34 -50 -23 -51 -36 vvcurveto
          208 callgsubr
          vhcurveto
          -97 callsubr
        </CharString>
        <CharString name="dvM_DA_MatraUU">
          350 751 150 callgsubr
          7 -35 -56 1 -59 12 callgsubr
          7 491 vlineto
          -23 -32 -19 -53 -60 vvcurveto
          -597 -302 rmoveto
          -32 -44 58 39 41 68 18 85 8 hvcurveto
          -91 -15 -24 -73 -38 hhcurveto
          616 58 -35 callsubr
          -412 816 -76 callgsubr
          hhcurveto
          58 45 -3 -1 32 hvcurveto
          -34 -50 -23 -51 -36 vvcurveto
          208 callgsubr
          vhcurveto
          -96 callgsubr
        </CharString>
        <CharString name="dvNG_GA">
          -1 472 371 -89 callsubr
          -426 -479 -4 callgsubr
        </CharString>
        <CharString name="dvNG_MA">
          -38 472 370 -89 callsubr
          -326 -365 rmoveto
          11 58 4 57 1 33 rrcurveto
          -13 28 33 -8 36 hhcurveto
          28 25 4 7 22 hvcurveto
          -12 -32 -12 -46 -11 -48 -36 -2 -65 -5 -28 -3 rrcurveto
          -134 -152 rmoveto
          -19 -21 37 22 24 44 13 56 8 hvcurveto
          -58 -14 -21 -46 -25 hhcurveto
          -43 781 -104 callsubr
          417 hlineto
          -8 -26 -4 -31 -31 callsubr
          -29 18 -31 31 -24 hvcurveto
          -2 -10 -1 -13 -16 vvcurveto
          -36 -5 -53 -9 -50 vhcurveto
          -91 -13 -65 -22 -42 vvcurveto
          -46 48 -63 40 50 32 71 80 19 vhcurveto
          53 6 58 3 39 6 3 1 rcurveline
          -18 -88 -13 -85 -17 221 callsubr
          14 75 31 103 3 37 rrcurveto
          28 20 16 27 31 57 callsubr
          236 -107 callgsubr
        </CharString>
        <CharString name="dvNY_CA">
          545 228 callgsubr
          923 hlineto
          -10 -51 -11 -54 -12 -56 rrcurveto
          -159 -53 -129 -76 -99 -50 callsubr
          60 56 0 -1 52 hvcurveto
          -36 -22 -31 -30 -20 -31 -28 -6 -48 -14 -33 -5 -38 -6 -32 -3 -23 -4 rrcurveto
          7 25 4 26 24 -29 callsubr
          105 76 72 84 36 vhcurveto
          6 hlineto
          48 85 12 16 57 hvcurveto
          -1 -6 -1 -7 -6 vvcurveto
          -61 38 -39 82 343 callgsubr
          vhcurveto
          327 callgsubr
          -98 -18 -19 callsubr
        </CharString>
        <CharString name="dvN_DA_MatraU">
          318 738 138 callgsubr
          -468 37 -73 callgsubr
          -202 6 callsubr
          693 -44 callgsubr
          -47 -56 -39 -52 -47 hvcurveto
          11 162 callsubr
          53 44 -2 34 hhcurveto
          -42 -55 -30 -62 -40 vvcurveto
          208 callgsubr
          vhcurveto
          -97 callsubr
        </CharString>
        <CharString name="dvN_DA_MatraUU">
          318 738 199 -35 callsubr
          -213 416 -73 callgsubr
          -202 6 callsubr
          693 -44 callgsubr
          -47 -56 -39 -52 -47 hvcurveto
          11 162 callsubr
          53 44 -2 34 hhcurveto
          -42 -55 -30 -62 -40 vvcurveto
          208 callgsubr
          vhcurveto
          -96 callgsubr
        </CharString>
        <CharString name="dvN_TA.aTRAD">
          88 353 140 rmoveto
          -24 -9 -21 -27 -33 -40 22 25 25 35 25 48 20 vhcurveto
          15 -16 11 -27 -29 vvcurveto
          -315 496 -104 callsubr
          518 hlineto
          -15 -77 -18 -83 -19 -89 rrcurveto
          22 -57 -56 23 -101 hhcurveto
          -136 -105 -47 -117 -84 82 -124 47 14 5 7 10 hvcurveto
          29 -94 41 115 vvcurveto
          80 81 42 121 73 55 -21 -18 58 vhcurveto
          -127 -13 -168 -59 -79 vvcurveto
          -51 64 -45 60 58 22 48 46 35 -14 30 -19 18 vhcurveto
          39 13 42 9 38 6 rrcurveto
          -23 -107 -24 -93 85 callsubr
          108 -107 callgsubr
        </CharString>
        <CharString name="dvSHA_MatraVocalicR">
          252 325 532 rmoveto
          63 53 41 53 42 21 -22 -33 -55 -36 -54 -55 -44 vhcurveto
          -47 28 -31 36 40 vvcurveto
          335 104 -104 callsubr
          52 hlineto
          -13 -71 -17 -75 -17 -80 -73 1 -79 16 -64 27 rrcurveto
          56 49 37 62 66 vvcurveto
          69 -47 34 -65 -92 -62 -70 -77 -58 34 -46 50 -36 vhcurveto
          -36 -61 -75 -23 -74 -22 -25 6 -15 hhcurveto
          -12 -5 -4 -10 -24 39 -16 41 87 93 31 49 74 hvcurveto
          74 -38 95 -21 80 -5 -22 -102 -25 -100 -9 -46 rrcurveto
          -82 -16 -118 -100 -76 vvcurveto
          -62 63 -34 250 callsubr
          -67 -36 19 31 54 106 88 70 hvcurveto
          152 callsubr
          19 34 184 133 31 hvcurveto
          -103 callgsubr
          125 -107 callgsubr
        </CharString>
        <CharString name="dvSH_VA.aSimp">
          383 315 454 -94 callgsubr
          507 -216 -70 callsubr
          -45 514 rmoveto
          -37 -10 -9 -15 -15 10 -9 37 hvcurveto
          354 127 callsubr
        </CharString>
        <CharString name="dvS_DA_MatraU">
          377 778 150 callgsubr
          -43 -6 -62 -16 -109 135 callsubr
          442 11 callsubr
          19 -244 82 callsubr
          -689 437 -100 callgsubr
          82 1 102 7 72 15 rrcurveto
          -28 -44 -18 -44 -32 vvcurveto
          208 callgsubr
          vhcurveto
          -97 callsubr
        </CharString>
        <CharString name="dvS_DA_MatraUU">
          377 778 150 callgsubr
          -43 -6 -62 -16 -109 135 callsubr
          442 11 callsubr
          19 -244 -35 callsubr
          -434 816 -100 callgsubr
          82 1 102 7 72 15 rrcurveto
          -28 -44 -18 -44 -32 vvcurveto
          208 callgsubr
          vhcurveto
          -96 callgsubr
        </CharString>
        <CharString name="dvTTH_TTHA">
          42 473 313 207 callsubr
          -130 -432 207 callsubr
          -335 755 -104 callsubr
          430 hlineto
          -26 -40 -15 -50 -2 -43 rrcurveto
          1 -4 -4 0 -4 hhcurveto
          252 callgsubr
          27 28 4 7 28 hvcurveto
          -1 -18 -5 -23 -14 -30 -7 -15 -7 -12 -5 -9 rrcurveto
          -8 hlineto
          252 callgsubr
          138 165 102 89 51 -39 57 -48 24 hvcurveto
          24 38 20 59 3 39 rrcurveto
          93 36 77 67 61 285 callgsubr
          106 -107 callgsubr
        </CharString>
        <CharString name="dvTT_GA">
          -20 68 -105 rmoveto
          -29 -22 37 22 23 14 12 50 18 22 -3 -5 23 hvcurveto
          -57 -22 -24 -29 -30 hhcurveto
          -37 741 -104 callsubr
          392 hlineto
          -15 -37 -11 -57 -39 vvcurveto
          -12 vlineto
          15 -20 -23 11 -19 292 callsubr
          -41 24 -31 49 -16 hvcurveto
          -5 -27 -5 -37 -10 -36 -2 -8 rcurveline
          6 -27 -26 4 -31 334 callgsubr
          46 -67 61 106 42 192 81 10 hvcurveto
          -1 14 15 -1 16 hhcurveto
          28 26 2 5 22 hvcurveto
          -43 -85 -39 -158 -83 103 callgsubr
          181 callsubr
          endchar
        </CharString>
        <CharString name="dvT_KH_NA">
          580 892 33 callgsubr
          -305 -387 rmoveto
          -33 -16 -28 -39 -29 -43 20 30 32 49 30 61 19 vhcurveto
          13 -22 4 -27 -21 vvcurveto
          -206 693 rmoveto
          -3 hlineto
          -3 306 callgsubr
          3 hlineto
          3 hlineto
          12 271 callsubr
          -86 -55 -108 -15 hvcurveto
          34 -13 -113 26 -110 31 callsubr
          41 34 -4 -4 28 vhcurveto
          4 -28 39 -22 40 -1 rrcurveto
          112 callgsubr
          86 -107 callgsubr
        </CharString>
        <CharString name="dvT_S_NA">
          621 1079 163 callgsubr
          -715 583 -104 callsubr
          440 hlineto
          -10 -9 -5 -8 -6 vvcurveto
          -13 22 -16 11 13 4 12 11 14 vhcurveto
          9 12 16 9 25 hhcurveto
          47 26 -26 -62 -99 -91 -97 -121 -31 -19 32 7 -26 hvcurveto
          16 -37 -60 8 -57 hhcurveto
          -114 -85 -35 -104 311 callgsubr
          hvcurveto
          155 callsubr
          11 -30 26 -56 30 -55 rrcurveto
          49 callgsubr
        </CharString>
        <CharString name="e">
          -100 267 446 36 callsubr
        </CharString>
        <CharString name="eacute">
          -75 236 278 -46 callsubr
          45 113 43 callsubr
        </CharString>
        <CharString name="ecaron">
          -75 236 278 -46 callsubr
          191 216 -54 callgsubr
          endchar
        </CharString>
        <CharString name="ecircumflex">
          -75 236 278 -46 callsubr
          124 178 -40 callsubr
          endchar
        </CharString>
        <CharString name="edieresis">
          -75 296 587 rmoveto
          247 callsubr
          -11 callsubr
          hvcurveto
          -60 -309 -46 callsubr
          113 191 286 callgsubr
        </CharString>
        <CharString name="edotaccent">
          -75 360 577 rmoveto
          8 10 9 5 26 -29 76 -21 -18 -21 -29 -20 -27 47 -40 24 hvcurveto
          -68 -131 36 callsubr
        </CharString>
        <CharString name="egrave">
          -75 335 580 rmoveto
          18 callsubr
          230 callgsubr
          rrcurveto
          69 -221 36 callsubr
        </CharString>
        <CharString name="eight">
          79 430 235 rmoveto
          -85 -116 -72 -79 -42 -28 30 30 53 87 70 96 75 vhcurveto
          47 -40 35 -36 -25 vvcurveto
          177 379 rmoveto
          62 -51 44 -86 -102 -138 -37 -27 -15 33 -22 18 vhcurveto
          33 82 43 84 hhcurveto
          52 13 -23 -20 -49 -95 -77 -101 -82 hvcurveto
          -68 56 -79 58 -61 54 rrcurveto
          13 -15 -9 9 -5 hhcurveto
          -8 -4 -15 -17 -42 110 -79 93 -74 hvcurveto
          -103 -85 -97 -86 -64 vvcurveto
          -64 75 -50 58 106 152 97 105 42 -42 50 -58 53 vhcurveto
          108 84 105 87 71 vvcurveto
          endchar
        </CharString>
        <CharString name="ellipsis">
          68 218 callsubr
          181 hmoveto
          -28 48 -50 29 9 11 10 5 27 -34 86 -22 -20 -21 -30 -20 vhcurveto
          181 hmoveto
          -28 48 -50 29 10 10 10 5 27 -34 325 callsubr
          -20 vhcurveto
          endchar
        </CharString>
        <CharString name="emacron">
          -75 236 278 -46 callsubr
          155 139 140 callsubr
        </CharString>
        <CharString name="emdash">
          360 795 357 rmoveto
          -437 -279 -38 -31 -16 16 -19 16 hvcurveto
          43 5 107 22 109 9 rrcurveto
          266 21 224 -6 30 vvcurveto
          13 -21 10 -44 vhcurveto
          endchar
        </CharString>
        <CharString name="endash">
          74 554 341 rmoveto
          13 -18 8 -36 vhcurveto
          -182 -4 -239 -49 1 -26 rrcurveto
          -16 18 -15 16 1 vhcurveto
          43 5 93 22 97 14 102 14 106 14 -1 19 rrcurveto
          endchar
        </CharString>
        <CharString name="eogonek">
          -75 292 446 rmoveto
          168 callsubr
          -30 -40 5 9 -37 hvcurveto
          83 37 64 71 62 hhcurveto
          -44 -215 rmoveto
          169 callgsubr
          -120 -126 -187 -142 -95 76 -61 90 20 22 4 7 21 hvcurveto
          -41 -35 -44 -49 -47 -19 callgsubr
          300 callsubr
          -3 2 -3 2 -4 1 rrcurveto
          29 15 20 18 11 vvcurveto
          10 -6 6 -12 vhcurveto
          -28 -48 -38 -84 hhcurveto
          -56 -43 32 50 30 6 32 10 32 hvcurveto
          -11 44 45 -8 47 hhcurveto
          endchar
        </CharString>
        <CharString name="equal">
          80 584 466 rmoveto
          15 -28 7 -32 1 vhcurveto
          -44 1 -398 -31 -1 -29 rrcurveto
          -12 13 -24 15 25 204 20 12 77 vhcurveto
          143 23 26 1 16 vvcurveto
          -25 -194 rmoveto
          13 -22 8 -34 1 vhcurveto
          -41 -407 -35 -27 -11 13 -24 14 -1 hvcurveto
          28 150 13 12 75 hvcurveto
          202 32 21 2 1 17 rrcurveto
          endchar
        </CharString>
        <CharString name="eth">
          246 callgsubr
          312 563 rmoveto
          8 -8 5 -13 -13 -23 -11 -23 -54 vhcurveto
          55 -33 -44 36 -51 hhcurveto
          282 callgsubr
          12 -10 11 -14 10 -16 rrcurveto
          -62 -25 -44 -18 -20 vvcurveto
          -9 10 -6 10 13 46 16 20 48 vhcurveto
          14 -33 10 -41 4 -48 256 callgsubr
          65 -13 64 -23 54 hvcurveto
          50 23 42 25 12 vvcurveto
          endchar
        </CharString>
        <CharString name="exclam">
          -215 258 766 rmoveto
          15 -45 23 -13 -1 vhcurveto
          -6 -2 -8 -16 -168 -31 -198 -32 -139 hvcurveto
          -22 -5 16 -18 13 hhcurveto
          31 74 412 120 hvcurveto
          -114 -757 rmoveto
          27 -34 86 -22 -18 -22 -30 -20 -28 48 -49 29 9 10 9 5 vhcurveto
          endchar
        </CharString>
        <CharString name="exclamdown">
          -213 79 -13 rmoveto
          -15 45 -23 13 1 vhcurveto
          6 2 8 16 168 31 198 32 139 hvcurveto
          22 5 -16 18 -13 hhcurveto
          -31 -74 -412 -120 hvcurveto
          114 757 rmoveto
          -27 34 -86 22 18 22 30 20 28 -48 49 -29 -9 -10 -9 -5 vhcurveto
          endchar
        </CharString>
        <CharString name="f">
          -185 214 417 rmoveto
          99 19 23 4 17 vvcurveto
          13 -21 9 -32 -14 -22 -1 -4 -30 vhcurveto
          21 84 rlineto
          98 25 16 70 53 60 -6 -101 32 hhcurveto
          7 9 7 34 47 -32 67 337 callsubr
          -44 -10 -43 -23 -5 -25 -5 -28 -7 rrcurveto
          -23 -6 -14 -7 -10 vvcurveto
          -13 21 -17 16 14 18 3 6 30 vhcurveto
          -30 -126 -32 -123 -29 -94 rrcurveto
          -22 -6 22 -24 12 hhcurveto
          26 54 219 183 45 hvcurveto
          endchar
        </CharString>
        <CharString name="fi">
          5 268 558 rmoveto
          98 25 16 70 53 60 46 -118 32 hhcurveto
          7 8 -2 34 48 -83 92 337 callsubr
          -42 -10 -43 -29 -5 -27 -6 -24 -6 rrcurveto
          -21 -5 -12 -7 -9 vvcurveto
          -13 20 -18 17 10 23 4 5 29 vhcurveto
          -30 -127 -32 -124 -29 -95 rrcurveto
          -22 -6 22 -24 12 hhcurveto
          26 55 220 184 44 hvcurveto
          16 3 16 2 16 3 64 10 71 12 29 1 rrcurveto
          -1 -8 -103 -371 -6 vvcurveto
          -26 -5 13 -20 16 hhcurveto
          10 12 14 42 12 hvcurveto
          8 26 94 328 7 vvcurveto
          44 10 -22 21 -42 hhcurveto
          -15 -91 -9 -14 -93 hvcurveto
          endchar
        </CharString>
        <CharString name="five">
          24 598 680 rmoveto
          21 -53 2 -74 -70 -81 -12 -11 -29 vhcurveto
          -31 -9 -84 -118 -57 -120 218 -40 -102 vvcurveto
          -71 -110 -84 -71 vhcurveto
          -68 -73 99 -9 hhcurveto
          -8 -4 -9 -10 -46 76 -87 93 113 122 114 106 hvcurveto
          100 -215 71 75 vvcurveto
          29 53 102 30 6 vhcurveto
          50 11 225 19 21 vvcurveto
          endchar
        </CharString>
        <CharString name="fl">
          29 266 580 rmoveto
          93 21 15 53 38 43 -10 -55 27 hhcurveto
          8 7 5 30 38 -27 36 -46 -63 -46 -45 -113 -22 hvcurveto
          -10 -49 -11 -53 -12 -55 -63 -10 rcurveline
          -26 -3 -16 -9 -11 vvcurveto
          -11 20 -19 17 vhcurveto
          14 -1 16 2 26 4 -28 -123 -31 -124 -31 -97 rrcurveto
          -26 -8 22 -24 14 hhcurveto
          10 11 24 40 14 hvcurveto
          28 80 34 138 29 124 9 2 rcurveline
          110 22 44 18 56 41 -17 -104 -28 -136 -51 -192 rrcurveto
          -25 -8 19 -28 18 hhcurveto
          8 9 20 61 20 hvcurveto
          64 230 47 230 1 163 rrcurveto
          33 1 -32 26 -14 hhcurveto
          -12 -1 -9 -28 -23 -2 -35 -4 -55 hvcurveto
          -7 -98 -97 -33 -120 -23 rrcurveto
          endchar
        </CharString>
        <CharString name="florin">
          -136 176 383 rmoveto
          -393 -86 -15 -34 -33 -31 -16 37 -11 hhcurveto
          -8 -6 -9 -15 -33 36 -35 30 78 36 35 419 88 hvcurveto
          12 56 rlineto
          1 hlineto
          103 19 23 6 17 vvcurveto
          13 -20 8 -32 -14 -23 -2 -2 -25 vhcurveto
          202 45 24 50 44 61 -6 -97 32 hhcurveto
          7 8 7 34 47 -31 67 -76 -85 -33 -58 -262 -60 hvcurveto
          -59 -10 -55 -15 -16 vvcurveto
          -13 21 -20 16 14 18 4 6 31 vhcurveto
          endchar
        </CharString>
        <CharString name="four">
          25 454 507 rmoveto
          -11 -6 -10 -23 -60 -5 -55 -7 -48 hvcurveto
          -16 -47 -91 -35 -64 hhcurveto
          -46 -29 20 56 hvcurveto
          135 225 181 33 vvcurveto
          17 -13 5 -18 -37 -219 -238 -138 -83 65 -42 70 61 82 27 27 52 vhcurveto
          -25 -129 -40 -80 -33 vvcurveto
          -18 5 -8 9 43 90 322 143 26 -32 24 -12 vhcurveto
          endchar
        </CharString>
        <CharString name="fraction">
          161 callgsubr
        </CharString>
        <CharString name="g">
          -58 138 76 134 callsubr
          248 rmoveto
          1 7 0 8 -1 10 rrcurveto
          58 callsubr
          rrcurveto
          endchar
        </CharString>
        <CharString name="gbreve">
          -58 138 76 134 callsubr
          273 rmoveto
          58 callsubr
          1 7 0 8 -1 10 rrcurveto
          82 333 113 callsubr
        </CharString>
        <CharString name="germandbls">
          48 366 371 rmoveto
          25 140 14 122 vvcurveto
          85 -73 86 -75 -103 -71 -69 -112 -21 vhcurveto
          -59 -311 -44 -99 -54 vvcurveto
          -20 15 -21 15 25 48 181 312 62 vhcurveto
          82 17 51 52 56 hhcurveto
          41 55 -49 -66 hvcurveto
          -86 -142 -20 -44 -72 147 -42 -85 vvcurveto
          -63 -75 -44 -61 vhcurveto
          -20 -21 2 -13 hhcurveto
          -14 -8 -2 -13 -21 27 -20 52 87 106 49 112 hvcurveto
          106 -144 63 22 vvcurveto
          endchar
        </CharString>
        <CharString name="grave">
          -85 815 rmoveto
          230 callgsubr
          112 -87 rcurveline
          18 callsubr
          rrcurveto
          endchar
        </CharString>
        <CharString name="greater">
          2 156 508 rmoveto
          -12 -10 -2 -8 -10 22 -32 26 -7 hvcurveto
          59 -17 159 -76 -35 -20 -318 -133 -34 vvcurveto
          -7 5 -5 16 26 52 14 58 113 vhcurveto
          86 43 93 39 34 vvcurveto
          14 -13 26 -14 14 vhcurveto
          -64 61 -145 82 -81 1 rrcurveto
          endchar
        </CharString>
        <CharString name="greaterequal">
          6 162 552 rmoveto
          -12 -10 -2 -8 -10 19 -31 24 -5 hvcurveto
          59 -14 170 -50 -35 -30 -324 -102 -33 vvcurveto
          -7 7 -4 16 35 67 22 35 84 vhcurveto
          86 35 91 43 5 27 2 13 -12 28 -15 14 -57 51 -145 62 -90 1 rrcurveto
          -102 -461 rmoveto
          -10 17 -7 23 70 279 83 23 15 -14 16 -12 -17 -49 -20 -33 -105 vhcurveto
          -114 -36 -78 -14 -17 vvcurveto
          endchar
        </CharString>
        <CharString name="guillemotleft">
          253 409 495 rmoveto
          -57 -207 -86 -46 -59 hvcurveto
          -14 -11 -22 -29 -19 vvcurveto
          -45 276 -119 47 21 9 4 12 vhcurveto
          27 -282 95 33 vvcurveto
          34 191 71 99 31 vhcurveto
          20 6 18 3 15 vvcurveto
          9 -12 15 -28 vhcurveto
          310 -21 rmoveto
          -58 -226 -66 -45 -59 hvcurveto
          -15 -11 -22 -28 -18 vvcurveto
          -47 274 -101 63 20 9 4 11 vhcurveto
          28 -295 78 31 vvcurveto
          34 207 53 104 28 323 callsubr
          -12 16 -28 vhcurveto
          endchar
        </CharString>
        <CharString name="guillemotright">
          304 160 474 rmoveto
          -14 -19 -22 -9 -9 21 -7 24 -6 hvcurveto
          66 -16 148 -48 -34 -32 -305 -102 -30 vvcurveto
          -7 7 -4 15 64 288 120 48 74 -231 83 -64 1 vhcurveto
          287 21 rmoveto
          -14 -17 -21 -9 -9 20 -7 24 -7 hvcurveto
          66 -18 144 -71 -34 -22 -303 -120 -29 vvcurveto
          -6 5 -4 16 63 232 108 37 41 vhcurveto
          7 317 callsubr
        </CharString>
        <CharString name="guilsinglleft">
          32 423 495 rmoveto
          -57 -208 -86 -46 -59 hvcurveto
          -14 -11 -21 -29 -19 vvcurveto
          -45 275 -119 47 21 9 4 12 vhcurveto
          27 -281 95 33 vvcurveto
          34 191 71 99 31 323 callsubr
          -13 15 -27 vhcurveto
          endchar
        </CharString>
        <CharString name="guilsinglright">
          55 202 495 rmoveto
          -14 -18 -21 -9 -9 21 -7 24 -7 hvcurveto
          65 -18 145 -71 -34 -22 -304 -120 -29 vvcurveto
          -6 6 -4 16 63 232 108 37 40 vhcurveto
          8 317 callsubr
        </CharString>
        <CharString name="h">
          -7 168 782 rmoveto
          -17 -3 -8 -29 -44 -1 -112 -41 -203 hvcurveto
          -20 -96 -27 -110 -32 -115 rrcurveto
          -21 -5 26 -27 14 hhcurveto
          10 45 83 86 57 hvcurveto
          144 96 61 100 47 hhcurveto
          14 25 -21 -32 -32 -13 -51 -16 -56 hvcurveto
          -29 -94 -34 -72 -35 vvcurveto
          -13 5 -7 11 32 36 96 116 36 vhcurveto
          20 60 11 53 41 vvcurveto
          57 -58 62 -29 -60 -73 -81 -285 -163 vhcurveto
          91 257 26 247 74 vvcurveto
          32 -24 36 -18 vhcurveto
          endchar
        </CharString>
        <CharString name="hungarumlaut">
          57 858 -1 callgsubr
          endchar
        </CharString>
        <CharString name="hyphen">
          -109 226 callgsubr
        </CharString>
        <CharString name="i">
          -303 163 502 rmoveto
          -18 -6 -31 -207 -50 hvcurveto
          -14 -59 -23 -70 -20 -74 rrcurveto
          -24 -6 13 -20 16 hhcurveto
          10 15 14 42 14 hvcurveto
          72 227 30 132 30 vvcurveto
          18 -19 22 -14 vhcurveto
          103 103 347 callsubr
          42 -42 28 8 9 8 9 vhcurveto
          endchar
        </CharString>
        <CharString name="iacute">
          -269 302 730 -63 callsubr
          -105 -268 116 callgsubr
        </CharString>
        <CharString name="icircumflex">
          -269 271 185 callgsubr
          -74 -218 116 callgsubr
        </CharString>
        <CharString name="idieresis">
          -269 173 604 rmoveto
          28 -30 61 -19 328 callsubr
          vhcurveto
          136 hmoveto
          28 -30 61 -19 328 callsubr
          vhcurveto
          -112 -142 116 callgsubr
        </CharString>
        <CharString name="igrave">
          -269 197 462 -8 callgsubr
          -111 257 rmoveto
          230 callgsubr
          112 -87 rcurveline
          18 callsubr
          rrcurveto
          endchar
        </CharString>
        <CharString name="imacron">
          -269 197 462 -8 callgsubr
          9 131 rmoveto
          28 callgsubr
          270 callsubr
          vhcurveto
          endchar
        </CharString>
        <CharString name="infinity">
          188 503 149 rmoveto
          -54 -38 41 56 -34 hvcurveto
          79 91 86 80 41 hhcurveto
          23 18 -20 -34 -93 -59 -109 -74 hvcurveto
          -366 7 rmoveto
          -35 -13 22 22 39 46 153 78 70 12 -94 -36 23 hvcurveto
          -58 -69 -66 -48 -46 hhcurveto
          460 312 rmoveto
          -51 -97 -92 -85 -97 hvcurveto
          61 -7 -40 101 -93 hhcurveto
          -109 -76 -169 -85 -63 58 -38 54 52 75 55 63 76 hvcurveto
          -69 39 52 -55 82 hhcurveto
          87 95 118 140 70 -50 48 -50 hvcurveto
          endchar
        </CharString>
        <CharString name="integral">
          -81 467 708 rmoveto
          33 -36 35 -30 -85 -23 -33 -397 -87 vhcurveto
          -359 -80 -13 -31 -32 -29 -15 37 -12 hhcurveto
          -8 -6 -9 -15 -33 36 -35 30 86 23 37 395 86 hvcurveto
          360 79 16 29 29 31 14 -38 12 hhcurveto
          8 6 9 15 hvcurveto
          endchar
        </CharString>
        <CharString name="iogonek">
          -269 197 462 -8 callgsubr
          -147 -521 rmoveto
          300 callsubr
          -10 9 -23 -3 -15 -11 56 callsubr
          endchar
        </CharString>
        <CharString name="itfLogo">
          1119 147 hmoveto
          220 callsubr
          236 -634 rmoveto
          220 callsubr
          236 -634 rmoveto
          220 callsubr
          -410 vmoveto
          196 185 -196 hlineto
          endchar
        </CharString>
        <CharString name="itfStar">
          143 663 452 rmoveto
          -28 -200 -6 -2 -34 hvcurveto
          -66 246 -8 -27 -53 -188 -8 -31 rlinecurve
          -261 8 25 -15 168 -108 28 -17 rlinecurve
          -96 -247 24 20 152 128 29 20 rlinecurve
          204 -168 -11 28 -71 189 -12 30 rlinecurve
          endchar
        </CharString>
        <CharString name="j">
          -278 271 605 347 callsubr
          43 -42 28 7 9 8 9 vhcurveto
          -127 -139 rmoveto
          -459 -118 -7 -197 -80 hhcurveto
          -28 -23 19 24 -20 hvcurveto
          24 -21 -17 26 -11 hhcurveto
          -8 -11 -21 -10 -33 70 -78 70 68 34 51 91 23 hvcurveto
          110 444 23 85 -1 31 rrcurveto
          20 -22 20 -12 -1 vhcurveto
          -6 -6 -12 -24 -7 hvcurveto
          endchar
        </CharString>
        <CharString name="k">
          -73 411 502 104 callgsubr
        </CharString>
        <CharString name="l">
          -296 108 136 34 callgsubr
          endchar
        </CharString>
        <CharString name="lacute">
          -295 326 977 -63 callsubr
          -220 -841 34 callgsubr
          endchar
        </CharString>
        <CharString name="lcaron">
          -110 106 136 34 callgsubr
          158 437 rmoveto
          29 97 52 77 41 -34 24 -32 283 callsubr
          vhcurveto
          endchar
        </CharString>
        <CharString name="less">
          45 521 508 rmoveto
          -63 -242 -99 -48 -61 hvcurveto
          -15 -12 -21 -31 -19 vvcurveto
          -48 291 -126 63 21 10 4 11 vhcurveto
          29 -307 105 33 vvcurveto
          35 228 82 97 32 323 callsubr
          -10 19 -29 vhcurveto
          endchar
        </CharString>
        <CharString name="lessequal">
          16 468 552 rmoveto
          -64 -235 -68 -47 -62 hvcurveto
          -15 -12 -21 -29 -19 vvcurveto
          -48 291 -98 62 22 10 4 12 vhcurveto
          29 -310 79 29 vvcurveto
          34 220 52 104 30 vhcurveto
          19 5 18 5 15 vvcurveto
          8 -10 19 -29 vhcurveto
          -33 -454 rmoveto
          17 -94 14 -108 29 vhcurveto
          29 -107 -48 24 -16 hhcurveto
          -12 -15 -16 -15 -23 235 -76 125 22 18 6 11 hvcurveto
          endchar
        </CharString>
        <CharString name="logicalnot">
          -33 399 410 rmoveto
          28 22 -9 -21 hvcurveto
          -108 -117 -145 -28 vvcurveto
          -9 7 -4 8 43 124 204 83 41 -15 32 -29 10 vhcurveto
          10 -30 -77 0 -119 -147 -83 6 -19 hhcurveto
          -10 -5 -4 -12 -22 45 -24 56 hvcurveto
          endchar
        </CharString>
        <CharString name="lozenge">
          -107 275 562 rmoveto
          -26 -121 -176 -59 -22 52 -116 27 -69 hvcurveto
          -13 5 33 -4 11 hhcurveto
          27 120 173 74 12 -11 15 -21 50 hvcurveto
          -28 70 -5 28 -14 20 rrcurveto
          13 -9 -29 4 -11 hhcurveto
          83 -216 rmoveto
          -23 -65 -40 -74 -55 -57 -15 41 -34 87 -17 40 17 52 38 74 58 57 16 -41 28 -70 27 -44 rrcurveto
          endchar
        </CharString>
        <CharString name="lslash">
          -178 238 446 rmoveto
          19 103 11 93 78 vvcurveto
          31 -34 31 -12 -13 0 -8 -26 1 vhcurveto
          1 -64 -9 -98 -30 -159 -80 -24 -56 -22 4 -15 4 -14 32 -18 25 8 14 4 18 7 26 11 -17 -84 -23 -99 -29 -116 rrcurveto
          -21 -4 23 -27 13 hhcurveto
          10 14 45 74 22 hvcurveto
          23 89 21 86 16 81 114 43 28 12 -4 15 -4 12 -10 3 -46 -12 rrcurveto
          endchar
        </CharString>
        <CharString name="m">
          254 667 502 rmoveto
          -55 -58 -54 -188 -105 hvcurveto
          14 48 7 43 33 vvcurveto
          59 -57 59 -28 -65 -68 -91 -279 -159 vhcurveto
          42 120 30 128 65 vvcurveto
          30 -25 28 -17 -33 36 -85 -177 -51 vhcurveto
          -20 -70 -15 -58 -13 -49 rrcurveto
          -20 -5 26 -27 14 hhcurveto
          11 47 87 83 56 hvcurveto
          154 102 53 94 44 hhcurveto
          15 25 -22 -34 hvcurveto
          -151 -91 -139 -42 vvcurveto
          -13 16 -17 10 22 57 129 39 26 vhcurveto
          154 100 55 96 44 hhcurveto
          14 12 -20 -49 hvcurveto
          -158 -79 -115 -56 vvcurveto
          -13 5 -7 11 49 71 241 112 87 -40 45 -30 vhcurveto
          endchar
        </CharString>
        <CharString name="macron">
          35 593 rmoveto
          28 callgsubr
          270 callsubr
          vhcurveto
          endchar
        </CharString>
        <CharString name="minus">
          71 105 287 rmoveto
          201 281 35 34 13 -18 6 -24 -48 -80 -14 -8 -109 hvcurveto
          -8 -116 -98 6 337 callgsubr
          endchar
        </CharString>
        <CharString name="multiply">
          -12 305 325 rmoveto
          73 69 129 108 13 vvcurveto
          12 -22 14 -17 -31 -60 -68 -108 -107 vhcurveto
          -48 64 -41 58 24 vvcurveto
          19 -35 11 -22 -14 -3 -6 -10 -23 56 -90 66 -88 vhcurveto
          -95 -91 -81 -48 -18 vvcurveto
          -12 22 -16 16 20 76 73 71 74 vhcurveto
          -78 62 63 -66 29 hhcurveto
          10 11 5 8 11 -67 79 -66 82 hvcurveto
          endchar
        </CharString>
        <CharString name="n">
          -8 386 502 -49 callgsubr
        </CharString>
        <CharString name="nacute">
          -8 489 672 154 callsubr
          44 -77 -49 callgsubr
        </CharString>
        <CharString name="ncaron">
          -8 332 557 117 callsubr
          84 -55 -49 callgsubr
        </CharString>
        <CharString name="nine">
          -51 195 342 rmoveto
          -36 -32 21 41 78 110 168 99 34 16 -21 -31 hvcurveto
          -23 -12 -24 -19 vvcurveto
          -9 7 -6 11 -1 vhcurveto
          -59 -39 -63 -115 -95 hhcurveto
          236 211 rmoveto
          6 15 3 18 18 vvcurveto
          55 -39 51 -64 -128 -138 -186 -113 -71 51 -53 70 57 64 45 54 48 vhcurveto
          -37 -109 -39 -135 -79 vvcurveto
          -32 9 -22 19 24 1 144 168 55 vhcurveto
          20 62 37 83 4 28 6 35 -9 23 -20 1 rrcurveto
          endchar
        </CharString>
        <CharString name="notequal">
          69 415 426 rmoveto
          143 23 26 1 16 vvcurveto
          15 -28 7 -32 1 vhcurveto
          -13 -43 -2 -5 -55 hvcurveto
          10 24 12 24 11 24 rrcurveto
          10 24 6 20 13 vvcurveto
          14 -6 5 -11 -17 -35 -54 -99 -47 vhcurveto
          -123 -12 -141 -18 -1 -17 rrcurveto
          -12 13 -24 15 17 104 10 10 88 vhcurveto
          -6 -16 -7 -15 -7 -17 -14 -34 -13 -30 -12 -28 rrcurveto
          -105 -12 -99 -15 -13 vvcurveto
          -11 13 -24 14 -1 vhcurveto
          17 67 5 6 65 hvcurveto
          -29 -68 -19 -44 -19 vvcurveto
          -10 7 -11 13 16 31 61 98 44 vhcurveto
          15 2 14 2 12 2 202 31 22 1 1 17 rrcurveto
          14 -23 7 -34 2 vhcurveto
          -16 -78 -6 -8 -87 hvcurveto
          19 43 21 48 23 51 rrcurveto
          endchar
        </CharString>
        <CharString name="ntilde">
          -8 227 570 rmoveto
          39 callgsubr
          229 callgsubr
          hvcurveto
          189 -68 -49 callgsubr
        </CharString>
        <CharString name="numbersign">
          60 280 476 rmoveto
          58 7 48 7 40 5 -15 -71 -20 -87 -25 -102 -51 -4 -57 -5 -51 -7 24 92 22 88 16 76 rrcurveto
          -167 -436 rmoveto
          -25 -4 19 -24 13 hhcurveto
          11 9 29 72 23 hvcurveto
          17 65 29 4 133 17 -34 -141 rlineto
          -22 -4 17 -24 13 hhcurveto
          11 11 27 72 23 hvcurveto
          25 97 rlineto
          111 15 23 7 13 vvcurveto
          12 1 -14 10 -32 hhcurveto
          -14 -27 -1 -2 -34 hvcurveto
          25 96 23 92 15 76 rrcurveto
          97 14 21 7 11 vvcurveto
          13 1 -15 10 -31 hhcurveto
          -13 -22 -1 -1 -27 hvcurveto
          8 42 4 35 24 vvcurveto
          31 -35 28 -12 -13 0 -8 -26 1 vhcurveto
          -26 -6 -44 -12 -61 vhcurveto
          -48 -3 -56 -6 -51 -6 rrcurveto
          10 52 6 42 27 vvcurveto
          31 -35 28 -11 -14 0 -8 -26 1 vhcurveto
          1 -31 -8 -52 -15 -73 rrcurveto
          -61 -10 -45 -13 -14 vvcurveto
          -12 16 -20 13 -1 vhcurveto
          12 -1 20 4 32 5 -15 -71 -21 -86 -24 -99 rrcurveto
          -55 -10 -39 -12 -13 vvcurveto
          -12 16 -20 13 -1 vhcurveto
          10 -1 16 3 24 4 rrcurveto
          endchar
        </CharString>
        <CharString name="o">
          143 callgsubr
          endchar
        </CharString>
        <CharString name="oacute">
          -77 419 730 -63 callsubr
          -9 -393 -53 callsubr
          endchar
        </CharString>
        <CharString name="ocircumflex">
          -77 388 185 callgsubr
          22 -343 -53 callsubr
          endchar
        </CharString>
        <CharString name="odieresis">
          -77 290 604 rmoveto
          28 -30 61 -19 328 callsubr
          vhcurveto
          136 hmoveto
          28 -30 61 -19 328 callsubr
          vhcurveto
          -16 -267 -53 callsubr
          endchar
        </CharString>
        <CharString name="oe">
          377 236 278 -46 callsubr
          349 -435 rmoveto
          -39 14 -12 39 40 vvcurveto
          122 72 153 117 22 vhcurveto
          36 -17 21 -48 -51 vvcurveto
          -101 -77 -161 -118 -12 vhcurveto
          133 435 rmoveto
          -131 -113 -177 -150 -88 42 -70 68 139 116 168 152 84 -46 81 -75 hvcurveto
          endchar
        </CharString>
        <CharString name="ogonek">
          19 -29 rmoveto
          300 callsubr
          -10 9 -23 -3 -15 -11 56 callsubr
          endchar
        </CharString>
        <CharString name="ograve">
          143 callgsubr
          -92 262 rmoveto
          230 callgsubr
          112 -87 rcurveline
          18 callsubr
          rrcurveto
          endchar
        </CharString>
        <CharString name="ohungarumlaut">
          -77 344 762 -1 callgsubr
          -76 -417 -53 callsubr
          endchar
        </CharString>
        <CharString name="omacron">
          -77 322 593 rmoveto
          28 callgsubr
          270 callsubr
          vhcurveto
          88 -256 -53 callsubr
          endchar
        </CharString>
        <CharString name="one">
          -208 209 343 rmoveto
          29 114 13 106 6 84 3 25 -19 38 -24 2 -9 1 -9 -9 -2 -23 -36 -367 -73 -171 -7 -79 -4 -33 13 -24 15 -3 27 -3 31 164 46 178 rrcurveto
          endchar
        </CharString>
        <CharString name="onehalf">
          219 135 286 rmoveto
          16 -1 14 105 17 111 13 74 7 68 2 54 rrcurveto
          15 -28 23 -14 -6 -7 -5 -15 vhcurveto
          -10 -235 -36 -105 -3 -51 rrcurveto
          -21 24 -16 11 -1 vhcurveto
          406 451 rmoveto
          -9 2 -3 -7 -13 302 callsubr
          12 341 callsubr
          95 139 161 182 11 52 4 20 -18 35 -10 2 rrcurveto
          67 -678 rmoveto
          -28 -114 -21 -8 -59 hvcurveto
          135 90 104 91 115 vvcurveto
          60 -46 51 -65 -51 -70 -51 -26 -15 25 -9 10 vhcurveto
          16 30 49 46 hhcurveto
          31 18 -26 -37 -145 -236 -103 -1 -43 hvcurveto
          -27 32 -20 25 47 186 31 29 17 -18 -2 -17 vhcurveto
          endchar
        </CharString>
        <CharString name="onequarter">
          232 160 286 rmoveto
          17 -1 13 105 18 111 12 74 8 68 1 54 rrcurveto
          15 -27 23 -15 -5 -8 -5 -15 vhcurveto
          -9 -235 -37 -105 -3 -51 rrcurveto
          -21 25 -16 10 -1 vhcurveto
          407 451 rmoveto
          -10 2 -2 -7 -14 302 callsubr
          13 341 callsubr
          94 139 162 306 callsubr
          -10 336 callgsubr
          -48 305 callgsubr
          -15 14 -12 -26 -153 -190 -82 -54 35 -35 54 34 45 13 15 35 vhcurveto
          -17 -79 -25 -51 -21 vvcurveto
          -13 8 -14 12 32 62 211 94 19 -26 25 -10 vhcurveto
          endchar
        </CharString>
        <CharString name="onesuperior">
          -379 151 538 rmoveto
          10 56 7 55 42 vvcurveto
          11 1 -24 23 -11 hhcurveto
          -8 2 -5 -7 -15 vvcurveto
          -8 -182 -28 -83 -2 -40 rrcurveto
          -20 14 -13 11 -2 vhcurveto
          19 -2 11 87 13 88 rrcurveto
          endchar
        </CharString>
        <CharString name="ordfeminine">
          -89 342 690 rmoveto
          -106 -35 -65 -85 -63 hhcurveto
          -31 -15 20 30 80 74 124 78 35 22 -40 -20 hvcurveto
          -28 -168 rmoveto
          -40 14 -37 16 21 -8 32 56 3 vhcurveto
          6 74 18 44 27 vvcurveto
          4 vlineto
          2 8 2 9 8 vvcurveto
          27 -39 68 -66 -115 -88 -165 -89 -51 42 -52 57 47 52 38 52 36 vhcurveto
          endchar
        </CharString>
        <CharString name="ordmasculine">
          -77 385 646 rmoveto
          78 -38 81 -75 -105 -72 -109 -92 -73 40 -79 65 114 71 112 82 vhcurveto
          -236 -51 rmoveto
          72 34 72 90 22 vhcurveto
          42 -21 15 -40 -50 vvcurveto
          -79 -41 -62 -93 -13 vhcurveto
          -26 17 -21 38 44 vvcurveto
          endchar
        </CharString>
        <CharString name="oslash">
          -77 361 344 rmoveto
          -101 -83 -170 -121 -8 vhcurveto
          -16 5 -12 9 -9 13 43 51 71 86 124 143 rrcurveto
          2 -9 1 -10 -9 vvcurveto
          -259 -186 rmoveto
          122 80 160 117 17 vhcurveto
          14 -5 13 -11 10 -13 -29 -34 -35 -45 -46 -55 -47 -56 -43 -51 -34 -41 rrcurveto
          4 0 4 4 vvcurveto
          317 283 rmoveto
          29 33 6 8 8 vvcurveto
          9 -7 5 -8 -22 -20 -13 -23 -25 vhcurveto
          21 -19 -26 13 -30 hhcurveto
          -136 -116 -178 -149 -30 6 -28 9 -24 hvcurveto
          -21 -29 -13 -20 -8 vvcurveto
          -10 4 -9 16 9 8 6 28 23 vhcurveto
          -21 19 25 -13 28 hhcurveto
          139 121 169 151 30 -6 29 -10 25 hvcurveto
          endchar
        </CharString>
        <CharString name="otilde">
          143 callgsubr
          -10 238 rmoveto
          229 callgsubr
          39 callgsubr
          endchar
        </CharString>
        <CharString name="p">
          -83 101 188 rmoveto
          -1 vlineto
          139 56 120 120 55 hhcurveto
          31 13 -45 -56 -150 -169 -119 -102 -12 -10 1 2 -9 hvcurveto
          -11 -50 rmoveto
          -7 12 16 -4 23 hhcurveto
          122 203 166 159 81 -32 83 -65 -67 -74 -59 -104 -62 hvcurveto
          13 55 5 27 -1 11 rrcurveto
          36 -3 -28 31 -17 hhcurveto
          -15 -1 -9 -21 -1 hvcurveto
          -22 -267 -113 -349 -53 vvcurveto
          -19 18 -24 14 21 31 171 72 17 vhcurveto
          endchar
        </CharString>
        <CharString name="paragraph">
          -46 63 462 rmoveto
          -42 38 -50 52 31 30 14 21 28 vhcurveto
          -22 -102 -30 -123 -33 -127 rrcurveto
          -17 -3 23 -19 12 hhcurveto
          10 14 43 75 24 hvcurveto
          60 226 42 197 1 151 rrcurveto
          4 0 3 -1 3 vhcurveto
          47 8 27 4 16 5 -4 -104 -22 -191 -102 -388 rrcurveto
          -17 -4 24 -19 12 hhcurveto
          9 15 43 75 23 hvcurveto
          60 226 43 199 1 151 rrcurveto
          29 -26 28 -13 4 vhcurveto
          4 -9 -14 2 -16 hhcurveto
          -36 -107 -12 -20 -35 hvcurveto
          -93 -47 -72 -148 -89 vvcurveto
          endchar
        </CharString>
        <CharString name="parenleft">
          -40 146 262 rmoveto
          366 391 163 40 vvcurveto
          17 -20 20 -17 -51 -365 -228 -369 -263 231 -106 92 19 8 8 11 vhcurveto
          46 -288 24 271 vvcurveto
          endchar
        </CharString>
        <CharString name="parenright">
          -39 -6 -78 rmoveto
          43 371 242 383 3 hvcurveto
          183 2 -125 114 -68 hhcurveto
          -20 -22 -5 -21 hvcurveto
          -44 165 -25 -221 -346 -371 -212 -30 vvcurveto
          -13 0 -5 22 vhcurveto
          endchar
        </CharString>
        <CharString name="partialdiff">
          246 callgsubr
          73 633 rmoveto
          282 callgsubr
          39 -34 36 -71 7 -99 256 callgsubr
          157 -77 156 -106 hvcurveto
          endchar
        </CharString>
        <CharString name="percent">
          306 26 callgsubr
          endchar
        </CharString>
        <CharString name="period">
          -292 218 callsubr
          endchar
        </CharString>
        <CharString name="periodcentered">
          -292 68 328 227 callgsubr
          endchar
        </CharString>
        <CharString name="perthousand">
          608 26 callgsubr
          253 -327 rmoveto
          -34 -16 37 35 101 73 99 43 28 23 -42 -65 -82 -73 -83 -44 hvcurveto
          70 327 rmoveto
          -79 -99 -112 -152 -61 47 -59 52 82 102 110 120 93 -49 61 -56 hvcurveto
          endchar
        </CharString>
        <CharString name="pi">
          105 530 489 rmoveto
          102 5 21 5 1 18 1 18 -30 11 -45 1 rrcurveto
          -52 5 -461 -5 -46 vvcurveto
          -12 21 -21 15 12 37 2 3 50 vhcurveto
          -45 4 -72 -19 -91 vhcurveto
          -37 -175 -56 -11 -33 vvcurveto
          -20 16 -9 15 59 79 210 193 18 0 20 -3 18 vhcurveto
          64 3 74 4 67 3 -3 -6 -3 -8 -2 -7 rrcurveto
          -24 -73 -13 -93 -72 vvcurveto
          -132 36 -78 45 17 15 10 13 vhcurveto
          31 -55 13 143 vvcurveto
          157 39 48 7 57 vhcurveto
          endchar
        </CharString>
        <CharString name="plus">
          71 591 356 rmoveto
          13 -17 6 -25 -43 -68 -11 -8 -91 vhcurveto
          17 76 9 41 3 32 2 20 -37 36 -14 1 -8 1 -7 -8 -2 -21 -9 -76 -7 -59 -7 -48 rrcurveto
          -5 -105 -84 5 -17 hhcurveto
          -15 -11 -5 -13 -21 27 -25 27 53 59 2 5 58 hvcurveto
          -15 -101 -7 -26 -4 -44 -3 -30 16 -23 14 -1 19 -1 8 82 28 148 rrcurveto
          138 13 118 23 22 vvcurveto
          endchar
        </CharString>
        <CharString name="plusminus">
          71 302 132 rmoveto
          -6 -72 -99 0 -38 hhcurveto
          -11 -3 -7 -6 -13 20 -29 21 64 351 16 46 18 -51 -4 -182 -15 hvcurveto
          232 349 rmoveto
          -38 -60 -9 -7 -80 hvcurveto
          14 66 8 36 3 29 1 18 -35 33 -14 1 -8 1 -7 -8 -1 -20 -5 -59 -7 -54 -7 -47 rrcurveto
          -6 -95 -78 5 -15 hhcurveto
          -13 -12 -6 -13 -19 26 -26 26 48 53 2 4 51 hvcurveto
          -11 -68 -10 -52 -3 -33 rrcurveto
          -27 -2 17 -22 13 hhcurveto
          19 7 78 129 25 hvcurveto
          124 12 106 21 21 vvcurveto
          13 -15 7 -25 vhcurveto
          endchar
        </CharString>
        <CharString name="product">
          -30 325 714 rmoveto
          -112 -79 -10 -31 hvcurveto
          -119 -106 -444 -49 vvcurveto
          -21 21 -22 12 24 79 426 199 29 vhcurveto
          81 13 92 6 77 2 rrcurveto
          -7 -143 -99 -423 -37 vvcurveto
          -21 20 -22 13 37 96 620 8 65 -73 3 -105 vhcurveto
          endchar
        </CharString>
        <CharString name="q">
          -79 379 -98 rmoveto
          -21 -44 -19 -47 -67 hvcurveto
          98 282 60 138 40 vvcurveto
          12 -17 15 -19 -10 -4 -2 -12 -3 vhcurveto
          -40 -148 -122 -89 -77 4 rrcurveto
          -22 1 -24 25 26 vvcurveto
          100 145 216 93 vhcurveto
          41 17 -46 28 hhcurveto
          9 4 7 9 29 -50 59 -56 -126 -162 -239 -131 -54 58 -61 50 50 72 39 57 51 hvcurveto
          -86 -234 -18 -44 -25 vvcurveto
          -18 14 -31 17 15 56 51 38 72 vhcurveto
          28 16 12 11 -4 13 rrcurveto
          6 -2 -6 6 -10 hhcurveto
          endchar
        </CharString>
        <CharString name="question">
          -60 456 631 rmoveto
          94 -72 56 -82 -81 -71 -65 -70 -20 24 -34 12 12 14 5 5 3 vhcurveto
          7 15 -13 2 23 vvcurveto
          47 46 33 47 47 44 -35 -53 vhcurveto
          -118 -215 -114 -120 vvcurveto
          -24 7 -23 13 12 7 14 55 22 vhcurveto
          42 105 175 109 113 vvcurveto
          -343 -559 rmoveto
          -28 48 -49 29 9 10 9 5 27 -34 86 -22 -19 -21 -30 -20 vhcurveto
          endchar
        </CharString>
        <CharString name="questiondown">
          -158 -1 65 rmoveto
          -94 72 -56 82 81 71 65 70 20 -24 34 -12 -12 -14 -5 -5 -3 vhcurveto
          -7 -15 13 -2 -23 vvcurveto
          -47 -46 -33 -47 -47 -44 35 53 vhcurveto
          118 215 114 120 vvcurveto
          24 -7 23 -13 -12 -7 -14 -55 -22 vhcurveto
          -42 -105 -175 -109 -113 vvcurveto
          343 559 rmoveto
          28 -48 49 -29 -9 -10 -9 -5 -27 34 -86 22 19 21 30 20 vhcurveto
          endchar
        </CharString>
        <CharString name="quotedbl">
          -280 96 792 rmoveto
          13 -26 307 callgsubr
          13 20 20 177 49 vhcurveto
          147 hmoveto
          13 -25 307 callgsubr
          12 21 19 177 49 vhcurveto
          endchar
        </CharString>
        <CharString name="quotedblbase">
          71 -3 -150 101 callsubr
        </CharString>
        <CharString name="quotedblleft">
          -85 478 248 callgsubr
          -6 3 -12 vhcurveto
          -197 hmoveto
          -33 -116 -83 -92 -54 41 -30 40 22 22 15 21 hvcurveto
          35 -60 -18 55 73 102 38 28 vvcurveto
          9 -6 3 -12 vhcurveto
          endchar
        </CharString>
        <CharString name="quotedblright">
          -84 130 566 rmoveto
          32 116 186 callsubr
          197 hmoveto
          33 115 186 callsubr
          endchar
        </CharString>
        <CharString name="quoteleft">
          -282 267 248 callgsubr
          -5 3 -13 vhcurveto
          endchar
        </CharString>
        <CharString name="quoteright">
          -282 130 566 rmoveto
          32 116 186 callsubr
          endchar
        </CharString>
        <CharString name="quotesinglbase">
          -267 -3 -150 101 callsubr
        </CharString>
        <CharString name="quotesingle">
          -197 220 792 rmoveto
          13 -27 21 -11 -8 -3 -7 -13 vhcurveto
          -95 -20 -89 -22 vvcurveto
          -16 14 -18 13 vhcurveto
          20 -3 22 180 49 vvcurveto
          endchar
        </CharString>
        <CharString name="r">
          -215 295 492 20 callsubr
          endchar
        </CharString>
        <CharString name="racute">
          -203 309 492 20 callsubr
          -66 123 43 callsubr
        </CharString>
        <CharString name="radical">
          -82 304 -28 rmoveto
          -45 108 -3 105 -14 104 rrcurveto
          24 -4 -27 18 -17 hhcurveto
          -57 -1 -58 -90 -36 vvcurveto
          -9 6 -6 7 25 24 59 25 42 vhcurveto
          8 -109 35 -145 29 -74 rrcurveto
          -20 8 22 -22 18 hhcurveto
          40 43 104 194 82 hvcurveto
          79 187 113 200 32 vvcurveto
          12 -17 12 -12 -49 -174 -441 -231 -104 vhcurveto
          endchar
        </CharString>
        <CharString name="rcaron">
          -203 309 492 20 callsubr
          80 226 -54 callgsubr
          endchar
        </CharString>
        <CharString name="registered">
          238 357 367 rmoveto
          16 59 7 36 16 2 0 2 1 vvcurveto
          5 14 18 5 20 hhcurveto
          32 20 -8 -18 -51 -84 -26 -43 -23 hvcurveto
          171 97 rmoveto
          51 -51 22 -55 -38 -58 -16 -19 -6 5 -10 6 -6 vhcurveto
          -8 -72 -54 -157 -32 vvcurveto
          -13 15 -15 9 14 14 67 61 17 vhcurveto
          -49 31 94 -79 29 hhcurveto
          11 7 7 7 14 -31 21 -27 23 hvcurveto
          -31 26 -45 42 8 3 146 31 91 vvcurveto
          -200 -362 rmoveto
          -103 -75 66 121 209 183 119 144 96 77 -84 -119 -201 -126 -111 -196 hvcurveto
          123 558 rmoveto
          308 callgsubr
          307 callsubr
          hvcurveto
          endchar
        </CharString>
        <CharString name="ring">
          52 731 170 callsubr
          endchar
        </CharString>
        <CharString name="s">
          -125 387 412 20 callgsubr
          endchar
        </CharString>
        <CharString name="sacute">
          -125 372 730 -63 callsubr
          15 -318 20 callgsubr
          endchar
        </CharString>
        <CharString name="scaron">
          -125 408 109 callsubr
          -21 -306 20 callgsubr
          endchar
        </CharString>
        <CharString name="section">
          -100 201 182 rmoveto
          -45 41 -45 35 29 vvcurveto
          68 70 44 45 17 vhcurveto
          53 -43 57 -39 -46 vvcurveto
          -51 -45 -52 -90 -3 vhcurveto
          200 99 rmoveto
          108 -202 69 -1 82 vhcurveto
          51 -1 43 29 52 64 -20 -81 38 hhcurveto
          10 7 9 19 49 -31 63 -63 -88 -72 -62 -77 -32 20 -29 27 -27 hvcurveto
          -63 -24 -72 -59 -80 -97 179 -62 -83 vvcurveto
          -46 -12 -36 -77 -44 -21 20 21 -13 vhcurveto
          19 -12 -6 20 -13 hhcurveto
          -9 -11 -15 -18 -56 62 -49 72 91 58 63 71 36 -22 34 -29 31 hvcurveto
          88 14 71 53 72 vvcurveto
          endchar
        </CharString>
        <CharString name="semicolon">
          -223 131 446 rmoveto
          -28 48 -55 29 10 9 9 7 28 -33 92 -25 -17 -21 -32 -21 vhcurveto
          -139 -628 101 callsubr
        </CharString>
        <CharString name="seven">
          -74 448 693 rmoveto
          12 -16 -62 2 -33 hhcurveto
          -59 -172 -25 -7 -20 32 -34 19 hvcurveto
          51 102 27 62 hhcurveto
          29 14 -12 -11 -53 -316 -464 8 -49 hvcurveto
          -22 3 8 -17 10 hhcurveto
          21 72 153 154 92 hvcurveto
          63 106 71 102 29 74 6 22 -10 48 -24 14 rrcurveto
          endchar
        </CharString>
        <CharString name="six">
          35 207 76 rmoveto
          -45 -36 25 57 73 23 70 34 64 hvcurveto
          144 -16 88 -59 -57 vvcurveto
          -80 -122 -77 -86 vhcurveto
          -1 328 rmoveto
          96 154 148 110 18 vvcurveto
          10 -23 12 -18 -42 -301 -293 -247 -89 58 -58 78 129 148 108 109 65 -99 86 -174 15 vhcurveto
          endchar
        </CharString>
        <CharString name="slash">
          -137 56 -75 rmoveto
          13 14 34 329 137 hvcurveto
          65 156 122 210 53 vvcurveto
          21 -26 35 -10 -10 -1 -7 -22 -10 vhcurveto
          -242 -538 -82 -198 -37 vvcurveto
          -11 21 -25 9 vhcurveto
          endchar
        </CharString>
        <CharString name="space">
          -119 endchar
        </CharString>
        <CharString name="sterling">
          88 198 70 rmoveto
          -30 -40 46 24 25 18 13 24 25 25 -22 -28 29 hvcurveto
          -48 -24 -15 -10 -12 hhcurveto
          351 586 rmoveto
          -70 -61 -29 -242 -77 hvcurveto
          -51 1 -21 1 -24 -2 -13 -3 -18 -22 2 -13 2 -13 50 -4 55 -1 -19 -62 -17 -47 -14 -37 rrcurveto
          27 -31 -35 21 -43 hhcurveto
          -52 -45 -34 -54 -59 80 -67 49 37 26 13 58 31 hvcurveto
          -38 41 48 -35 60 hhcurveto
          68 87 74 33 16 -10 12 -19 hvcurveto
          -33 -19 -81 -85 hhcurveto
          -40 -35 36 37 -37 hvcurveto
          19 46 22 60 28 82 34 1 30 3 14 2 34 4 56 11 -2 19 -2 15 -15 1 -131 -1 rrcurveto
          182 63 41 32 38 hhcurveto
          28 18 -16 -32 hvcurveto
          -15 -6 -8 -12 vvcurveto
          -8 6 -5 7 13 36 28 29 53 -37 43 -61 vhcurveto
          endchar
        </CharString>
        <CharString name="summation">
          304 406 386 rmoveto
          -1 hlineto
          -17 -100 -12 -73 hhcurveto
          -51 -40 4 18 52 232 197 78 hvcurveto
          32 3 -35 17 hhcurveto
          8 8 12 10 27 -25 41 -39 -107 -267 -223 -88 -55 90 -8 92 hvcurveto
          8 hlineto
          -109 -64 -118 -101 -65 vvcurveto
          -45 56 -36 48 111 107 9 27 90 vhcurveto
          34 11 29 13 17 vvcurveto
          14 -9 6 -19 -33 -86 -43 -1 -225 vhcurveto
          -24 -20 9 26 21 44 47 106 81 hvcurveto
          82 62 113 43 15 vvcurveto
          11 -12 3 -12 vhcurveto
          endchar
        </CharString>
        <CharString name="t">
          -177 206 427 7 callsubr
          endchar
        </CharString>
        <CharString name="tcaron">
          -145 218 427 7 callsubr
          152 306 rmoveto
          -18 -18 -12 -19 -28 42 18 4 -41 hvcurveto
          -3 -45 -82 -33 -24 vvcurveto
          -7 6 -3 9 29 97 52 77 42 -34 23 -32 vhcurveto
          endchar
        </CharString>
        <CharString name="thorn">
          -3 186 152 rmoveto
          -22 2 -15 10 -10 5 9 37 8 32 6 23 11 43 10 44 8 42 rrcurveto
          32 56 47 13 29 hhcurveto
          60 48 -53 -67 -89 -155 -84 -90 10 hvcurveto
          139 346 rmoveto
          -23 -50 -10 -25 -47 hvcurveto
          16 90 8 72 21 vvcurveto
          33 -24 34 -17 -15 -3 -8 -22 vhcurveto
          -176 -169 -599 -65 342 callsubr
          10 46 182 143 37 vhcurveto
          8 -12 16 -11 27 -7 rrcurveto
          117 -15 194 95 144 vvcurveto
          89 -86 90 -79 vhcurveto
          endchar
        </CharString>
        <CharString name="three">
          55 290 359 rmoveto
          95 34 158 85 94 vvcurveto
          68 -59 66 -86 -70 -135 -53 -32 -11 28 -24 11 vhcurveto
          14 84 64 75 hhcurveto
          66 8 -42 -23 -131 -266 -58 -13 -43 hvcurveto
          -2 -2 -1 -4 -5 -27 261 0 -81 -162 -391 -6 -21 vvcurveto
          -19 27 -8 69 162 210 94 119 76 -111 44 -134 8 vhcurveto
          endchar
        </CharString>
        <CharString name="threequarters">
          300 396 476 rmoveto
          47 -60 29 -74 10 vhcurveto
          61 27 77 49 55 vvcurveto
          46 -42 46 -56 -54 -84 -35 -26 -13 18 -16 14 vhcurveto
          25 35 41 50 hhcurveto
          36 4 -21 -13 -79 -165 -34 -12 -33 hvcurveto
          -1 -3 -1 -3 -4 -27 166 7 -48 -100 -250 4 -25 vvcurveto
          -17 24 -6 45 104 140 62 80 vhcurveto
          266 261 rmoveto
          -9 2 -3 -7 -13 -19 -343 -481 -122 -177 -8 -36 -2 -10 16 -23 8 -3 13 341 callsubr
          95 139 161 306 callsubr
          -9 336 callgsubr
          -49 305 callgsubr
          -14 14 -13 -25 -154 -190 -82 -54 36 -35 54 34 45 13 16 35 vhcurveto
          -18 -79 -25 -52 -21 vvcurveto
          -13 8 -14 12 31 63 211 94 19 -25 25 -11 vhcurveto
          endchar
        </CharString>
        <CharString name="threesuperior">
          -212 214 550 rmoveto
          46 22 53 37 41 vvcurveto
          38 -33 37 -46 -41 -68 -27 -23 -12 16 -14 11 vhcurveto
          20 28 32 38 hhcurveto
          26 3 -14 -9 -54 -103 -26 -29 -25 hvcurveto
          -5 -3 -4 -5 -9 -24 130 5 -34 -77 -194 8 -25 vvcurveto
          -17 20 -4 36 81 111 48 66 36 -42 23 -54 9 vhcurveto
          endchar
        </CharString>
        <CharString name="tilde">
          -3 695 rmoveto
          229 callgsubr
          39 callgsubr
          endchar
        </CharString>
        <CharString name="trademark">
          211 215 644 rmoveto
          -144 -17 -1 -8 -11 11 -18 14 16 34 2 1 27 hvcurveto
          -8 -63 -43 -121 -27 vvcurveto
          -9 14 -10 6 13 16 57 51 15 vhcurveto
          19 60 10 43 1 19 rrcurveto
          -1 31 19 -2 17 hhcurveto
          20 13 2 7 15 -29 14 -55 hvcurveto
          388 -1 rmoveto
          -17 -42 -52 -98 -90 hvcurveto
          -29 57 -22 47 -3 20 rrcurveto
          14 -2 -15 13 -9 hhcurveto
          -10 -6 -3 -10 hvcurveto
          -48 -54 -150 -30 vvcurveto
          -9 18 -15 6 7 7 33 51 16 vhcurveto
          12 37 9 24 7 24 17 -37 13 -29 11 -17 rrcurveto
          -9 5 11 -6 9 hhcurveto
          21 33 39 80 72 hvcurveto
          -18 -56 -18 -83 -26 vvcurveto
          -16 14 -9 6 14 5 51 55 17 vhcurveto
          21 68 18 51 17 vvcurveto
          10 -24 12 -10 vhcurveto
          endchar
        </CharString>
        <CharString name="two">
          51 447 122 rmoveto
          -48 -232 -44 -4 -60 hvcurveto
          221 154 166 153 168 vvcurveto
          91 -65 74 -96 -76 -101 -77 -32 -18 26 -10 14 vhcurveto
          17 51 76 78 hhcurveto
          58 31 -49 -61 -231 -370 -164 -2 -61 hvcurveto
          -38 -1 44 -26 35 hhcurveto
          66 288 50 35 14 -15 0 -29 hvcurveto
          endchar
        </CharString>
        <CharString name="twosuperior">
          -236 132 640 rmoveto
          13 25 39 33 hhcurveto
          24 13 -19 -28 -109 -184 -81 -1 -36 hvcurveto
          -22 -2 29 -17 19 hhcurveto
          36 147 24 25 16 -15 -1 -14 -19 -70 -13 -7 -53 hvcurveto
          100 69 74 69 86 vvcurveto
          50 -37 39 -51 -42 -55 -38 -23 -14 22 -9 8 vhcurveto
          endchar
        </CharString>
        <CharString name="u">
          -50 444 432 37 callgsubr
        </CharString>
        <CharString name="uacute">
          -50 444 432 -64 callgsubr
          -28 556 43 callsubr
        </CharString>
        <CharString name="ucircumflex">
          -50 444 432 -64 callgsubr
          51 621 -40 callsubr
          endchar
        </CharString>
        <CharString name="udieresis">
          -50 410 587 rmoveto
          247 callsubr
          -11 callsubr
          hvcurveto
          -136 hmoveto
          247 callsubr
          -11 callsubr
          hvcurveto
          170 -155 37 callgsubr
        </CharString>
        <CharString name="ugrave">
          -50 313 580 rmoveto
          18 callsubr
          230 callgsubr
          rrcurveto
          243 -235 37 callgsubr
        </CharString>
        <CharString name="uhungarumlaut">
          -50 361 710 rmoveto
          9 14 -7 28 -19 10 -16 9 -14 -2 -8 -16 -61 -143 rcurveline
          -7 -17 0 -18 12 -7 14 -8 17 15 7 12 rrcurveto
          156 -155 -64 callgsubr
          38 552 rmoveto
          -8 -15 -3 -18 11 -8 13 -10 19 14 8 10 84 117 rcurveline
          10 12 -4 29 -19 12 -15 10 -13 0 -10 -16 rrcurveto
          endchar
        </CharString>
        <CharString name="umacron">
          -50 444 432 -64 callgsubr
          82 582 140 callsubr
        </CharString>
        <CharString name="underscore">
          73 533 25 rmoveto
          12 -16 9 -31 5 vhcurveto
          7 -54 -65 2 -60 hhcurveto
          -116 -136 -12 -20 -16 14 -19 15 -1 hvcurveto
          44 1 96 10 110 1 rrcurveto
          100 1 99 1 19 vvcurveto
          endchar
        </CharString>
        <CharString name="uni00A0">
          endchar
        </CharString>
        <CharString name="uni00AD">
          71 226 callgsubr
        </CharString>
        <CharString name="uni00B5">
          119 560 502 rmoveto
          -14 1 -8 -22 -4 hvcurveto
          -87 -19 -127 -314 -114 hhcurveto
          -28 -22 23 31 hvcurveto
          145 88 165 45 vvcurveto
          10 -24 12 -12 -23 -39 -166 -171 -65 vhcurveto
          -79 -208 -54 -116 -17 vvcurveto
          -12 15 -12 14 22 69 184 110 51 vhcurveto
          -43 3 31 -34 49 hhcurveto
          77 68 83 79 45 hvcurveto
          -16 -52 -11 -48 -3 -20 rrcurveto
          -26 -2 10 -16 14 hhcurveto
          8 11 10 32 9 hvcurveto
          17 54 90 319 1 vvcurveto
          33 8 -26 36 -18 hhcurveto
          endchar
        </CharString>
</ttFont>
